<svg width="33" height="33" viewBox="0 0 33 33" fill="none" xmlns="http://www.w3.org/2000/svg">
<path d="M17.4899 2.79114C15.5229 2.64795 13.5481 2.92997 11.6999 3.61801C9.85157 4.30605 8.17309 5.38399 6.77854 6.77854C5.38399 8.17309 4.30605 9.85157 3.61801 11.6999C2.92997 13.5481 2.64795 15.5229 2.79114 17.4899C3.28614 24.7636 9.63864 30.2499 16.9261 30.2499H21.9999C22.7561 30.2499 23.3749 29.6311 23.3749 28.8749C23.3749 28.1186 22.7561 27.4999 21.9999 27.4999H16.9536C11.8249 27.4999 7.12239 24.1724 5.84364 19.2086C3.79489 11.2336 11.2199 3.79489 19.1949 5.85739C24.1724 7.12239 27.4999 11.8249 27.4999 16.9536V18.4661C27.4999 19.5524 26.5236 20.6249 25.4374 20.6249C24.3511 20.6249 23.3749 19.5524 23.3749 18.4661V16.7474C23.3749 13.2961 20.9274 10.1886 17.5174 9.70739C16.4325 9.54606 15.3247 9.64625 14.2863 9.9996C13.2479 10.353 12.309 10.9492 11.5476 11.7388C10.7863 12.5284 10.2246 13.4885 9.90925 14.539C9.59394 15.5896 9.53416 16.7003 9.73489 17.7786C9.97605 19.078 10.5869 20.2802 11.4941 21.2411C12.4014 22.202 13.5665 22.8808 14.8499 23.1961C17.3799 23.7874 19.7861 22.9761 21.3674 21.3674C22.5911 23.0449 25.0386 23.9249 27.2799 23.0311C29.1224 22.3024 30.2499 20.4186 30.2499 18.4386V16.9399C30.2499 9.63864 24.7636 3.28614 17.4899 2.79114ZM16.4999 20.6249C14.2174 20.6249 12.3749 18.7824 12.3749 16.4999C12.3749 14.2174 14.2174 12.3749 16.4999 12.3749C18.7824 12.3749 20.6249 14.2174 20.6249 16.4999C20.6249 18.7824 18.7824 20.6249 16.4999 20.6249Z" fill="white"/>
</svg>
