<svg width="838" height="610" viewBox="0 0 838 610" fill="none" xmlns="http://www.w3.org/2000/svg">
<path opacity="0.1" d="M59.222 492.509C82.2662 492.509 100.947 485.86 100.947 477.657C100.947 469.455 82.2662 462.805 59.222 462.805C36.1778 462.805 17.4968 469.455 17.4968 477.657C17.4968 485.86 36.1778 492.509 59.222 492.509Z" fill="black"/>
<path opacity="0.1" d="M733.297 553.914C756.342 553.914 775.023 547.265 775.023 539.062C775.023 530.859 756.342 524.21 733.297 524.21C710.253 524.21 691.572 530.859 691.572 539.062C691.572 547.265 710.253 553.914 733.297 553.914Z" fill="black"/>
<path d="M731.61 541.169C731.61 541.169 742.737 503.259 729.514 475.355C723.883 463.687 722.185 450.505 724.674 437.788C725.903 431.759 727.682 425.855 729.987 420.151" fill="#3F3D56"/>
<path d="M731.61 541.169C731.61 541.169 742.737 503.259 729.514 475.355C723.883 463.687 722.185 450.505 724.674 437.788C725.903 431.759 727.682 425.855 729.987 420.151" stroke="black" stroke-width="2" stroke-miterlimit="10"/>
<path d="M721.753 402.523C721.753 407.165 730.154 420.643 730.154 420.643C730.154 420.643 738.555 407.174 738.555 402.523C738.555 400.292 737.669 398.151 736.093 396.573C734.517 394.995 732.379 394.109 730.149 394.109C727.92 394.109 725.782 394.995 724.206 396.573C722.63 398.151 721.744 400.292 721.744 402.523H721.753Z" fill="#BD6139"/>
<path d="M707.864 428.264C710.386 432.163 724.758 438.902 724.758 438.902C724.758 438.902 724.498 423.02 721.976 419.121C721.376 418.194 720.6 417.394 719.692 416.767C718.783 416.141 717.76 415.699 716.682 415.468C715.603 415.237 714.489 415.221 713.404 415.421C712.319 415.621 711.284 416.033 710.358 416.633C709.432 417.234 708.633 418.011 708.007 418.92C707.381 419.829 706.94 420.853 706.709 421.934C706.479 423.014 706.462 424.129 706.662 425.215C706.862 426.301 707.273 427.337 707.873 428.264H707.864Z" fill="#BD6139"/>
<path d="M708.466 472.236C712.611 474.325 728.411 472.886 728.411 472.886C728.411 472.886 720.177 459.305 716.033 457.217C714.043 456.212 711.737 456.04 709.62 456.738C707.504 457.436 705.751 458.948 704.748 460.939C703.745 462.931 703.573 465.24 704.27 467.359C704.967 469.477 706.477 471.232 708.466 472.236V472.236Z" fill="#BD6139"/>
<path d="M716.413 505.412C720.122 508.197 735.959 509.422 735.959 509.422C735.959 509.422 730.136 494.645 726.408 491.888C724.617 490.561 722.372 490 720.168 490.33C717.964 490.66 715.981 491.853 714.656 493.647C713.33 495.44 712.771 497.687 713.1 499.894C713.43 502.1 714.621 504.085 716.413 505.412V505.412Z" fill="#BD6139"/>
<path d="M742.394 439.803C739.065 443.042 723.552 446.393 723.552 446.393C723.552 446.393 727.354 430.975 730.683 427.735C732.281 426.181 734.431 425.325 736.659 425.357C738.888 425.39 741.012 426.307 742.565 427.907C744.118 429.507 744.972 431.66 744.94 433.89C744.908 436.121 743.992 438.248 742.394 439.803V439.803Z" fill="#BD6139"/>
<path d="M751.193 478.706C747.048 480.795 731.248 479.356 731.248 479.356C731.248 479.356 739.482 465.775 743.627 463.733C745.616 462.729 747.923 462.557 750.039 463.255C752.155 463.953 753.908 465.464 754.911 467.456C755.914 469.447 756.086 471.756 755.389 473.875C754.692 475.994 753.182 477.748 751.193 478.753V478.706Z" fill="#BD6139"/>
<path d="M754.559 517.703C750.85 520.488 735.013 521.713 735.013 521.713C735.013 521.713 740.836 506.935 744.563 504.178C746.355 502.851 748.599 502.291 750.803 502.621C753.007 502.95 754.99 504.143 756.316 505.937C757.641 507.73 758.201 509.978 757.871 512.184C757.542 514.391 756.35 516.376 754.559 517.703V517.703Z" fill="#BD6139"/>
<path d="M59.2406 477.769C59.2406 477.769 83.061 396.898 54.7899 337.304C42.9214 312.305 39.027 284.253 44.4698 257.129C47.0937 244.265 50.8896 231.668 55.8098 219.498" fill="#3F3D56"/>
<path d="M59.2406 477.769C59.2406 477.769 83.061 396.898 54.7899 337.304C42.9214 312.305 39.027 284.253 44.4698 257.129C47.0937 244.265 50.8896 231.668 55.8098 219.498" stroke="black" stroke-width="2" stroke-miterlimit="10"/>
<path d="M38.2204 181.856C38.2204 191.77 56.153 220.528 56.153 220.528C56.153 220.528 74.0763 191.752 74.0763 181.856C74.0763 177.095 72.187 172.529 68.824 169.162C65.461 165.795 60.8998 163.904 56.1438 163.904C51.3877 163.904 46.8265 165.795 43.4635 169.162C40.1005 172.529 38.2112 177.095 38.2112 181.856H38.2204Z" fill="#BD6139"/>
<path d="M8.57685 236.782C13.964 245.136 44.6274 259.487 44.6274 259.487C44.6274 259.487 44.0711 225.587 38.6839 217.27C36.0485 213.395 32.0039 210.706 27.4143 209.777C22.8248 208.848 18.0544 209.754 14.1227 212.299C10.191 214.845 7.40979 218.829 6.37348 223.401C5.33717 227.972 6.12796 232.768 8.57685 236.763V236.782Z" fill="#BD6139"/>
<path d="M9.8657 330.648C18.7114 335.113 52.4347 332.031 52.4347 332.031C52.4347 332.031 34.8174 303.051 26.018 298.614C23.9151 297.552 21.6239 296.915 19.2752 296.74C16.9266 296.565 14.5664 296.854 12.3295 297.592C10.0926 298.33 8.02275 299.501 6.23817 301.04C4.45359 302.579 2.98921 304.454 1.92863 306.56C0.86806 308.665 0.232066 310.959 0.0569618 313.31C-0.118142 315.661 0.171074 318.024 0.908099 320.263C2.39659 324.786 5.61873 328.532 9.8657 330.676V330.648Z" fill="#BD6139"/>
<path d="M26.7875 401.447C34.7524 407.341 68.5127 410.005 68.5127 410.005C68.5127 410.005 56.0879 378.444 48.1137 372.578C44.2898 369.747 39.4989 368.552 34.7953 369.257C30.0916 369.962 25.8603 372.509 23.0322 376.337C20.2042 380.166 19.0111 384.962 19.7153 389.671C20.4196 394.38 22.9635 398.616 26.7875 401.447V401.447Z" fill="#BD6139"/>
<path d="M82.2822 261.372C75.1796 268.278 42.0776 275.435 42.0776 275.435C42.0776 275.435 50.1816 242.519 57.2842 235.612C60.6962 232.289 65.2874 230.458 70.0476 230.523C74.8078 230.589 79.3471 232.544 82.667 235.96C85.9869 239.376 87.8153 243.973 87.7501 248.738C87.6849 253.504 85.7314 258.048 82.3193 261.372H82.2822Z" fill="#BD6139"/>
<path d="M101.058 344.461C92.2127 348.925 58.4895 345.844 58.4895 345.844C58.4895 345.844 76.1068 316.863 84.9062 312.426C87.0091 311.364 89.3003 310.728 91.6489 310.552C93.9976 310.377 96.3578 310.667 98.5947 311.404C100.832 312.142 102.901 313.314 104.686 314.853C106.471 316.391 107.935 318.267 108.996 320.372C110.056 322.477 110.692 324.771 110.867 327.122C111.042 329.474 110.753 331.836 110.016 334.076C109.279 336.315 108.109 338.387 106.572 340.174C105.035 341.961 103.161 343.427 101.058 344.488V344.461Z" fill="#BD6139"/>
<path d="M108.245 427.689C100.28 433.583 66.5193 436.247 66.5193 436.247C66.5193 436.247 78.9441 404.686 86.9183 398.82C90.7423 395.989 95.5331 394.794 100.237 395.499C104.94 396.204 109.172 398.751 112 402.579C114.828 406.408 116.021 411.204 115.317 415.913C114.612 420.622 112.068 424.858 108.245 427.689V427.689Z" fill="#BD6139"/>
<path d="M351.558 278.284L299.884 271.582C297.788 271.313 296.175 270.515 296.23 269.819C296.323 269.123 298.085 268.798 300.227 269.104L351.79 276.576C353.209 276.781 354.284 277.319 354.219 277.792C354.154 278.238 352.967 278.47 351.558 278.284Z" fill="#BD6139"/>
<path d="M351.883 279.166L300.051 273.801C297.946 273.588 296.156 273.977 296.091 274.674C296.027 275.37 297.705 276.103 299.8 276.289L351.725 280.93C353.153 281.06 354.321 280.782 354.368 280.308C354.405 279.807 353.301 279.315 351.883 279.166Z" fill="#BD6139"/>
<path d="M429.64 318.2L481.305 311.498C483.401 311.229 485.014 310.43 484.958 309.734C484.866 309.038 483.104 308.713 480.962 309.019L429.399 316.492C427.98 316.696 426.905 317.235 426.97 317.708C427.034 318.154 428.221 318.386 429.64 318.2Z" fill="#BD6139"/>
<path d="M429.306 319.082L481.138 313.716C483.243 313.503 485.033 313.893 485.097 314.589C485.162 315.285 483.484 316.018 481.389 316.204L429.464 320.845C428.036 320.975 426.868 320.697 426.821 320.224C426.784 319.722 427.888 319.23 429.306 319.082Z" fill="#BD6139"/>
<path d="M258.724 373.757H246.123V554.638H258.724V373.757Z" fill="#3F3D56"/>
<path d="M533.944 373.757H521.343V554.638H533.944V373.757Z" fill="#3F3D56"/>
<path d="M241.311 359.034H532.46C537.87 359.034 543.059 361.186 546.884 365.016C550.71 368.845 552.859 374.04 552.859 379.456V382.167H220.912V379.456C220.912 374.04 223.061 368.845 226.887 365.016C230.712 361.186 235.901 359.034 241.311 359.034V359.034Z" fill="#DFE6F5"/>
<path opacity="0.1" d="M240.384 359.034H531.533C536.943 359.034 542.132 361.186 545.957 365.016C549.783 368.845 551.932 374.04 551.932 379.456V382.167H219.985V379.456C219.985 374.04 222.134 368.845 225.959 365.016C229.785 361.186 234.973 359.034 240.384 359.034V359.034Z" fill="black"/>
<path d="M241.311 354.82H532.46C537.87 354.82 543.059 356.971 546.884 360.801C550.71 364.631 552.859 369.825 552.859 375.242V377.952H220.912V375.242C220.912 369.825 223.061 364.631 226.887 360.801C230.712 356.971 235.901 354.82 241.311 354.82Z" fill="#DFE6F5"/>
<path d="M386.885 340.098C400.809 340.098 412.097 328.798 412.097 314.858C412.097 300.919 400.809 289.619 386.885 289.619C372.962 289.619 361.674 300.919 361.674 314.858C361.674 328.798 372.962 340.098 386.885 340.098Z" fill="#F8D66D" stroke="#FFAB50" stroke-miterlimit="10"/>
<path d="M386.885 334.862C397.921 334.862 406.867 325.906 406.867 314.858C406.867 303.81 397.921 294.854 386.885 294.854C375.85 294.854 366.904 303.81 366.904 314.858C366.904 325.906 375.85 334.862 386.885 334.862Z" fill="#F8D66D" stroke="#FFAB50" stroke-miterlimit="10"/>
<path d="M386.885 330.1C395.294 330.1 402.111 323.276 402.111 314.858C402.111 306.44 395.294 299.616 386.885 299.616C378.477 299.616 371.66 306.44 371.66 314.858C371.66 323.276 378.477 330.1 386.885 330.1Z" fill="#F8D66D" stroke="#FFAB50" stroke-miterlimit="10"/>
<path d="M386.885 323.426C391.612 323.426 395.444 319.59 395.444 314.858C395.444 310.126 391.612 306.29 386.885 306.29C382.159 306.29 378.327 310.126 378.327 314.858C378.327 319.59 382.159 323.426 386.885 323.426Z" fill="#F8D66D" stroke="#FFAB50" stroke-miterlimit="10"/>
<path d="M372.18 353.771C386.103 353.771 397.391 342.471 397.391 328.532C397.391 314.592 386.103 303.292 372.18 303.292C358.256 303.292 346.968 314.592 346.968 328.532C346.968 342.471 358.256 353.771 372.18 353.771Z" fill="#F8D66D" stroke="#FFAB50" stroke-miterlimit="10"/>
<path d="M372.18 348.536C383.215 348.536 392.161 339.58 392.161 328.532C392.161 317.484 383.215 308.527 372.18 308.527C361.144 308.527 352.198 317.484 352.198 328.532C352.198 339.58 361.144 348.536 372.18 348.536Z" fill="#F8D66D" stroke="#FFAB50" stroke-miterlimit="10"/>
<path d="M372.18 343.774C380.588 343.774 387.405 336.95 387.405 328.532C387.405 320.114 380.588 313.289 372.18 313.289C363.771 313.289 356.955 320.114 356.955 328.532C356.955 336.95 363.771 343.774 372.18 343.774Z" fill="#F8D66D" stroke="#FFAB50" stroke-miterlimit="10"/>
<path d="M372.18 337.099C376.906 337.099 380.738 333.263 380.738 328.532C380.738 323.8 376.906 319.964 372.18 319.964C367.453 319.964 363.621 323.8 363.621 328.532C363.621 333.263 367.453 337.099 372.18 337.099Z" fill="#F8D66D" stroke="#FFAB50" stroke-miterlimit="10"/>
<path d="M401.591 353.771C415.515 353.771 426.802 342.471 426.802 328.532C426.802 314.592 415.515 303.292 401.591 303.292C387.667 303.292 376.38 314.592 376.38 328.532C376.38 342.471 387.667 353.771 401.591 353.771Z" fill="#F8D66D" stroke="#FFAB50" stroke-miterlimit="10"/>
<path d="M401.591 348.536C412.627 348.536 421.573 339.58 421.573 328.532C421.573 317.484 412.627 308.527 401.591 308.527C390.556 308.527 381.609 317.484 381.609 328.532C381.609 339.58 390.556 348.536 401.591 348.536Z" fill="#F8D66D" stroke="#FFAB50" stroke-miterlimit="10"/>
<path d="M401.591 343.774C410 343.774 416.816 336.95 416.816 328.532C416.816 320.114 410 313.289 401.591 313.289C393.183 313.289 386.366 320.114 386.366 328.532C386.366 336.95 393.183 343.774 401.591 343.774Z" fill="#F8D66D" stroke="#FFAB50" stroke-miterlimit="10"/>
<path d="M401.591 337.099C406.318 337.099 410.15 333.263 410.15 328.532C410.15 323.8 406.318 319.964 401.591 319.964C396.865 319.964 393.033 323.8 393.033 328.532C393.033 333.263 396.865 337.099 401.591 337.099Z" fill="#F8D66D" stroke="#FFAB50" stroke-miterlimit="10"/>
<path d="M334.358 321.18H439.404V326.118C439.404 330.994 438.444 335.822 436.58 340.327C434.717 344.832 431.985 348.926 428.541 352.373C425.096 355.821 421.008 358.556 416.508 360.422C412.008 362.288 407.185 363.249 402.315 363.249H371.447C366.577 363.249 361.754 362.288 357.254 360.422C352.754 358.556 348.665 355.821 345.221 352.373C341.777 348.926 339.045 344.832 337.181 340.327C335.317 335.822 334.358 330.994 334.358 326.118V321.18Z" fill="#BD6139"/>
<path opacity="0.1" d="M429.927 321.17C429.654 332.139 425.11 342.567 417.264 350.229C409.419 357.89 398.893 362.18 387.933 362.181H367.08C370.122 362.877 373.232 363.231 376.352 363.239H397.363C402.883 363.242 408.349 362.155 413.45 360.042C418.55 357.929 423.185 354.831 427.089 350.924C430.993 347.017 434.09 342.379 436.203 337.274C438.316 332.168 439.404 326.696 439.404 321.17H429.927Z" fill="black"/>
<path d="M527.648 524.135V511.52H254.524V524.135H527.648Z" fill="#3F3D56"/>
<path d="M152.121 467.465H141.096V567.885H152.121V467.465Z" fill="#3F3D56"/>
<path d="M239.197 467.465H228.172V567.885H239.197V467.465Z" fill="#3F3D56"/>
<path d="M248.024 450.914C248.024 457.616 225.325 463.056 197.323 463.056C169.321 463.056 147.726 457.625 147.726 450.914C147.726 444.203 169.321 438.772 197.323 438.772C225.325 438.772 248.024 444.24 248.024 450.914Z" fill="#BFBFBF"/>
<path d="M132.278 450.905H248.015V461.023C248.015 463.608 246.989 466.087 245.163 467.915C243.337 469.743 240.861 470.77 238.279 470.77H148.968C144.542 470.77 140.297 469.009 137.167 465.876C134.037 462.742 132.278 458.492 132.278 454.061V450.905Z" fill="#3F3D56"/>
<path d="M112.624 334.798L115.012 334.258C116.691 333.879 118.452 334.183 119.907 335.103C121.363 336.023 122.393 337.485 122.772 339.166L151.678 467.364L148.06 468.182C145.023 468.868 141.838 468.318 139.206 466.654C136.574 464.989 134.71 462.346 134.024 459.306L107.704 342.571C107.516 341.737 107.494 340.874 107.64 340.032C107.785 339.19 108.096 338.384 108.553 337.662C109.01 336.94 109.605 336.315 110.303 335.824C111.002 335.332 111.791 334.984 112.624 334.798Z" fill="#3F3D56"/>
<path d="M623.495 569.667H634.52V469.247H623.495V569.667Z" fill="#3F3D56"/>
<path d="M536.419 569.667H547.444V469.247H536.419V569.667Z" fill="#3F3D56"/>
<path d="M527.611 452.696C527.611 459.398 550.309 464.838 578.312 464.838C606.314 464.838 627.909 459.408 627.909 452.696C627.909 445.985 606.305 440.527 578.312 440.527C550.319 440.527 527.611 445.994 527.611 452.696Z" fill="#BFBFBF"/>
<path d="M626.648 472.561H537.337C534.755 472.561 532.279 471.534 530.453 469.706C528.627 467.878 527.601 465.399 527.601 462.814V452.696H643.338V455.852C643.338 460.284 641.579 464.534 638.449 467.667C635.319 470.801 631.074 472.561 626.648 472.561Z" fill="#3F3D56"/>
<path d="M627.573 469.963L623.955 469.146L652.864 340.929C653.243 339.248 654.274 337.787 655.729 336.866C657.185 335.946 658.946 335.642 660.625 336.022L663.012 336.561C664.692 336.941 666.152 337.972 667.071 339.429C667.99 340.886 668.294 342.649 667.915 344.33L641.59 461.083C640.905 464.121 639.044 466.762 636.416 468.426C633.788 470.091 630.607 470.644 627.573 469.963V469.963Z" fill="#3F3D56"/>
<path d="M631.497 413.607L634.752 412.577C634.752 412.577 629.189 375.372 629.244 342.029C629.244 341.1 629.244 340.107 629.244 339.151C629.309 337.072 629.383 335.011 629.485 332.997C629.615 330.416 629.643 327.956 629.624 325.57C629.93 293.462 617.292 279.9 617.292 279.9C617.292 279.9 602.457 258.717 593.564 254.595C592.795 252.182 591.914 249.081 591.135 245.48C591.423 245.285 591.701 245.09 591.97 244.886C595.642 242.158 599.156 239.223 602.494 236.095C607.056 231.816 611.432 226.599 611.191 220.714C611.216 220.141 611.198 219.567 611.135 218.996C610.292 211.895 602.92 206.548 599.944 199.818C597.44 194.165 598.191 187.872 596.003 182.135C593.815 176.398 586.174 171.061 580.407 174.078C578.284 175.192 577.004 177.159 575.233 178.654C570.838 182.367 563.754 182.71 557.746 181.021C551.737 179.332 549.957 172.444 541.556 172.425C542.302 172.676 543.015 173.015 543.68 173.437C542.978 173.319 542.268 173.257 541.556 173.251C543.265 173.793 544.78 174.818 545.919 176.204C547.058 177.589 547.771 179.275 547.973 181.058C547.96 181.282 547.935 181.505 547.899 181.727C544.542 183.537 540.128 182.506 536.104 182.441C532.08 182.376 527.499 184.409 527.898 187.705C527.831 188.079 527.831 188.463 527.898 188.837C528.427 191.334 531.765 193.218 532.173 195.53C532.173 195.595 532.173 195.65 532.173 195.715C524.726 199.441 516.669 201.793 508.389 202.659C508.12 202.659 508.241 202.984 508.63 203.457H508.389C506.878 203.615 517.448 211.979 518.654 212.526C523.067 214.531 528.343 216.007 533.017 217.548L533.425 217.678C531.85 221.34 531.039 225.285 531.042 229.272C531.042 243.568 541.306 255.579 555.205 258.977C557.801 262.012 560.527 265.345 563.012 268.659H562.836C562.836 268.659 546.86 289.934 547.37 321.709C547.325 325.691 547.535 329.672 548 333.628C537.727 333.043 515.65 330.332 498.857 318.024C476.205 301.436 450.938 306.411 456.205 316.362C461.472 326.313 488.445 334.602 492.793 335.438C493.201 335.512 494.147 335.735 495.501 336.069C490.141 337.081 486.47 338.854 486.692 341.24C487.128 345.797 510.216 360.315 524.152 361.142C533.36 361.689 544.44 364.53 553.184 367.027C554.027 386.103 549.419 391.821 549.419 391.821C549.419 391.821 550.791 392.665 553.063 393.863L552.09 396.648C546.434 399.915 539.461 403.322 533.118 404.696C525.037 406.358 517.18 408.976 509.715 412.493L478.347 427.67C475.546 428.971 473.122 430.966 471.305 433.466C469.488 435.965 468.337 438.888 467.962 441.956C467.276 448.389 469.214 456.428 479.71 462.805C480.359 468.031 483.549 474.13 491.922 479.718C508.148 490.523 550.791 522.892 556.596 527.31C556.707 535.21 555.669 551.055 545.933 553.524C533.73 556.625 543.55 568.377 553.416 567.912C555.757 568.799 558.305 568.986 560.75 568.451C571.209 565.963 609.541 552.67 612.155 532.787C612.264 531.925 612.313 531.057 612.304 530.188C612.456 526.798 611.611 523.438 609.874 520.525C610.283 521.423 610.615 522.355 610.867 523.309C607.695 516.069 599.972 511.52 593.963 508.958C593.963 508.893 593.963 508.819 593.963 508.754C593.036 508.392 592.109 508.095 591.348 507.826C591.364 507.288 591.323 506.75 591.228 506.22L531.116 464.754C531.116 464.754 557.254 443.191 584.264 446.514C611.274 449.837 615.577 444.927 615.577 444.927C615.577 444.927 629.43 431.736 630.82 416.55L631.692 416.318C631.692 416.318 631.627 415.361 631.497 413.607Z" fill="url(#paint0_linear)"/>
<path d="M558.089 521.611C558.089 521.611 560.546 548.688 548.251 551.974C535.956 555.26 547.435 568.386 557.263 565.898C567.092 563.41 603.171 550.303 605.628 530.624C608.085 510.945 581.038 504.363 581.038 504.363L558.089 521.611Z" fill="#3F3D56"/>
<path opacity="0.05" d="M558.089 521.611C558.089 521.611 560.546 548.688 548.251 551.974C535.956 555.26 547.435 568.386 557.263 565.898C567.092 563.41 603.171 550.303 605.628 530.624C608.085 510.945 581.038 504.363 581.038 504.363L558.089 521.611Z" fill="black"/>
<path d="M563.031 522.428C563.031 522.428 565.488 549.505 553.193 552.791C540.898 556.077 552.377 569.203 562.205 566.715C572.034 564.227 608.112 551.12 610.57 531.441C613.027 511.762 585.979 505.18 585.979 505.18L563.031 522.428Z" fill="#3F3D56"/>
<path opacity="0.1" d="M588.437 506.016L565.506 523.254C565.506 523.254 565.608 524.423 565.673 526.289C574.334 523.913 593.203 517.601 593.49 507.724C591.841 507.054 590.154 506.483 588.437 506.016V506.016Z" fill="black"/>
<path d="M574.093 270.079H564.255V277.468H574.093V270.079Z" fill="#F8BDC5"/>
<path d="M564.672 389.472C564.672 389.472 549.048 401.762 536.215 404.677C528.585 406.33 521.189 408.921 514.194 412.391L484.68 427.41C482 428.76 479.701 430.762 477.993 433.232C476.286 435.702 475.225 438.561 474.907 441.548C474.063 449.902 477.42 460.893 497.448 467.428L560.564 519.949L580.24 503.537L513.026 451.851L564.672 419.845V389.472Z" fill="#758AC8"/>
<path opacity="0.1" d="M564.672 389.472C564.672 389.472 549.048 401.762 536.215 404.677C528.585 406.33 521.189 408.921 514.194 412.391L484.68 427.41C482 428.76 479.701 430.762 477.993 433.232C476.286 435.702 475.225 438.561 474.907 441.548C474.063 449.902 477.42 460.893 497.448 467.428L560.564 519.949L580.24 503.537L513.026 451.851L564.672 419.845V389.472Z" fill="black"/>
<path d="M555.65 334.5C555.65 334.5 525.32 335.317 504.003 318.905C482.687 302.494 458.922 307.413 463.836 317.262C468.75 327.111 494.166 335.317 498.264 336.134C502.362 336.951 561.38 353.372 561.38 353.372L555.65 334.5Z" fill="#F8BDC5"/>
<path opacity="0.05" d="M555.65 334.5C555.65 334.5 525.32 335.317 504.003 318.905C482.687 302.494 458.922 307.413 463.836 317.262C468.75 327.111 494.166 335.317 498.264 336.134C502.362 336.951 561.38 353.372 561.38 353.372L555.65 334.5Z" fill="black"/>
<path d="M558.932 382.102L549.095 411.648C549.095 411.648 493.767 445.706 489.251 450.218C485.746 453.727 481.055 467.456 497.448 478.938C513.841 490.421 558.923 526.54 558.923 526.54C558.923 526.54 593.351 519.114 590.894 505.19L534.333 464.16C534.333 464.16 558.923 442.81 584.338 446.106C609.754 449.401 613.852 444.463 613.852 444.463C613.852 444.463 633.528 424.746 626.963 405.902C620.398 387.059 558.932 382.102 558.932 382.102Z" fill="#758AC8"/>
<path d="M546.638 248.376C546.638 248.376 574.51 278.739 572.869 287.762C571.228 296.785 595.002 261.501 595.002 261.501C595.002 261.501 587.584 243.447 589.262 223.749L546.638 248.376Z" fill="#F8BDC5"/>
<path opacity="0.1" d="M570.959 276.224C572.86 274.214 574.862 272.302 576.958 270.496C581.152 267.053 585 263.207 588.446 259.014C594.186 251.588 615.493 283.631 615.493 283.631C615.493 283.631 628.604 298.4 626.972 333.693C625.34 368.985 629.022 416.169 629.022 416.169L624.061 417.552C619.883 418.948 615.437 419.352 611.076 418.732C606.715 418.111 602.558 416.484 598.933 413.978C592.387 409.448 584.097 404.696 577.792 404.269C565.497 403.452 554.426 396.471 554.426 396.471C554.426 396.471 559.758 383.754 551.561 342.715C543.364 301.677 564.255 272.511 564.255 272.511C564.255 272.511 565.905 281.441 570.959 276.224Z" fill="black"/>
<path d="M631.887 412.465L626.972 414.108L624.051 415.083C619.873 416.48 615.428 416.884 611.066 416.263C606.705 415.643 602.548 414.015 598.924 411.509C592.387 406.988 584.088 402.226 577.783 401.799C565.506 400.973 551.598 391.951 551.598 391.951C551.598 391.951 559.795 381.285 551.598 340.246C543.401 299.208 564.301 270.079 564.301 270.079C564.301 270.079 565.951 278.962 571.005 273.736C572.902 271.728 574.901 269.82 576.995 268.018C581.189 264.574 585.037 260.729 588.483 256.535C594.223 249.109 615.53 281.153 615.53 281.153C615.53 281.153 628.641 295.922 627.009 331.214C626.833 334.927 626.759 338.752 626.75 342.623C626.629 375.65 631.887 412.465 631.887 412.465Z" fill="#3F3D56"/>
<path opacity="0.1" d="M585.164 332.04L585.98 350.095C585.98 350.095 542.53 352.555 533.517 343.532C524.505 334.51 558.089 370.071 565.507 372.253C572.47 374.304 590.449 376.114 599.879 376.3C602.573 376.387 605.234 375.688 607.538 374.289C609.843 372.89 611.692 370.851 612.86 368.419C613.959 366.026 614.315 363.358 613.88 360.761C612.239 350.095 613.88 327.111 613.88 327.111L585.164 332.04Z" fill="black"/>
<path d="M585.164 330.397L585.98 348.452C585.98 348.452 542.53 350.912 533.517 341.889C524.504 332.866 491.894 334.862 492.534 341.889C492.942 346.401 514.667 360.761 527.768 361.587C540.87 362.413 558.089 368.428 565.506 370.61C572.47 372.661 590.449 374.471 599.879 374.657C602.573 374.744 605.234 374.045 607.538 372.646C609.843 371.247 611.692 369.207 612.86 366.776C613.959 364.383 614.314 361.715 613.88 359.118C612.239 348.452 613.88 325.468 613.88 325.468L585.164 330.397Z" fill="#F8BDC5"/>
<path opacity="0.1" d="M595.002 277.876C595.002 277.876 576.151 280.336 578.608 308.24C581.065 336.143 584.348 338.603 584.348 338.603C584.348 338.603 612.22 336.143 615.493 335.317C618.766 334.491 617.135 304.137 617.135 304.137C617.135 304.137 616.309 277.059 595.002 277.876Z" fill="black"/>
<path d="M595.002 277.059C595.002 277.059 576.151 279.519 578.608 307.423C581.065 335.326 584.348 337.786 584.348 337.786C584.348 337.786 612.22 335.326 615.493 334.5C618.766 333.674 617.135 303.32 617.135 303.32C617.135 303.32 616.309 276.224 595.002 277.059Z" fill="#3F3D56"/>
<path opacity="0.1" d="M588.029 241.358C586.74 234.86 589.383 232.855 590.078 224.538L547.426 249.156C547.426 249.156 552.312 254.484 557.866 261.325C560.348 261.954 562.9 262.266 565.46 262.253C576.633 262.3 582.744 250.288 588.029 241.358Z" fill="black"/>
<path d="M564.663 261.464C581.413 261.464 594.992 247.87 594.992 231.101C594.992 214.331 581.413 200.737 564.663 200.737C547.912 200.737 534.333 214.331 534.333 231.101C534.333 247.87 547.912 261.464 564.663 261.464Z" fill="#F8BDC5"/>
<path opacity="0.1" d="M572.312 221.883C567.676 224.835 567.611 231.509 570.597 236.132C573.583 240.755 578.729 243.809 583.68 246.686C585.117 247.522 586.703 248.385 588.316 248.199C589.557 247.957 590.706 247.376 591.636 246.519C595.101 243.813 598.407 240.909 601.539 237.821C606.045 233.384 610.375 227.917 609.67 221.725C608.873 214.698 601.937 209.407 599.137 202.752C596.782 197.182 597.487 190.935 595.428 185.244C593.37 179.554 586.156 174.291 580.759 177.271C578.766 178.366 577.56 180.325 575.891 181.801C571.756 185.458 565.089 185.82 559.433 184.149C553.777 182.478 552.099 175.656 544.208 175.637C548.13 177.02 550.782 181.114 550.179 184.845C547.018 186.637 542.864 185.616 539.053 185.551C535.242 185.486 530.708 187.621 531.366 191.055C531.941 193.84 535.956 195.91 535.362 198.695C528.397 202.368 520.804 204.699 512.979 205.564C511.56 205.722 521.5 213.993 522.632 214.541C526.776 216.527 531.755 217.984 536.141 219.507C548.056 223.619 560.258 225.086 572.312 221.883Z" fill="black"/>
<path d="M572.312 221.057C567.676 224.009 567.611 230.683 570.597 235.306C573.583 239.929 578.729 242.983 583.68 245.86C585.117 246.696 586.703 247.559 588.316 247.373C589.557 247.131 590.706 246.55 591.636 245.693C595.101 242.987 598.407 240.083 601.539 236.995C606.045 232.558 610.375 227.091 609.67 220.899C608.873 213.872 601.937 208.581 599.137 201.925C596.782 196.356 597.487 190.109 595.428 184.418C593.37 178.728 586.156 173.465 580.759 176.445C578.766 177.54 577.56 179.499 575.891 180.975C571.756 184.632 565.089 184.994 559.433 183.323C553.777 181.652 552.099 174.829 544.208 174.811C548.13 176.194 550.782 180.288 550.179 184.019C547.018 185.811 542.864 184.79 539.053 184.725C535.242 184.66 530.708 186.795 531.366 190.229C531.941 193.014 535.956 195.084 535.362 197.869C528.397 201.542 520.804 203.873 512.979 204.738C511.56 204.896 521.5 213.167 522.632 213.714C526.776 215.701 531.755 217.158 536.141 218.681C548.056 222.802 560.258 224.241 572.312 221.057Z" fill="#916168"/>
<path opacity="0.1" d="M608.428 519.327C609.744 522.366 610.203 525.708 609.754 528.99C607.297 548.688 571.228 561.814 561.39 564.264C556.207 565.564 550.56 562.529 548.195 558.88C549.716 563.169 556.262 567.393 562.215 565.907C572.053 563.448 608.122 550.313 610.579 530.633C611.116 526.73 610.36 522.759 608.428 519.327Z" fill="white"/>
<path d="M347.923 541.708C347.191 540.055 343.389 536.834 325.058 536.138C312.503 535.665 308.229 529.027 307.07 522.548C311.196 522.01 314.423 521.267 315.48 520.237C315.48 520.237 315.424 519.94 315.331 519.411L315.48 519.299C314.678 514.626 314.259 509.894 314.228 505.152C314.204 501.095 314.633 497.047 315.507 493.085C316.018 490.466 316.233 487.797 316.147 485.13C316.249 469.349 310.714 441.613 310.714 441.613L309.953 418.564C309.877 415.688 309.028 412.886 307.496 410.452C305.964 408.018 303.805 406.043 301.247 404.733C299.426 403.789 297.409 403.287 295.359 403.266C295.359 403.266 266.299 398.68 240.142 396.183C238.288 394.689 231.751 390.66 216.767 392.972L208.144 367.704C208.074 367.398 208.025 367.088 207.995 366.776C208.301 363.564 210.443 358.728 220.43 358.422L222.516 360.278C222.516 360.278 222.887 359.545 223.508 358.422C235.896 358.282 303.379 357.595 306.856 358.422C310.686 359.35 344.233 351.868 345.197 350.94C358.234 338.213 306.856 344.386 306.856 344.386C301.803 345.212 285.475 344.228 268.747 342.864C277.027 330.434 284.816 288.245 284.816 288.245C284.816 288.245 314.487 273.272 305.901 264.853C297.315 256.433 271.399 283.566 271.399 283.566C271.399 283.566 260.857 314.45 256.063 323.807C254.208 327.52 251.807 328.281 249.665 327.854C250.639 327.074 251.269 326.61 251.269 326.61C251.269 326.61 230.184 309.762 228.265 303.218C227.907 302.146 227.435 301.115 226.855 300.145C225.845 294.214 224.074 288.375 219.753 284.485C219.027 283.705 218.226 283 217.36 282.378C216.192 281.543 214.866 280.819 213.763 279.909C214.384 277.05 215.107 274.08 215.858 271.202C231.51 269.345 243.675 256.35 243.675 240.569C243.673 238.189 243.39 235.818 242.831 233.505C245.171 233.659 247.51 233.205 249.622 232.187C251.734 231.169 253.547 229.621 254.885 227.694C258.047 222.979 257.945 216.555 255.293 211.579C254.197 209.559 252.76 207.744 251.047 206.214C248.314 203.459 244.982 201.375 241.311 200.125C238.13 199.02 234.616 198.361 232.094 196.198C230.967 194.723 229.942 193.172 229.025 191.557C227.967 189.971 226.721 188.519 225.316 187.231C220.68 182.451 214.134 179.508 207.467 178.208C199.344 176.621 190.953 177.187 182.691 177.753C179.604 177.967 175.978 178.515 174.587 181.207C173.54 183.23 174.226 185.653 174.087 187.909C173.651 195.084 165.454 199.048 158.324 200.784C151.194 202.52 142.691 204.023 139.251 210.317C136.126 215.998 138.324 222.886 139.325 229.263C140.993 240.46 138.509 251.882 132.343 261.372C129.209 266.171 125.166 270.441 122.691 275.593C119.948 281.336 119.311 287.862 120.892 294.028C121.355 295.829 122.023 297.667 121.689 299.505C121.31 301.02 120.565 302.42 119.519 303.58C115.256 308.851 109.949 313.182 103.934 316.302C97.9182 319.422 91.3232 321.262 84.563 321.709C85.1307 323.593 86.2401 325.269 87.7527 326.526C89.6743 328.429 91.9153 329.978 94.3731 331.103C100.848 334.354 107.657 336.89 114.679 338.668C119.408 339.866 124.35 340.72 129.163 339.903C133.975 339.086 138.667 336.329 140.642 331.966C141.791 329.441 141.958 326.582 142.978 324.011C145.009 318.868 150.044 315.536 153.447 311.127C152.301 322.489 151.759 333.904 151.824 345.324C151.824 348.898 151.824 352.119 151.824 355.108C151.824 368.001 150.897 376.894 142.913 392.999C141.962 394.692 141.545 396.634 141.717 398.569C141.544 399.614 141.645 400.687 142.011 401.681C142.376 402.676 142.994 403.558 143.804 404.241C143.247 407.453 142.977 410.709 142.997 413.969C142.886 425.702 146.845 441.455 167.837 445.446L205.214 443.59C205.214 443.59 257.927 433.295 272.299 440.805C273.485 441.058 274.549 441.71 275.313 442.652C276.077 443.595 276.496 444.771 276.499 445.985C276.454 446.765 276.333 447.54 276.137 448.296C275.737 450.728 275.585 453.195 275.683 455.657C275.618 471.438 279.012 507.25 279.012 507.25V522.437C276.619 526.038 273.671 531.367 274.051 535.293C274.051 535.377 274.051 535.47 274.051 535.553C274.051 535.637 274.051 535.785 274.107 535.897C274.162 536.008 274.107 536.101 274.172 536.203C274.237 536.305 274.227 536.398 274.255 536.5C274.283 536.602 274.329 536.723 274.376 536.825C274.422 536.927 274.441 536.992 274.478 537.075C274.515 537.159 274.598 537.317 274.663 537.428L274.774 537.623C274.886 537.802 275.01 537.972 275.145 538.134C279.939 543.703 303.889 554.48 311.567 554.044C319.717 553.58 347.024 554.972 347.988 542.812C348.11 542.449 348.087 542.053 347.923 541.708V541.708Z" fill="url(#paint1_linear)"/>
<path d="M279.791 518.204C279.791 518.204 268.664 532.128 273.3 537.697C277.936 543.267 301.117 553.914 308.535 553.478C316.416 553.014 342.842 554.406 343.769 542.339C343.769 542.339 345.624 536.769 321.516 535.841C297.408 534.913 304.826 509.849 304.826 509.849L279.791 518.204Z" fill="#3F3D56"/>
<path opacity="0.1" d="M147.197 401.243C147.197 401.243 136.071 439.301 169.451 445.799L205.613 443.943C205.613 443.943 256.61 433.732 270.518 441.158C270.518 441.158 276.082 442.086 274.227 449.512C272.373 456.938 277.009 507.065 277.009 507.065V523.774C277.009 523.774 308.535 523.774 312.244 520.06C312.244 520.06 309.462 505.208 312.244 493.141C315.025 481.073 307.608 443.014 307.608 443.014L306.875 420.105C306.821 417.274 306.014 414.509 304.537 412.094C303.061 409.68 300.968 407.703 298.474 406.367C296.72 405.435 294.767 404.939 292.781 404.919C292.781 404.919 229.73 394.708 207.476 396.564C185.223 398.421 147.197 401.243 147.197 401.243Z" fill="black"/>
<path d="M147.197 400.314C147.197 400.314 136.071 438.373 169.451 444.871L205.613 443.015C205.613 443.015 256.61 432.804 270.518 440.23C270.518 440.23 276.082 441.158 274.227 448.584C272.373 456.01 277.009 506.137 277.009 506.137V522.845C277.009 522.845 308.535 522.845 312.244 519.132C312.244 519.132 309.462 504.28 312.244 492.213C315.025 480.145 307.608 442.086 307.608 442.086L306.875 419.177C306.821 416.346 306.014 413.581 304.537 411.166C303.061 408.751 300.968 406.774 298.474 405.438C296.72 404.507 294.767 404.01 292.781 403.99C292.781 403.99 229.73 393.779 207.476 395.636C185.223 397.492 147.197 400.314 147.197 400.314Z" fill="#8B9CD1"/>
<path d="M242.702 325.125C242.702 325.125 250.119 334.408 254.755 325.125C259.392 315.842 269.591 285.209 269.591 285.209C269.591 285.209 294.626 258.29 302.971 266.644C311.316 274.999 282.572 289.851 282.572 289.851C282.572 289.851 272.373 346.475 263.101 347.403C253.828 348.331 239.92 347.403 239.92 347.403L235.284 337.192L242.702 325.125Z" fill="#F8BDC5"/>
<path opacity="0.05" d="M242.702 325.125C242.702 325.125 250.119 334.408 254.755 325.125C259.392 315.842 269.591 285.209 269.591 285.209C269.591 285.209 294.626 258.29 302.971 266.644C311.316 274.999 282.572 289.851 282.572 289.851C282.572 289.851 272.373 346.475 263.101 347.403C253.828 348.331 239.92 347.403 239.92 347.403L235.284 337.192L242.702 325.125Z" fill="black"/>
<path d="M209.321 278.712C209.321 278.712 226.012 298.205 227.866 304.703C229.72 311.201 250.119 327.91 250.119 327.91C250.119 327.91 235.284 339.049 238.065 344.618C240.847 350.188 218.594 326.053 218.594 326.053L192.631 287.994L209.321 278.712Z" fill="#DE8B5F"/>
<path opacity="0.1" d="M209.321 278.712C209.321 278.712 226.012 298.205 227.866 304.703C229.72 311.201 250.119 327.91 250.119 327.91C250.119 327.91 235.284 339.049 238.065 344.618C240.847 350.188 218.594 326.053 218.594 326.053L192.631 287.994L209.321 278.712Z" fill="black"/>
<path d="M220.448 256.433C220.448 256.433 212.103 283.353 212.103 293.564C212.103 303.775 176.869 290.779 177.796 285.209C178.723 279.64 198.195 259.218 199.122 250.864C200.049 242.509 220.448 256.433 220.448 256.433Z" fill="#F8BDC5"/>
<path opacity="0.1" d="M192.631 274.998C192.631 274.998 160.179 266.644 155.542 313.986C150.906 361.327 159.251 366.897 145.343 395.673C131.434 424.449 239.92 399.386 239.92 399.386C239.92 399.386 234.357 392.888 216.739 395.673L208.394 370.61C208.394 370.61 205.613 359.471 221.375 359.471C237.138 359.471 229.721 326.981 229.721 326.981C229.721 326.981 221.375 299.133 216.739 296.349C212.103 293.564 203.758 276.855 192.631 274.998Z" fill="black"/>
<path d="M192.631 273.142C192.631 273.142 160.179 264.788 155.542 312.129C150.906 359.471 159.251 365.04 145.343 393.816C131.434 422.593 239.92 397.529 239.92 397.529C239.92 397.529 234.357 391.032 216.739 393.816L208.394 368.753C208.394 368.753 205.613 357.614 221.375 357.614C237.138 357.614 229.721 325.125 229.721 325.125C229.721 325.125 221.375 297.277 216.739 294.492C212.103 291.707 203.758 274.998 192.631 273.142Z" fill="#DE8B5F"/>
<path d="M225.084 339.977C225.084 339.977 292.772 347.403 303.899 345.547C303.899 345.547 353.598 339.42 340.988 352.044C340.061 352.973 307.608 360.399 303.899 359.471C300.19 358.542 221.375 359.471 221.375 359.471L220.448 350.188L225.084 339.977Z" fill="#F8BDC5"/>
<path opacity="0.1" d="M173.16 316.77L222.303 361.327C222.303 361.327 231.575 342.762 234.357 342.762C237.138 342.762 200.976 287.994 200.976 287.994C200.976 287.994 191.704 276.855 186.141 282.424C180.577 287.994 163.887 284.281 173.16 316.77Z" fill="black"/>
<path d="M172.232 314.914L221.375 359.471C221.375 359.471 230.648 340.905 233.429 340.905C236.211 340.905 200.049 286.138 200.049 286.138C200.049 286.138 190.777 274.998 185.214 280.568C179.65 286.138 162.96 282.425 172.232 314.914Z" fill="#DE8B5F"/>
<path d="M212.103 273.142C229.002 273.142 242.702 259.427 242.702 242.509C242.702 225.591 229.002 211.876 212.103 211.876C195.204 211.876 181.505 225.591 181.505 242.509C181.505 259.427 195.204 273.142 212.103 273.142Z" fill="#F8BDC5"/>
<path opacity="0.1" d="M238.9 234.814C244.093 236.865 250.453 234.405 253.513 229.736C256.573 225.067 256.48 218.708 253.903 213.752C251.325 208.795 246.559 205.193 241.302 203.318C238.112 202.185 234.561 201.536 232.113 199.196C230.564 197.72 229.646 195.725 228.487 193.924C224.157 187.166 216.433 183.174 208.58 181.606C200.726 180.037 192.604 180.594 184.611 181.151C181.625 181.364 178.12 181.903 176.767 184.576C175.756 186.581 176.414 188.985 176.284 191.223C175.867 198.342 167.939 202.287 161.013 203.995C154.087 205.703 146.057 207.309 142.682 213.584C139.659 219.219 141.819 226.051 142.756 232.382C144.357 243.44 141.964 254.708 136.006 264.156C132.974 268.918 129.07 273.151 126.669 278.266C124.012 283.982 123.397 290.437 124.925 296.553C125.38 298.344 126.019 300.164 125.704 301.983C125.341 303.478 124.622 304.864 123.609 306.021C119.545 311.226 114.436 315.52 108.611 318.626C102.786 321.731 96.3752 323.578 89.7927 324.048C90.8498 328.03 94.6978 330.546 98.3603 332.402C104.61 335.62 111.196 338.136 117.999 339.903C122.57 341.091 127.355 341.936 132.009 341.128C136.664 340.32 141.198 337.582 143.136 333.256C144.249 330.75 144.416 327.919 145.399 325.357C147.615 319.611 153.521 316.139 156.692 310.857C159.724 305.808 160.902 305.213 161.671 299.384C162.441 293.554 164.138 287.261 168.922 283.836C173.929 280.243 180.976 280.93 186.54 283.687C192.103 286.444 195.543 285.367 200.188 289.414C208.338 296.502 217.458 302.385 227.273 306.884C226.345 298.79 224.853 289.758 218.288 284.94C216.433 283.557 214.088 282.499 213.105 280.382C211.538 277.013 214.217 272.901 213.003 269.382C211.788 265.864 207.17 264.565 205.121 261.372C203.378 258.661 203.851 254.976 205.483 252.191C207.115 249.406 209.692 247.345 212.261 245.396C214.542 243.67 216.854 241.983 219.197 240.337C221.314 238.992 223.214 237.333 224.834 235.417C225.761 234.146 226.373 231.361 227.662 230.46C230.907 228.214 235.896 233.635 238.9 234.814Z" fill="black"/>
<path d="M237.973 233.886C243.165 235.937 249.526 233.477 252.586 228.808C255.646 224.139 255.553 217.78 252.975 212.823C250.398 207.866 245.632 204.265 240.374 202.389C237.185 201.257 233.633 200.607 231.186 198.268C229.637 196.792 228.719 194.796 227.56 192.995C223.23 186.238 215.506 182.246 207.653 180.677C199.799 179.109 191.676 179.666 183.684 180.223C180.698 180.436 177.193 180.974 175.839 183.648C174.829 185.653 175.487 188.057 175.357 190.294C174.94 197.414 167.012 201.359 160.086 203.067C153.159 204.775 145.13 206.381 141.755 212.656C138.732 218.291 140.892 225.123 141.829 231.453C143.43 242.512 141.036 253.779 135.078 263.228C132.046 267.99 128.143 272.223 125.741 277.338C123.085 283.053 122.469 289.509 123.998 295.624C124.452 297.416 125.092 299.235 124.777 301.055C124.414 302.55 123.695 303.935 122.681 305.093C118.618 310.298 113.508 314.592 107.684 317.697C101.859 320.802 95.448 322.65 88.8655 323.12C89.9225 327.102 93.7705 329.617 97.4331 331.474C103.683 334.692 110.269 337.208 117.072 338.974C121.643 340.163 126.427 341.007 131.082 340.2C135.737 339.392 140.271 336.654 142.209 332.328C143.322 329.822 143.488 326.99 144.471 324.428C146.687 318.683 152.594 315.211 155.765 309.929C158.797 304.879 159.975 304.285 160.744 298.456C161.514 292.626 163.211 286.333 167.995 282.907C173.002 279.315 180.049 280.002 185.612 282.759C191.176 285.516 194.616 284.439 199.261 288.486C207.41 295.573 216.531 301.456 226.345 305.956C225.418 297.862 223.925 288.83 217.361 284.012C215.506 282.629 213.16 281.571 212.177 279.454C210.61 276.084 213.29 271.972 212.075 268.454C210.861 264.936 206.243 263.636 204.194 260.443C202.451 257.733 202.924 254.047 204.556 251.263C206.188 248.478 208.765 246.417 211.334 244.468C213.615 242.741 215.927 241.055 218.269 239.409C220.386 238.064 222.287 236.405 223.907 234.489C224.834 233.217 225.446 230.432 226.735 229.532C229.98 227.286 234.969 232.707 237.973 233.886Z" fill="#916168"/>
<g opacity="0.1">
<path opacity="0.1" d="M303.769 517.164C303.839 514.693 304.193 512.239 304.826 509.849L304.362 510.007C303.9 512.363 303.701 514.764 303.769 517.164V517.164Z" fill="white"/>
<path opacity="0.1" d="M308.535 551.621C301.117 552.058 277.936 541.41 273.3 535.841C272.691 535.087 272.317 534.17 272.225 533.205C272.089 533.987 272.114 534.79 272.299 535.562C272.484 536.335 272.824 537.061 273.3 537.697C277.936 543.267 301.117 553.914 308.535 553.478C316.416 553.014 342.842 554.406 343.769 542.339C343.839 542.005 343.793 541.659 343.64 541.355C341.516 552.475 316.221 551.166 308.535 551.621Z" fill="white"/>
</g>
<path d="M346.087 274.534H345.16V312.593H346.087V274.534Z" fill="#F8D66D" stroke="#FFAB50" stroke-width="0.25" stroke-miterlimit="10"/>
<path d="M347.015 274.534H346.088V312.593H347.015V274.534Z" fill="#F8D66D" stroke="#FFAB50" stroke-width="0.25" stroke-miterlimit="10"/>
<path d="M347.942 274.534H347.015V312.593H347.942V274.534Z" fill="#F8D66D" stroke="#FFAB50" stroke-width="0.25" stroke-miterlimit="10"/>
<path d="M348.869 274.534H347.942V312.593H348.869V274.534Z" fill="#F8D66D" stroke="#FFAB50" stroke-width="0.25" stroke-miterlimit="10"/>
<path d="M349.796 274.534H348.869V312.593H349.796V274.534Z" fill="#F8D66D" stroke="#FFAB50" stroke-width="0.25" stroke-miterlimit="10"/>
<path d="M350.724 274.534H349.796V312.593H350.724V274.534Z" fill="#F8D66D" stroke="#FFAB50" stroke-width="0.25" stroke-miterlimit="10"/>
<path d="M351.651 274.534H350.724V312.593H351.651V274.534Z" fill="#F8D66D" stroke="#FFAB50" stroke-width="0.25" stroke-miterlimit="10"/>
<defs>
<linearGradient id="paint0_linear" x1="545.108" y1="568.794" x2="545.108" y2="172.425" gradientUnits="userSpaceOnUse">
<stop stop-color="#808080" stop-opacity="0.25"/>
<stop offset="0.54" stop-color="#808080" stop-opacity="0.12"/>
<stop offset="1" stop-color="#808080" stop-opacity="0.1"/>
</linearGradient>
<linearGradient id="paint1_linear" x1="100590" y1="270848" x2="100590" y2="117833" gradientUnits="userSpaceOnUse">
<stop stop-color="#808080" stop-opacity="0.25"/>
<stop offset="0.54" stop-color="#808080" stop-opacity="0.12"/>
<stop offset="1" stop-color="#808080" stop-opacity="0.1"/>
</linearGradient>
</defs>
</svg>
