<svg width="719" height="560" viewBox="0 0 719 560" fill="none" xmlns="http://www.w3.org/2000/svg">
<g clip-path="url(#clip0)">
<path d="M321.601 127.337C291.801 127.36 262.207 122.396 234.048 112.652C196.297 99.6098 165.371 81.621 142.129 59.1848C98.1635 16.7442 62.1186 10.3482 39.6272 12.4543C15.2804 14.7351 1.10877 27.1924 0.968535 27.318L0 26.2392C0.143062 26.1107 14.6069 13.3707 39.3977 11.0202C53.9356 9.64269 69.1385 12.0428 84.5853 18.1561C103.848 25.7795 123.548 39.2329 143.137 58.1424C166.226 80.4311 196.972 98.3098 234.522 111.282C303.454 135.095 381.144 129.33 447.671 95.4629C469.697 84.249 491.467 76.5947 512.376 72.7128C538.741 67.8164 563.745 68.9529 586.698 76.0884C637.138 91.7681 671.591 90.9366 691.611 87.4796C713.212 83.749 723.013 76.283 723.109 76.208L724 77.352C723.594 77.6672 713.813 85.1159 691.858 88.9077C671.68 92.393 636.98 93.2372 586.268 77.4719C534.92 61.5117 482.914 79.1473 448.329 96.7537C415.448 113.582 379.543 123.703 342.707 126.526C335.646 127.066 328.611 127.336 321.601 127.337Z" fill="#3F3D56"/>
<path d="M318.673 145.321C326.791 145.321 333.372 138.745 333.372 130.634C333.372 122.522 326.791 115.946 318.673 115.946C310.555 115.946 303.974 122.522 303.974 130.634C303.974 138.745 310.555 145.321 318.673 145.321Z" fill="#F8D66D"/>
<path d="M546.4 86.6231C554.518 86.6231 561.099 80.0474 561.099 71.9358C561.099 63.8243 554.518 57.2485 546.4 57.2485C538.282 57.2485 531.701 63.8243 531.701 71.9358C531.701 80.0474 538.282 86.6231 546.4 86.6231Z" fill="#F8D66D"/>
<path d="M72.8143 29.3745C80.9324 29.3745 87.5134 22.7988 87.5134 14.6873C87.5134 6.57571 80.9324 0 72.8143 0C64.6962 0 58.1152 6.57571 58.1152 14.6873C58.1152 22.7988 64.6962 29.3745 72.8143 29.3745Z" fill="#F8D66D"/>
<path d="M424.083 351.086V492.995H446.414V363.581H535.736V492.995H558.067V209.178H535.736C528.336 209.178 516.978 247.685 516.978 286.38C516.978 315.545 520.387 340.541 525.235 351.086H424.083ZM535.736 351.086H535.519C535.592 350.928 535.664 350.76 535.736 350.595V351.086Z" fill="#3F3D56"/>
<path d="M506.835 138.938H506.834C488.505 138.938 473.646 155.416 473.646 175.741V201.565H481.594L486.196 191.997L485.045 201.565H536.136L540.32 192.867L539.274 201.565H545.026V181.289C545.026 157.899 527.927 138.938 506.835 138.938Z" fill="#2F2E41"/>
<path d="M468.806 307.659L448.429 316.312L377.616 373.833C375.012 377.03 373.416 380.928 373.031 385.032C372.521 391.649 351.125 426.264 358.766 430.845C366.408 435.426 393.918 449.17 395.446 440.008C396.975 430.845 405.126 391.649 405.126 391.649L473.391 330.565L468.806 307.659Z" fill="#2F2E41"/>
<path d="M388.823 432.372L380.162 457.824C380.162 457.824 389.332 467.495 384.747 475.64V503.637H377.615L375.577 488.875C375.577 488.875 367.454 503.45 363.351 503.637C354.749 504.028 337.716 507.085 337.207 502.504C336.697 497.922 350.105 493.456 350.105 493.456L364.37 454.261L370.483 430.336L388.823 432.372Z" fill="#2F2E41"/>
<path d="M521.788 301.041C521.788 301.041 526.373 345.836 513.127 353.981C499.882 362.125 441.296 388.086 441.296 388.086C441.296 388.086 466.259 411.502 461.164 417.101C456.07 422.7 433.145 437.971 430.088 434.917C427.031 431.863 392.899 395.213 396.974 383.505C401.05 371.797 457.598 333.619 457.598 333.619L464.221 309.695L466.259 290.351L487.655 276.607L521.788 301.041Z" fill="#2F2E41"/>
<path d="M498.448 196.747C510.177 196.747 519.686 187.246 519.686 175.526C519.686 163.806 510.177 154.305 498.448 154.305C486.718 154.305 477.21 163.806 477.21 175.526C477.21 187.246 486.718 196.747 498.448 196.747Z" fill="#FFB9B9"/>
<path d="M514.91 184.218C514.91 184.218 513.891 203.561 529.684 209.67C545.477 215.778 490.457 255.483 490.457 255.483V211.197C490.457 211.197 497.589 203.561 490.457 191.853L514.91 184.218Z" fill="#FFB9B9"/>
<path d="M548.789 275.081L544.713 294.933L532.486 363.144C532.486 363.144 542.675 392.159 528.92 391.65C515.165 391.141 521.788 360.089 521.788 360.089L528.92 303.587V281.698L548.789 275.081Z" fill="#FFB9B9"/>
<path d="M461.164 265.409L456.579 283.225L435.692 333.619C435.692 333.619 421.428 357.544 433.145 357.035C444.862 356.526 444.862 333.619 444.862 333.619L468.806 292.897V269.99L461.164 265.409Z" fill="#FFB9B9"/>
<path d="M457.598 414.047L474.41 429.827C474.41 429.827 486.127 427.282 490.712 441.026C495.297 454.77 498.354 463.423 498.354 463.423L492.24 466.987L484.599 456.297C484.599 456.297 480.014 475.64 475.429 477.167C470.844 478.694 447.919 488.875 449.956 477.167L461.164 460.878C461.164 460.878 462.693 442.553 458.108 441.026C453.523 439.499 441.296 424.228 441.296 424.228L457.598 414.047Z" fill="#2F2E41"/>
<path d="M522.596 316.821C522.596 316.821 474.708 299.514 471.651 301.041C469.376 302.046 466.953 302.674 464.476 302.902L464.519 295.951C464.519 295.951 480.312 290.352 488.972 293.915C497.633 297.478 524.124 313.258 524.124 313.258L522.596 316.821Z" fill="#3F3D56"/>
<path d="M493.514 245.302C493.514 245.302 507.269 229.522 511.345 219.85C513.923 213.987 518.656 209.337 524.567 206.859C524.567 206.859 555.157 213.742 554.648 225.959C554.138 238.176 535.289 257.01 535.289 257.01C535.289 257.01 537.836 324.712 524.081 323.694C521.114 320.156 519.02 315.971 517.968 311.477C516.439 304.35 469.061 296.715 469.061 296.715C469.061 296.715 464.985 303.841 464.476 300.787C463.967 297.733 468.552 222.905 468.552 222.905L492.845 206.859L493.514 245.302Z" fill="#BD6139"/>
<path d="M550.724 221.041L551.065 221.232C552.153 221.843 553.06 222.732 553.691 223.809C554.321 224.885 554.654 226.11 554.654 227.358L554.648 265.135C554.652 266.162 554.88 267.175 555.315 268.105C555.75 269.036 556.382 269.86 557.168 270.522C559.131 272.19 560.95 274.593 557.195 275.844C551.082 277.88 527.138 288.061 526.628 284.498C526.119 280.934 525.1 276.862 526.628 276.862C527.825 276.862 534.954 240.36 540.682 224.753C541.032 223.798 541.585 222.93 542.304 222.209C543.023 221.488 543.89 220.932 544.844 220.579C545.799 220.226 546.82 220.084 547.835 220.164C548.85 220.244 549.836 220.543 550.724 221.041Z" fill="#BD6139"/>
<path d="M475.429 221.123L468.296 223.159L460.145 258.282C460.145 258.282 450.466 260.318 453.523 263.881C456.579 267.445 469.315 276.607 469.315 276.607L475.429 221.123Z" fill="#BD6139"/>
<path d="M516.27 149.076C514.673 146.933 512.603 145.187 510.221 143.972C507.84 142.758 505.21 142.108 502.536 142.073H501.884C489.321 142.073 479.137 153.432 479.137 167.445V167.445H483.346L484.026 162.274L485.023 167.445H509.99L512.082 163.07L511.559 167.445H516.471C518.763 178.818 515.469 190.192 506.591 201.565H514.958L519.141 192.816L518.096 201.565H534.045L537.183 181.443C537.183 166.373 528.42 153.594 516.27 149.076Z" fill="#2F2E41"/>
<path d="M89.5933 383.874C94.9528 372.215 98.722 344.578 98.722 312.33C98.722 269.547 86.1638 226.971 77.9822 226.971H53.292V540.778H77.9822V397.69H176.743V540.778H201.433V383.874H89.5933ZM77.9822 383.331C78.0621 383.514 78.1417 383.699 78.2223 383.874H77.9822V383.331Z" fill="#3F3D56"/>
<path d="M192.504 326.626C192.504 326.626 222.239 338.945 212.811 346.192C203.382 353.438 183.801 337.496 184.526 335.322C185.251 333.148 181.625 328.075 181.625 328.075L192.504 326.626Z" fill="#9F616A"/>
<path d="M166.395 229.521L175.823 238.217L177.999 263.58L185.251 290.393C185.251 290.393 197.58 315.756 195.405 320.828C193.229 325.901 197.58 327.35 197.58 327.35L180.9 333.872C180.9 333.872 162.769 313.582 162.769 309.234C162.769 304.886 166.395 229.521 166.395 229.521Z" fill="#DE8B5F"/>
<path opacity="0.1" d="M166.395 229.521L175.823 238.217L177.999 263.58L185.251 290.393C185.251 290.393 197.58 315.756 195.405 320.828C193.229 325.901 197.58 327.35 197.58 327.35L180.9 333.872C180.9 333.872 162.769 313.582 162.769 309.234C162.769 304.886 166.395 229.521 166.395 229.521Z" fill="black"/>
<path d="M255.6 490.4C255.6 490.4 251.974 507.067 251.249 508.516C250.524 509.966 265.029 515.038 265.029 515.038L282.435 502.719C282.435 502.719 275.182 486.777 275.182 483.878L255.6 490.4Z" fill="#DE8B5F"/>
<path d="M160.593 328.075L165.67 333.872C165.67 333.872 270.831 346.916 273.007 367.207C275.182 387.498 290.412 483.153 281.71 486.052C273.007 488.95 250.524 499.82 250.524 494.023C250.524 488.226 236.019 408.513 238.92 394.02C238.92 394.02 113.453 378.077 110.552 359.96C107.651 341.844 113.453 333.872 113.453 333.872L160.593 328.075Z" fill="#2F2E41"/>
<path opacity="0.1" d="M160.593 328.075L165.67 333.872C165.67 333.872 270.831 346.916 273.007 367.207C275.182 387.498 290.412 483.153 281.71 486.052C273.007 488.95 250.524 499.82 250.524 494.023C250.524 488.226 236.019 408.513 238.92 394.02C238.92 394.02 113.453 378.077 110.552 359.96C107.651 341.844 113.453 333.872 113.453 333.872L160.593 328.075Z" fill="black"/>
<path d="M254.151 507.067C254.151 507.067 251.25 500.545 249.799 502.719C248.349 504.893 243.272 530.256 248.349 530.256C253.425 530.256 299.841 541.851 306.368 540.402C312.896 538.952 325.225 541.126 323.774 533.88C322.324 526.633 315.071 525.908 315.071 525.908C315.071 525.908 288.237 509.966 286.787 501.994C285.336 494.023 277.358 498.371 277.358 498.371V503.444C277.358 503.444 262.128 515.038 254.151 507.067Z" fill="#2F2E41"/>
<path d="M116.354 174.447C116.354 174.447 121.43 199.086 110.552 201.259C99.673 203.433 124.331 217.927 124.331 217.927L140.287 226.623L151.891 215.028C151.891 215.028 141.375 193.651 149.352 177.708C157.33 161.765 116.354 174.447 116.354 174.447Z" fill="#9F616A"/>
<path d="M151.891 215.028L140.287 226.623L124.331 217.927C124.331 217.927 99.673 203.433 110.552 201.259C117.55 199.861 117.942 189.165 117.34 181.715C117.143 179.276 116.814 176.85 116.354 174.447C116.354 174.447 157.33 161.765 149.352 177.708C148.14 180.17 147.299 182.797 146.858 185.505C144.413 199.832 151.891 215.028 151.891 215.028Z" fill="#9F616A"/>
<path d="M192.504 511.415V528.082H220.063L222.239 521.56L219.338 504.168L192.504 511.415Z" fill="#DE8B5F"/>
<path d="M78.6406 342.569C78.6406 342.569 78.6406 385.324 96.0465 386.773C113.452 388.222 175.824 396.194 175.824 396.194C175.824 396.194 179.45 467.21 185.977 490.4C192.504 513.589 186.702 515.038 192.504 516.488C198.306 517.937 222.965 512.864 222.239 507.792C221.514 502.719 218.613 374.454 218.613 374.454C218.613 374.454 225.14 346.916 138.111 333.873L78.6406 342.569Z" fill="#2F2E41"/>
<path d="M194.681 523.01C194.681 523.01 190.329 513.589 189.604 516.488C188.879 519.387 180.176 544.75 188.879 546.924C197.582 549.098 225.141 560.692 243.272 559.968C261.403 559.243 263.579 558.518 263.579 558.518C263.579 558.518 268.656 551.272 262.129 546.924C255.601 542.576 228.767 517.213 227.317 514.314C225.866 511.415 214.988 509.241 214.988 514.314C214.988 519.387 199.757 529.532 194.681 523.01Z" fill="#2F2E41"/>
<path opacity="0.1" d="M149.352 177.708C148.14 180.17 147.299 182.797 146.857 185.505C143.246 187.687 140.831 187.129 136.298 187.129C129.575 187.129 126.862 178.541 122.518 174.085C122.177 169.947 116.354 174.447 116.354 174.447C116.354 174.447 157.33 161.765 149.352 177.708Z" fill="black"/>
<path d="M134.485 186.766C147.703 186.766 158.418 176.06 158.418 162.852C158.418 149.645 147.703 138.938 134.485 138.938C121.267 138.938 110.552 149.645 110.552 162.852C110.552 176.06 121.267 186.766 134.485 186.766Z" fill="#9F616A"/>
<path d="M175.824 238.217C175.824 238.217 172.197 264.305 170.022 273.725C167.846 283.146 164.945 326.626 163.494 332.423C162.044 338.22 153.341 339.67 135.935 337.496C134.842 337.358 133.743 337.276 132.642 337.249C121.923 336.909 109.659 340.916 98.3093 344.061C91.7821 345.873 85.5522 347.395 80.0911 347.641C71.8233 348.018 69.401 338.858 69.6839 328.945C69.9522 319.72 72.5703 309.828 75.0144 306.335C79.4167 300.045 75.0869 243.572 76.7116 224.948V224.941C76.958 222.1 77.3424 220.144 77.9154 219.376C82.2669 213.578 110.551 199.085 113.721 199.672C116.883 200.259 143.913 217.202 143.913 217.202C150.44 217.202 150.23 210.129 150.23 210.129C150.23 210.129 154.791 218.651 163.494 220.825C172.197 222.999 175.824 238.217 175.824 238.217Z" fill="#DE8B5F"/>
<path d="M127.343 332.164C127.343 332.164 174.06 333.65 165.876 339.196C157.692 344.742 121.43 349.815 120.705 342.568C119.979 335.322 127.343 332.164 127.343 332.164Z" fill="#9F616A"/>
<path opacity="0.1" d="M132.642 337.25C132.794 340.032 125.303 346.301 122.88 350.54C121.539 352.888 111.153 349.794 98.3091 344.062C88.4527 339.641 78.8912 334.592 69.6836 328.945C69.9519 319.72 72.5701 309.828 75.0142 306.336C79.4164 300.046 75.0867 243.573 76.7113 224.949V224.941C77.0986 224.745 77.5012 224.58 77.9151 224.449H86.6181C116.353 238.217 82.2666 297.64 82.2666 297.64C82.2666 297.64 127.232 334.597 131.583 336.047C131.869 336.101 132.128 336.249 132.32 336.466C132.511 336.684 132.625 336.96 132.642 337.25Z" fill="black"/>
<path d="M86.6184 220.101H77.9154C77.9154 220.101 69.9377 222.275 63.4105 236.768C56.8833 251.261 32.9502 296.19 53.9823 313.582C75.0144 330.974 119.98 351.265 122.881 346.192C125.782 341.119 135.935 333.148 131.584 331.699C127.232 330.249 82.2669 293.292 82.2669 293.292C82.2669 293.292 116.353 233.869 86.6184 220.101Z" fill="#DE8B5F"/>
<path d="M130.802 151.725C130.802 151.725 131.853 137.197 144.81 143.12C157.767 149.044 156.921 132.717 153.006 129.831C149.09 126.946 149.214 126.232 134.893 128.163C120.573 130.093 92.7699 133.364 101.76 162.135C110.75 190.907 118.892 183.505 118.892 183.505C118.892 183.505 111.746 157.615 118.986 162.547L126.227 167.48L130.047 166.671L130.802 151.725Z" fill="#2F2E41"/>
<path d="M665.438 360.916C665.438 347.835 568.162 337.232 448.165 337.232C328.168 337.232 230.891 347.835 230.891 360.916C230.891 365.985 245.511 370.682 270.395 374.534V536.569H282.246V376.205C322.102 381.339 381.635 384.599 448.165 384.599C515.244 384.599 575.215 381.285 615.07 376.078V536.569H626.922V374.379C651.202 370.556 665.438 365.917 665.438 360.916Z" fill="#3F3D56"/>
<path d="M475.385 361.41C499.818 361.41 519.625 356.543 519.625 350.54C519.625 344.537 499.818 339.67 475.385 339.67C450.951 339.67 431.145 344.537 431.145 350.54C431.145 356.543 450.951 361.41 475.385 361.41Z" fill="#F2F2F2"/>
<path d="M475.384 359.45C495.411 359.45 511.647 355.461 511.647 350.54C511.647 345.619 495.411 341.63 475.384 341.63C455.357 341.63 439.122 345.619 439.122 350.54C439.122 355.461 455.357 359.45 475.384 359.45Z" fill="#BFBFBF"/>
<path d="M310.754 370.106C335.187 370.106 354.994 365.239 354.994 359.236C354.994 353.232 335.187 348.366 310.754 348.366C286.321 348.366 266.514 353.232 266.514 359.236C266.514 365.239 286.321 370.106 310.754 370.106Z" fill="#F2F2F2"/>
<path d="M310.754 368.146C330.781 368.146 347.016 364.157 347.016 359.236C347.016 354.315 330.781 350.326 310.754 350.326C290.726 350.326 274.491 354.315 274.491 359.236C274.491 364.157 290.726 368.146 310.754 368.146Z" fill="#BFBFBF"/>
<path d="M474.355 349.772C486.003 349.772 495.446 348.283 495.446 346.445C495.446 344.607 486.003 343.118 474.355 343.118C462.707 343.118 453.265 344.607 453.265 346.445C453.265 348.283 462.707 349.772 474.355 349.772Z" fill="#9F616A"/>
<path d="M463.116 345.197C466.794 345.197 469.776 343.583 469.776 341.592C469.776 339.602 466.794 337.988 463.116 337.988C459.438 337.988 456.456 339.602 456.456 341.592C456.456 343.583 459.438 345.197 463.116 345.197Z" fill="#AFD4E3"/>
<path d="M460.619 345.197C464.297 345.197 467.279 343.583 467.279 341.592C467.279 339.602 464.297 337.988 460.619 337.988C456.941 337.988 453.959 339.602 453.959 341.592C453.959 343.583 456.941 345.197 460.619 345.197Z" fill="#AFD4E3"/>
<path d="M489.757 346.029C493.435 346.029 496.417 344.415 496.417 342.424C496.417 340.434 493.435 338.82 489.757 338.82C486.079 338.82 483.097 340.434 483.097 342.424C483.097 344.415 486.079 346.029 489.757 346.029Z" fill="#AFD4E3"/>
<path d="M474.494 345.197C478.172 345.197 481.154 343.583 481.154 341.592C481.154 339.602 478.172 337.988 474.494 337.988C470.816 337.988 467.834 339.602 467.834 341.592C467.834 343.583 470.816 345.197 474.494 345.197Z" fill="#AFD4E3"/>
<path d="M485.872 345.197C489.55 345.197 492.532 343.583 492.532 341.592C492.532 339.602 489.55 337.988 485.872 337.988C482.194 337.988 479.212 339.602 479.212 341.592C479.212 343.583 482.194 345.197 485.872 345.197Z" fill="#AFD4E3"/>
<path d="M494.475 339.374C482.438 343.456 468.933 343.456 453.959 339.374V338.813C453.956 334.569 455.586 330.488 458.512 327.412C461.437 324.336 465.433 322.501 469.675 322.287C473.244 322.108 476.821 322.112 480.39 322.301C484.205 322.523 487.791 324.196 490.411 326.977C493.03 329.759 494.484 333.436 494.475 337.256V339.374Z" fill="#3F3D56"/>
<path d="M488.565 354.655C479.67 355.553 470.706 355.553 461.811 354.655C459.701 354.448 457.743 353.465 456.318 351.897C454.892 350.328 454.101 348.286 454.098 346.168H496.278C496.275 348.286 495.484 350.328 494.059 351.897C492.633 353.465 490.675 354.448 488.565 354.655Z" fill="#3F3D56"/>
<path d="M468.667 327.451C467.699 327.854 466.662 328.061 465.614 328.061C464.566 328.061 463.529 327.854 462.562 327.451C463.529 327.048 464.566 326.841 465.614 326.841C466.662 326.841 467.699 327.048 468.667 327.451Z" fill="#BFBFBF"/>
<path d="M474.771 329.947C473.804 330.35 472.767 330.557 471.719 330.557C470.671 330.557 469.633 330.35 468.666 329.947C469.633 329.544 470.671 329.337 471.719 329.337C472.767 329.337 473.804 329.544 474.771 329.947Z" fill="#BFBFBF"/>
<path d="M475.327 325.51C474.36 325.913 473.322 326.12 472.274 326.12C471.226 326.12 470.189 325.913 469.222 325.51C470.189 325.108 471.226 324.9 472.274 324.9C473.322 324.9 474.36 325.108 475.327 325.51Z" fill="#BFBFBF"/>
<path d="M486.704 325.51C485.737 325.913 484.699 326.12 483.651 326.12C482.603 326.12 481.566 325.913 480.599 325.51C481.566 325.108 482.603 324.9 483.651 324.9C484.699 324.9 485.737 325.108 486.704 325.51Z" fill="#BFBFBF"/>
<path d="M483.652 328.006C482.685 328.408 481.647 328.616 480.599 328.616C479.552 328.616 478.514 328.408 477.547 328.006C478.514 327.603 479.552 327.396 480.599 327.396C481.647 327.396 482.685 327.603 483.652 328.006Z" fill="#BFBFBF"/>
<path d="M310.45 358.468C322.098 358.468 331.54 356.979 331.54 355.141C331.54 353.303 322.098 351.813 310.45 351.813C298.802 351.813 289.359 353.303 289.359 355.141C289.359 356.979 298.802 358.468 310.45 358.468Z" fill="#9F616A"/>
<path d="M299.211 353.893C302.889 353.893 305.871 352.279 305.871 350.288C305.871 348.297 302.889 346.684 299.211 346.684C295.533 346.684 292.551 348.297 292.551 350.288C292.551 352.279 295.533 353.893 299.211 353.893Z" fill="#AFD4E3"/>
<path d="M296.713 353.893C300.391 353.893 303.373 352.279 303.373 350.288C303.373 348.297 300.391 346.684 296.713 346.684C293.035 346.684 290.053 348.297 290.053 350.288C290.053 352.279 293.035 353.893 296.713 353.893Z" fill="#AFD4E3"/>
<path d="M325.852 354.725C329.53 354.725 332.512 353.111 332.512 351.12C332.512 349.129 329.53 347.516 325.852 347.516C322.173 347.516 319.191 349.129 319.191 351.12C319.191 353.111 322.173 354.725 325.852 354.725Z" fill="#AFD4E3"/>
<path d="M310.589 353.893C314.267 353.893 317.249 352.279 317.249 350.288C317.249 348.297 314.267 346.684 310.589 346.684C306.911 346.684 303.929 348.297 303.929 350.288C303.929 352.279 306.911 353.893 310.589 353.893Z" fill="#AFD4E3"/>
<path d="M321.966 353.893C325.644 353.893 328.626 352.279 328.626 350.288C328.626 348.297 325.644 346.684 321.966 346.684C318.287 346.684 315.306 348.297 315.306 350.288C315.306 352.279 318.287 353.893 321.966 353.893Z" fill="#AFD4E3"/>
<path d="M330.569 348.071C318.532 352.152 305.026 352.152 290.053 348.071V347.509C290.05 343.266 291.68 339.184 294.605 336.108C297.531 333.032 301.527 331.197 305.768 330.983C309.338 330.804 312.914 330.808 316.483 330.997C320.299 331.219 323.885 332.893 326.504 335.674C329.124 338.455 330.578 342.133 330.569 345.952V348.071Z" fill="#3F3D56"/>
<path d="M324.659 363.351C315.764 364.248 306.8 364.248 297.905 363.351C295.795 363.144 293.837 362.161 292.411 360.592C290.986 359.024 290.195 356.982 290.191 354.864H332.372C332.369 356.982 331.578 359.024 330.152 360.592C328.727 362.161 326.769 363.144 324.659 363.351Z" fill="#3F3D56"/>
<path d="M304.76 336.147C303.793 336.55 302.756 336.757 301.708 336.757C300.66 336.757 299.623 336.55 298.655 336.147C299.623 335.744 300.66 335.537 301.708 335.537C302.756 335.537 303.793 335.744 304.76 336.147Z" fill="#BFBFBF"/>
<path d="M310.866 338.643C309.899 339.045 308.861 339.253 307.813 339.253C306.765 339.253 305.728 339.045 304.761 338.643C305.728 338.24 306.765 338.033 307.813 338.033C308.861 338.033 309.899 338.24 310.866 338.643Z" fill="#BFBFBF"/>
<path d="M311.421 334.206C310.454 334.609 309.417 334.816 308.369 334.816C307.321 334.816 306.284 334.609 305.316 334.206C306.284 333.804 307.321 333.596 308.369 333.596C309.417 333.596 310.454 333.804 311.421 334.206Z" fill="#BFBFBF"/>
<path d="M322.798 334.206C321.831 334.609 320.794 334.816 319.746 334.816C318.698 334.816 317.661 334.609 316.693 334.206C317.661 333.804 318.698 333.596 319.746 333.596C320.794 333.596 321.831 333.804 322.798 334.206Z" fill="#BFBFBF"/>
<path d="M319.746 336.702C318.779 337.105 317.741 337.312 316.693 337.312C315.645 337.312 314.608 337.105 313.641 336.702C314.608 336.299 315.645 336.092 316.693 336.092C317.741 336.092 318.779 336.299 319.746 336.702Z" fill="#BFBFBF"/>
<path d="M513.443 347.595L513.545 349.839L513.675 352.751C513.675 352.751 500.293 353.506 497.597 356.353C497.535 356.414 497.477 356.48 497.425 356.55L492.065 355.378L492.052 352.739C492.052 352.739 492.126 352.698 492.269 352.621C492.302 352.604 492.343 352.582 492.385 352.56C498.944 349.351 506.14 347.654 513.443 347.595Z" fill="#AFD4E3"/>
<path opacity="0.1" d="M513.444 347.595L513.546 349.839C507.612 350.023 496.382 353.557 496.382 353.557L492.271 352.621C498.858 349.369 506.097 347.651 513.444 347.595Z" fill="black"/>
<path opacity="0.1" d="M492.384 352.56L496.381 353.557L497.597 356.353C497.535 356.414 497.477 356.48 497.425 356.55L492.065 355.378L492.052 352.739C492.052 352.739 492.126 352.698 492.269 352.621C492.302 352.604 492.343 352.582 492.384 352.56Z" fill="white"/>
<path d="M351.714 357.015L351.816 359.26L351.945 362.171C351.945 362.171 338.564 362.927 335.868 365.773C335.805 365.834 335.748 365.9 335.696 365.971L330.336 364.798L330.322 362.16C330.322 362.16 330.396 362.119 330.54 362.041C330.573 362.024 330.614 362.002 330.655 361.981C337.214 358.771 344.411 357.075 351.714 357.015Z" fill="#AFD4E3"/>
<path opacity="0.1" d="M351.714 357.015L351.816 359.26C345.882 359.443 334.651 362.978 334.651 362.978L330.54 362.041C337.128 358.79 344.367 357.071 351.714 357.015Z" fill="black"/>
<path opacity="0.1" d="M330.655 361.981L334.651 362.978L335.868 365.773C335.805 365.835 335.748 365.901 335.696 365.971L330.336 364.799L330.322 362.16C330.322 362.16 330.396 362.119 330.54 362.042C330.573 362.025 330.614 362.003 330.655 361.981Z" fill="white"/>
<path d="M594.039 280.36C592.897 279.221 591.558 278.297 590.088 277.633V249.475C590.088 249.145 589.956 248.829 589.723 248.595C589.489 248.362 589.172 248.23 588.842 248.23H581.866C581.535 248.23 581.218 248.362 580.985 248.595C580.751 248.829 580.62 249.145 580.62 249.475V277.093C578.098 277.929 575.904 279.537 574.348 281.689C572.793 283.841 571.955 286.428 571.954 289.083V349.485C571.954 350.212 572.097 350.932 572.376 351.603C572.654 352.275 573.062 352.885 573.577 353.399C574.091 353.913 574.702 354.321 575.374 354.599C576.046 354.877 576.766 355.02 577.494 355.02H592.437C593.899 355.02 595.302 354.44 596.336 353.407C597.37 352.373 597.951 350.972 597.951 349.511V289.795C597.953 288.042 597.608 286.307 596.937 284.688C596.266 283.068 595.281 281.598 594.039 280.36Z" fill="#3F3D56"/>
<path d="M597.951 297.938H571.954V332.251H597.951V297.938Z" fill="#AFD4E3"/>
<path d="M590.65 250.155H590.088V249.475C590.088 249.145 589.957 248.829 589.723 248.595C589.49 248.362 589.173 248.23 588.842 248.23H581.866C581.536 248.23 581.219 248.362 580.985 248.595C580.752 248.829 580.62 249.145 580.62 249.475V250.155H580.059V253.041H580.62V267.793H590.088V253.041H590.65V250.155Z" fill="#AFD4E3"/>
<path d="M385.886 304.801C385.197 303.333 384.654 302.296 384.464 301.938C372.795 304.816 365.009 302.384 363.782 301.954C363.181 303.087 359.433 310.329 357.918 317.272C356.549 323.535 357.344 327.734 360.279 329.751L360.366 329.813L360.385 329.826C363.625 331.959 366.716 333.849 369.571 335.441C369.956 335.655 370.318 335.854 370.659 336.037L370.695 336.057L370.721 336.09C371.113 336.583 371.478 337.097 371.814 337.63C372.445 338.512 372.828 339.546 372.922 340.625V371.731L372.726 371.735C365.282 371.887 360.675 373.148 360.675 374.229C360.675 375.415 366.2 376.736 374.127 376.736C382.055 376.736 387.579 375.415 387.579 374.229C387.579 373.164 383.05 371.91 375.733 371.741L375.535 371.736L375.719 342.963C375.724 341.015 376.177 339.094 377.044 337.349C377.192 337.056 377.35 336.771 377.516 336.502C377.649 336.286 377.789 336.075 377.934 335.876L377.96 335.839L378 335.817C378.367 335.617 378.756 335.4 379.168 335.167L379.216 335.141C381.918 333.616 384.829 331.828 387.87 329.825C390.585 328.037 391.53 324.423 390.68 319.083C389.869 313.991 387.625 308.506 385.886 304.801Z" fill="#BFBFBF"/>
<path d="M386.582 329.173C383.394 331.273 380.763 332.848 378.75 333.982H378.748C375.812 333.782 372.863 333.865 369.942 334.229C367.879 333.079 365.095 331.428 361.671 329.173C361.639 329.152 361.606 329.13 361.574 329.107V329.105C358.433 326.946 358.355 322.373 359.377 317.698C361.976 317.41 366.121 317.536 371.69 319.524C378.284 321.877 385.187 320.546 389.187 319.336C389.844 323.461 389.444 327.289 386.582 329.173Z" fill="#AFD4E3"/>
<path d="M367.628 316.006C368.127 316.006 368.531 315.602 368.531 315.104C368.531 314.606 368.127 314.202 367.628 314.202C367.13 314.202 366.726 314.606 366.726 315.104C366.726 315.602 367.13 316.006 367.628 316.006Z" fill="#AFD4E3"/>
<path d="M365.102 324.303C365.6 324.303 366.004 323.899 366.004 323.401C366.004 322.903 365.6 322.5 365.102 322.5C364.603 322.5 364.199 322.903 364.199 323.401C364.199 323.899 364.603 324.303 365.102 324.303Z" fill="white"/>
<path d="M369.794 317.81C370.094 317.81 370.336 317.568 370.336 317.269C370.336 316.97 370.094 316.728 369.794 316.728C369.495 316.728 369.253 316.97 369.253 317.269C369.253 317.568 369.495 317.81 369.794 317.81Z" fill="#AFD4E3"/>
<path d="M371.96 328.091C372.26 328.091 372.502 327.849 372.502 327.55C372.502 327.251 372.26 327.009 371.96 327.009C371.661 327.009 371.419 327.251 371.419 327.55C371.419 327.849 371.661 328.091 371.96 328.091Z" fill="white"/>
<path d="M368.169 328.632C368.469 328.632 368.711 328.39 368.711 328.091C368.711 327.792 368.469 327.55 368.169 327.55C367.87 327.55 367.628 327.792 367.628 328.091C367.628 328.39 367.87 328.632 368.169 328.632Z" fill="white"/>
<path d="M379.181 310.595C379.48 310.595 379.723 310.353 379.723 310.054C379.723 309.755 379.48 309.513 379.181 309.513C378.882 309.513 378.64 309.755 378.64 310.054C378.64 310.353 378.882 310.595 379.181 310.595Z" fill="#AFD4E3"/>
<path d="M428.224 275.476C427.536 274.009 426.993 272.971 426.803 272.614C415.134 275.492 407.348 273.06 406.12 272.63C405.52 273.763 401.772 281.005 400.257 287.948C398.888 294.211 399.682 298.409 402.618 300.427L402.705 300.489L402.724 300.502C405.964 302.635 409.055 304.524 411.91 306.117C412.294 306.331 412.657 306.53 412.998 306.713L413.034 306.733L413.06 306.766C413.452 307.259 413.817 307.773 414.153 308.306C414.784 309.188 415.166 310.222 415.261 311.301V342.407L415.065 342.411C407.621 342.563 403.014 343.823 403.014 344.904C403.014 346.09 408.539 347.412 416.466 347.412C424.393 347.412 429.918 346.09 429.918 344.904C429.918 343.839 425.389 342.586 418.072 342.417L417.874 342.412L418.058 313.639C418.063 311.691 418.516 309.77 419.383 308.025C419.53 307.732 419.689 307.447 419.855 307.178C419.987 306.962 420.128 306.751 420.273 306.551L420.299 306.515L420.339 306.493C420.706 306.293 421.095 306.076 421.507 305.843L421.555 305.817C424.257 304.292 427.168 302.504 430.209 300.501C432.924 298.713 433.869 295.099 433.019 289.759C432.208 284.667 429.964 279.182 428.224 275.476Z" fill="#BFBFBF"/>
<path d="M428.921 299.849C425.733 301.949 423.101 303.523 421.089 304.658H421.087C418.151 304.458 415.202 304.54 412.281 304.905C410.218 303.754 407.434 302.104 404.01 299.849C403.977 299.828 403.945 299.806 403.912 299.783V299.781C400.771 297.622 400.694 293.049 401.716 288.374C404.315 288.085 408.46 288.212 414.029 290.199C420.623 292.553 427.526 291.222 431.526 290.012C432.183 294.137 431.783 297.964 428.921 299.849Z" fill="#AFD4E3"/>
<path d="M409.967 286.682C410.466 286.682 410.87 286.278 410.87 285.78C410.87 285.282 410.466 284.878 409.967 284.878C409.469 284.878 409.064 285.282 409.064 285.78C409.064 286.278 409.469 286.682 409.967 286.682Z" fill="#AFD4E3"/>
<path d="M407.44 294.979C407.938 294.979 408.342 294.575 408.342 294.077C408.342 293.579 407.938 293.175 407.44 293.175C406.941 293.175 406.537 293.579 406.537 294.077C406.537 294.575 406.941 294.979 407.44 294.979Z" fill="white"/>
<path d="M412.133 288.486C412.432 288.486 412.675 288.243 412.675 287.944C412.675 287.646 412.432 287.403 412.133 287.403C411.834 287.403 411.592 287.646 411.592 287.944C411.592 288.243 411.834 288.486 412.133 288.486Z" fill="#AFD4E3"/>
<path d="M414.299 298.767C414.598 298.767 414.841 298.525 414.841 298.226C414.841 297.927 414.598 297.685 414.299 297.685C414 297.685 413.758 297.927 413.758 298.226C413.758 298.525 414 298.767 414.299 298.767Z" fill="white"/>
<path d="M410.508 299.308C410.807 299.308 411.05 299.066 411.05 298.767C411.05 298.468 410.807 298.226 410.508 298.226C410.209 298.226 409.967 298.468 409.967 298.767C409.967 299.066 410.209 299.308 410.508 299.308Z" fill="white"/>
<path d="M421.52 281.271C421.819 281.271 422.062 281.028 422.062 280.73C422.062 280.431 421.819 280.188 421.52 280.188C421.221 280.188 420.979 280.431 420.979 280.73C420.979 281.028 421.221 281.271 421.52 281.271Z" fill="#AFD4E3"/>
</g>
<defs>
<clipPath id="clip0">
<rect width="724" height="560" fill="white"/>
</clipPath>
</defs>
</svg>
