<svg width="657" height="389" viewBox="0 0 657 389" fill="none" xmlns="http://www.w3.org/2000/svg">
<g clip-path="url(#clip0)">
<path opacity="0.2" d="M96.0131 0.0444861C90.9017 -0.101442 85.6635 0.0444811 80.8692 1.51645C67.8243 5.52629 61.6411 18.6471 63.6514 29.985C65.6618 41.323 73.9313 51.2016 82.5117 60.2301C91.092 69.2586 100.389 78.1856 105.094 88.9779C107.441 94.3645 108.538 100.398 106.154 105.779C102.475 114.071 91.3837 118.703 80.736 119.667C70.0883 120.631 59.3962 118.753 48.7104 118.125C44.2268 117.865 39.6164 117.833 35.3928 119.045C30.757 120.365 26.8949 123.062 23.3436 125.872C9.48698 136.899 -1.60465 151.943 0.190053 167.747C2.2194 185.658 20.3186 199.813 40.1428 207.408C46.7064 209.946 53.6506 211.963 59.4279 215.554C74.648 225.027 78.0661 242.792 76.5505 258.47C75.0348 274.147 69.8727 289.844 72.7454 305.382C76.1256 323.458 91.0856 339.789 111.265 347.416C129.244 354.211 151.744 353.76 167.706 344.174C175.487 339.491 181.372 332.988 186.49 326.263C194.089 316.331 200.367 305.454 205.166 293.905C207.392 288.518 209.485 282.725 214.679 278.982C217.85 276.679 221.959 275.391 226.024 274.388C238.276 271.368 251.182 270.544 263.548 267.853C275.914 265.163 288.357 260.132 295.079 251.186C304.592 238.497 300.152 222.242 300.197 207.319C300.273 173.273 324.999 142.8 334.125 109.611C337.106 98.7677 338.215 86.7699 331.557 77.0943C327.035 70.5276 319.406 65.7881 311.39 62.1272C293.754 54.0758 273.708 50.491 253.991 47.0015C226.589 42.1541 193.314 41.526 172.075 25.842C151.693 10.786 123.809 0.0444861 96.0131 0.0444861Z" fill="#AFD4E3"/>
<path d="M362.112 388.295C524.974 388.295 657.001 352.923 657.001 309.291C657.001 265.658 524.974 230.287 362.112 230.287C199.249 230.287 67.2227 265.658 67.2227 309.291C67.2227 352.923 199.249 388.295 362.112 388.295Z" fill="#F5F5F5"/>
<path d="M607.015 118.557C607.015 118.557 584.293 141.29 597.122 175.024C609.951 208.759 575.129 264.859 575.129 264.859C575.129 264.859 575.503 264.802 576.194 264.681C622.863 256.433 646.054 203.036 620.104 163.363C610.458 148.618 602.538 131.335 607.015 118.557Z" fill="#AFD4E3"/>
<path d="M607.015 118.557C607.015 118.557 594.186 146.422 607.015 169.155C619.844 191.888 609.216 255.691 575.129 264.859" stroke="#535461" stroke-width="2" stroke-miterlimit="10"/>
<path d="M647.488 210.51C647.488 210.51 621.556 206.38 619.197 229.627C616.838 252.873 569.339 256.097 569.339 256.097L570.227 256.687C609.444 282.44 646.961 273.094 641.254 238.921C639.18 226.181 639.351 213.41 647.488 210.51Z" fill="#AFD4E3"/>
<path opacity="0.2" d="M647.488 210.51C647.488 210.51 621.556 206.38 619.197 229.627C616.838 252.873 569.339 256.097 569.339 256.097L570.227 256.687C609.444 282.44 646.961 273.094 641.254 238.921C639.18 226.181 639.351 213.41 647.488 210.51Z" fill="#F5F5F5"/>
<path d="M647.488 210.51C647.488 210.51 627.359 214.952 629.014 233.237C630.669 251.522 599.126 273.494 569.339 256.078" stroke="#535461" stroke-width="2" stroke-miterlimit="10"/>
<path d="M129.2 340.234C129.2 340.234 120.791 311.683 130.779 290.656C135.031 281.867 136.317 271.935 134.444 262.353C133.518 257.813 132.179 253.368 130.443 249.073" stroke="#535461" stroke-width="2" stroke-miterlimit="10"/>
<path d="M136.632 235.788C136.632 239.29 130.29 249.435 130.29 249.435C130.29 249.435 123.948 239.283 123.948 235.788C123.948 234.105 124.616 232.491 125.806 231.301C126.995 230.111 128.608 229.443 130.29 229.443C131.972 229.443 133.585 230.111 134.774 231.301C135.963 232.491 136.632 234.105 136.632 235.788Z" fill="#AFD4E3"/>
<path d="M147.128 255.177C145.225 258.114 134.394 263.19 134.394 263.19C134.394 263.19 134.59 251.224 136.493 248.286C136.925 247.546 137.503 246.901 138.192 246.391C138.881 245.881 139.666 245.515 140.5 245.317C141.334 245.118 142.199 245.091 143.044 245.237C143.888 245.382 144.695 245.698 145.414 246.164C146.133 246.63 146.751 247.237 147.229 247.949C147.708 248.66 148.037 249.461 148.197 250.304C148.357 251.146 148.345 252.012 148.161 252.85C147.977 253.687 147.626 254.479 147.128 255.177V255.177Z" fill="#AFD4E3"/>
<path d="M146.646 288.303C143.519 289.876 131.609 288.791 131.609 288.791C131.609 288.791 137.818 278.564 140.938 276.99C142.428 276.317 144.12 276.245 145.662 276.79C147.203 277.334 148.475 278.454 149.211 279.914C149.948 281.375 150.092 283.063 149.614 284.627C149.136 286.191 148.072 287.51 146.646 288.309V288.303Z" fill="#AFD4E3"/>
<path d="M140.659 313.294C137.843 315.375 125.921 316.314 125.921 316.314C125.921 316.314 130.309 305.185 133.125 303.104C134.48 302.2 136.13 301.852 137.735 302.132C139.339 302.412 140.774 303.299 141.743 304.609C142.712 305.919 143.139 307.552 142.937 309.168C142.736 310.785 141.92 312.263 140.659 313.294V313.294Z" fill="#AFD4E3"/>
<path d="M121.07 263.869C123.606 266.305 135.269 268.837 135.269 268.837C135.269 268.837 132.408 257.22 129.897 254.783C129.311 254.157 128.603 253.656 127.817 253.312C127.032 252.967 126.184 252.785 125.327 252.777C124.469 252.769 123.618 252.936 122.826 253.267C122.035 253.597 121.318 254.085 120.721 254.701C120.123 255.316 119.656 256.047 119.349 256.848C119.041 257.65 118.9 258.505 118.932 259.363C118.965 260.22 119.171 261.063 119.539 261.838C119.906 262.614 120.427 263.307 121.07 263.875V263.869Z" fill="#AFD4E3"/>
<path d="M114.436 293.181C117.562 294.755 129.472 293.67 129.472 293.67C129.472 293.67 123.263 283.442 120.143 281.869C119.396 281.451 118.573 281.188 117.722 281.097C116.871 281.006 116.011 281.088 115.192 281.338C114.374 281.589 113.615 282.002 112.961 282.554C112.306 283.105 111.77 283.784 111.385 284.548C110.999 285.312 110.773 286.147 110.718 287.001C110.663 287.855 110.782 288.712 111.067 289.519C111.352 290.326 111.798 291.068 112.377 291.698C112.955 292.328 113.656 292.835 114.436 293.188V293.181Z" fill="#AFD4E3"/>
<path d="M111.9 322.557C114.715 324.638 126.638 325.577 126.638 325.577C126.638 325.577 122.249 314.449 119.434 312.368C118.079 311.463 116.428 311.115 114.824 311.395C113.219 311.675 111.784 312.562 110.816 313.872C109.847 315.182 109.419 316.815 109.621 318.432C109.823 320.049 110.639 321.526 111.9 322.557Z" fill="#AFD4E3"/>
<g clip-path="url(#clip1)">
<path d="M417.016 73.3965V337.589C417.012 340.736 415.76 343.754 413.534 345.978C411.308 348.203 408.29 349.453 405.143 349.454H297.888C296.329 349.457 294.785 349.152 293.343 348.556C291.902 347.961 290.593 347.088 289.49 345.985C288.387 344.883 287.512 343.574 286.916 342.134C286.32 340.693 286.014 339.149 286.016 337.589V73.3965C286.015 71.8373 286.322 70.2933 286.919 68.8528C287.516 67.4123 288.39 66.1034 289.493 65.0008C290.595 63.8983 291.904 63.0238 293.345 62.4272C294.785 61.8306 296.329 61.5235 297.888 61.5237H313.939V63.582C313.938 66.1746 314.968 68.6612 316.801 70.4948C318.634 72.3285 321.12 73.359 323.713 73.3598H378.263C380.35 73.3642 382.382 72.6953 384.059 71.4523C384.398 71.2058 384.719 70.9362 385.021 70.6453C385.975 69.7336 386.735 68.6374 387.254 67.4232C387.772 66.209 388.038 64.9022 388.037 63.582V61.5237H405.143C406.702 61.5232 408.246 61.83 409.687 62.4265C411.128 63.023 412.437 63.8975 413.539 65.0001C414.642 66.1027 415.516 67.4117 416.113 68.8524C416.709 70.2931 417.016 71.8372 417.016 73.3965V73.3965Z" fill="#3F3D56"/>
<path d="M401.335 156.763H301.696V232.572H401.335V156.763Z" fill="#DE8B5F"/>
<path d="M290.756 233.557L242.144 229.506V158.209L290.756 155.778V233.557Z" fill="#DE8B5F"/>
<path d="M412.275 233.557L460.886 229.506V158.209L412.275 155.778V233.557Z" fill="#DE8B5F"/>
<path d="M368.413 185.217C366.966 183.968 365.184 183.173 363.288 182.932C361.392 182.691 359.467 183.015 357.755 183.862C356.267 184.582 354.667 185.04 353.024 185.216C352.983 181.657 353.636 178.125 354.947 174.816L355.162 174.261H352.305L352.223 174.561C351.904 175.731 351.654 176.918 351.472 178.117C351.317 177.598 351.117 177.093 350.874 176.608C348.87 172.635 344.239 171.01 344.043 170.943L343.648 170.807L343.522 171.205C343.46 171.403 342.014 176.092 344.018 180.066C345.453 182.911 348.233 184.551 349.769 185.279C347.825 185.153 345.925 184.645 344.178 183.783C343.089 183.222 341.863 182.979 340.642 183.082C339.421 183.185 338.254 183.63 337.274 184.366C331.94 188.419 328.88 194.362 328.88 200.669C328.88 208.954 334.246 216.542 342.55 219.999C343.299 220.31 344.102 220.469 344.913 220.468C346.039 220.468 347.145 220.165 348.113 219.591C349.4 218.842 350.862 218.446 352.351 218.443C353.841 218.44 355.304 218.83 356.594 219.573C357.429 220.065 358.366 220.357 359.332 220.425C360.298 220.493 361.267 220.336 362.162 219.965C370.418 216.495 375.752 208.92 375.752 200.669C375.752 194.763 373.145 189.275 368.413 185.217ZM352.928 175.076H353.977C352.798 178.237 352.196 181.583 352.202 184.957H352.015C351.762 181.635 352.071 178.295 352.928 175.076V175.076ZM344.746 179.699C343.224 176.682 343.892 173.087 344.187 171.874C345.337 172.357 348.622 173.953 350.146 176.975C351.667 179.991 351 183.586 350.705 184.8C349.554 184.315 346.267 182.715 344.746 179.699V179.699ZM361.846 219.214C361.068 219.536 360.226 219.672 359.386 219.612C358.547 219.553 357.732 219.299 357.008 218.87C355.592 218.053 353.985 217.624 352.35 217.628C350.715 217.631 349.109 218.067 347.697 218.89C346.974 219.32 346.161 219.576 345.322 219.638C344.483 219.7 343.641 219.566 342.863 219.247C334.864 215.916 329.695 208.624 329.695 200.669C329.695 194.619 332.638 188.913 337.768 185.015C338.752 184.272 339.952 183.871 341.185 183.874C342.096 183.873 342.994 184.09 343.804 184.507C346.037 185.573 348.477 186.133 350.951 186.148C353.425 186.162 355.872 185.631 358.117 184.592C359.687 183.816 361.45 183.52 363.187 183.741C364.924 183.962 366.557 184.691 367.882 185.836C372.431 189.737 374.937 195.004 374.937 200.669C374.937 208.591 369.798 215.871 361.846 219.214V219.214Z" fill="white"/>
<path d="M266.317 177.514V176.557H266.697V173.576C266.699 173.355 266.639 173.138 266.526 172.949C266.412 172.759 266.249 172.604 266.053 172.501C264.371 171.624 262.563 171.625 260.68 172.506C260.472 172.604 260.296 172.76 260.173 172.955C260.05 173.149 259.985 173.375 259.986 173.605V176.557H260.366V177.424C258.966 177.816 257.734 178.657 256.858 179.817C255.982 180.977 255.51 182.392 255.516 183.846V190.297L256.24 190.538L255.516 191.021V192.959L256.24 193.201L255.516 193.684V195.622L256.24 195.864L255.516 196.347V211.11C255.517 212.262 255.975 213.366 256.79 214.18C257.604 214.995 258.708 215.453 259.859 215.454H266.263C267.412 215.453 268.513 214.996 269.326 214.183C270.138 213.371 270.595 212.269 270.596 211.12V196.347L269.872 195.864L270.596 195.622V193.684L269.872 193.201L270.596 192.959V191.021L269.872 190.538L270.596 190.297V183.513C270.592 182.193 270.177 180.907 269.411 179.833C268.644 178.758 267.563 177.948 266.317 177.514V177.514ZM261.025 173.244C262.689 172.466 264.211 172.46 265.676 173.224C265.739 173.259 265.791 173.31 265.827 173.372C265.864 173.434 265.883 173.504 265.882 173.576V175.172H260.801V173.605C260.8 173.53 260.821 173.456 260.861 173.392C260.9 173.328 260.957 173.277 261.025 173.244V173.244ZM269.781 189.709L268.033 190.292L269.781 191.457V192.372L268.033 192.955L269.781 194.12V195.035L268.033 195.617L269.781 196.783V211.12C269.78 212.053 269.409 212.947 268.75 213.607C268.09 214.267 267.196 214.638 266.263 214.639H259.859C258.924 214.638 258.027 214.266 257.366 213.604C256.704 212.943 256.332 212.046 256.331 211.11V196.783L258.079 195.617L256.331 195.035V194.12L258.079 192.955L256.331 192.372V191.457L258.079 190.292L256.331 189.709V183.846C256.326 182.521 256.772 181.233 257.596 180.196C258.421 179.158 259.574 178.432 260.866 178.137L261.181 178.064V176.557H265.502V178.118L265.796 178.204C266.943 178.542 267.951 179.241 268.669 180.197C269.387 181.154 269.777 182.317 269.781 183.513V189.709Z" fill="white"/>
<path d="M457.905 188.677L455.853 188.267L456.336 187.3L455.395 187.112L455.557 186.133L454.53 185.961V185.033L453.696 184.795L454.487 183.806H453.114L453.401 183.089L452.385 182.92L452.73 181.712H451.631V180.585H451.223C449.939 180.585 449.223 182.11 448.988 182.721C441.899 183.957 421.317 198.213 418.968 199.853C417.992 199.536 416.544 200.278 416.242 200.443L415.763 200.704L416.454 201.394L416.248 202.011L417.514 202.486L417.237 203.179L418.035 203.844L417.318 204.382L418.396 205.029L418.207 205.975L419.411 206.147V207.094L420.111 207.234L419.762 208.456H420.539V209.422H421.296L421.64 210.452L421.993 210.381C422.813 210.217 423.515 209.082 423.789 208.579C430.616 207.361 451.694 192.532 453.746 191.079C456.14 191.366 457.02 190.726 457.115 190.651L457.504 190.339L456.574 189.564L457.905 188.677ZM453.693 190.251L453.534 190.23L453.403 190.323C453.17 190.488 430.055 206.865 423.465 207.806L423.254 207.836L423.158 208.027C422.906 208.542 422.564 209.009 422.15 209.406L421.884 208.607H421.354V207.641H420.842L421.138 206.608L420.227 206.426V205.44L419.176 205.29L419.309 204.626L418.777 204.306L419.348 203.878L418.214 202.932L418.58 202.015L417.27 201.524L417.387 201.174L417.133 200.921C417.746 200.666 418.486 200.477 418.804 200.667L419.031 200.804L419.248 200.652C419.479 200.49 442.438 184.432 449.346 183.49L449.604 183.454L449.681 183.206C449.799 182.82 450.221 181.847 450.816 181.514V182.527H451.65L451.35 183.574L452.267 183.727L451.909 184.621H452.791L452.294 185.242L453.714 185.648V186.652L454.62 186.803L454.461 187.757L455.13 187.89L454.647 188.857L455.815 189.09L455.213 189.491L456.079 190.213C455.293 190.372 454.484 190.385 453.693 190.251V190.251Z" fill="white"/>
<path d="M351.515 267.217C358.043 267.217 363.335 261.925 363.335 255.397C363.335 248.869 358.043 243.577 351.515 243.577C344.988 243.577 339.696 248.869 339.696 255.397C339.696 261.925 344.988 267.217 351.515 267.217Z" fill="#F8D66D"/>
<path d="M358.957 254.23H352.682V247.955H350.348V254.23H344.073V256.564H350.348V262.839H352.682V256.564H358.957V254.23Z" fill="#3F3D56"/>
<path d="M388.795 255.804L382.681 252.951V254.581H368.416V257.027H382.681V258.657L388.795 255.804Z" fill="white"/>
<path d="M314.236 255.804L320.35 252.951V254.581H334.615V257.027H320.35V258.657L314.236 255.804Z" fill="white"/>
<path d="M390.643 100.109H312.388V100.924H390.643V100.109Z" fill="white"/>
<path d="M390.832 322.647H312.577V323.463H390.832V322.647Z" fill="white"/>
<path d="M516.571 242.151L514.533 249.895C514.533 249.895 507.196 266.198 514.533 267.013C521.869 267.828 522.277 245.819 522.277 245.819L516.571 242.151Z" fill="#A0616A"/>
<path d="M529.205 186.312L514.533 244.188C514.533 244.188 520.239 245.819 523.092 247.857L529.205 186.312Z" fill="#BFBFBF"/>
<path d="M575.262 230.331L579.338 293.505C579.338 293.505 589.12 318.368 588.712 342.007C588.712 342.007 585.044 351.382 587.897 353.012C590.75 354.642 592.38 355.865 590.75 357.088C589.12 358.311 587.897 361.164 589.12 361.979C590.342 362.794 590.75 364.017 590.342 364.017H578.115C578.115 364.017 580.56 357.903 576.892 356.273C573.224 354.642 575.262 350.567 575.262 350.567L547.954 270.681L526.352 344.045C526.352 344.045 530.021 346.491 527.168 347.713C524.315 348.936 523.092 346.491 524.315 348.936C525.537 351.382 523.907 352.604 523.907 353.012C523.907 353.42 511.68 351.789 511.68 351.789C511.68 351.789 517.793 346.491 514.94 345.268C512.087 344.045 510.864 342.823 511.68 342.007C512.495 341.192 515.755 333.448 515.755 333.448C515.755 333.448 517.386 304.102 517.793 302.88C518.201 301.657 517.793 295.951 517.793 293.098C517.793 290.245 517.386 278.833 518.608 275.98C519.831 273.126 521.054 238.075 527.575 233.999C534.096 229.923 575.262 230.331 575.262 230.331Z" fill="#2F2E41"/>
<path d="M523.5 350.974C523.5 350.974 531.651 367.685 525.945 369.723C520.239 371.761 512.903 370.13 511.272 372.576C509.642 375.021 491.708 377.874 491.301 371.761C490.893 365.647 510.865 354.235 510.865 354.235L513.466 350.046L523.5 350.974Z" fill="#2F2E41"/>
<path d="M589.527 363.201C589.527 363.201 597.679 379.912 591.973 381.95C586.267 383.988 578.93 382.358 577.3 384.803C575.67 387.249 557.736 390.102 557.329 383.988C556.921 377.874 576.892 366.462 576.892 366.462L579.494 362.273L589.527 363.201Z" fill="#2F2E41"/>
<path d="M551.826 153.502C559.254 153.502 565.276 147.48 565.276 140.052C565.276 132.624 559.254 126.602 551.826 126.602C544.398 126.602 538.376 132.624 538.376 140.052C538.376 147.48 544.398 153.502 551.826 153.502Z" fill="#A0616A"/>
<path d="M560.997 147.185L559.366 159.004L547.139 168.379L543.878 163.895V148.407L560.997 147.185Z" fill="#A0616A"/>
<path d="M541.84 162.265C541.84 162.265 554.475 163.488 560.997 159.004L574.039 236.037C574.039 236.037 527.983 239.705 525.945 237.26V213.212L534.096 174.085L541.84 162.265Z" fill="#3F3D56"/>
<path d="M559.875 155.321L564.258 159.004C564.258 159.004 582.191 161.857 580.968 166.748L576.077 224.624L577.708 244.188C577.708 244.188 563.85 240.52 553.253 244.188C542.656 247.856 551.075 165.361 551.075 165.361C551.075 165.361 560.79 156.529 559.875 155.321Z" fill="#BFBFBF"/>
<path d="M543.878 159.782C543.878 159.782 530.836 169.194 529.205 175.307C527.575 181.421 522.277 245.819 522.277 245.819C522.277 245.819 524.722 244.596 525.945 246.634C527.168 248.672 545.916 163.006 543.878 159.782Z" fill="#BFBFBF"/>
<path d="M579.745 245.004L576.824 254.538C576.824 254.538 576.077 272.312 566.295 269.866C556.514 267.421 569.148 246.634 569.148 246.634L572.001 242.151L579.745 245.004Z" fill="#A0616A"/>
<path d="M538.382 139.466C538.382 139.466 536.926 137.282 537.486 134.93C537.821 133.594 537.953 132.216 537.878 130.842C537.878 130.842 539.054 127.034 540.23 124.905C541.406 122.777 540.846 121.881 544.543 121.209C548.239 120.537 546.727 115.721 556.471 120.929C556.8 121.388 557.257 121.74 557.785 121.939C558.314 122.138 558.889 122.177 559.439 122.049C561.455 121.657 562.183 124.457 562.183 124.457C562.183 124.457 563.527 123.673 564.031 124.793C564.535 125.913 568.129 124.121 568.129 131.682C568.129 139.242 564.04 145.995 564.04 145.995C564.04 145.995 564.339 133.278 557.675 131.99C551.011 130.702 543.843 126.95 542.107 131.766C541.169 134.469 539.92 137.053 538.382 139.466Z" fill="#2F2E41"/>
<path d="M564.186 142.49C564.912 142.49 565.501 141.705 565.501 140.737C565.501 139.769 564.912 138.984 564.186 138.984C563.46 138.984 562.872 139.769 562.872 140.737C562.872 141.705 563.46 142.49 564.186 142.49Z" fill="#A0616A"/>
<path d="M577.707 163.895C577.707 163.895 584.229 162.265 586.267 173.27C588.304 184.274 590.75 215.658 590.75 215.658L580.968 248.672C580.968 248.672 571.186 243.373 569.148 244.188L576.846 215.527L570.371 186.312C570.371 186.312 576.077 163.895 577.707 163.895Z" fill="#BFBFBF"/>
<path opacity="0.15" d="M568.225 186.87L576.785 215.4L568.225 244.338L573.116 215.4L568.225 186.87Z" fill="#3F3D56"/>
</g>
</g>
<defs>
<clipPath id="clip0">
<rect width="657" height="388.294" fill="white"/>
</clipPath>
<clipPath id="clip1">
<rect width="420" height="352.649" fill="white" transform="translate(174 35)"/>
</clipPath>
</defs>
</svg>
