<svg width="16" height="16" viewBox="0 0 16 16" fill="none" xmlns="http://www.w3.org/2000/svg">
<path d="M8 0.25C3.71978 0.25 0.25 3.71978 0.25 8C0.25 12.2802 3.71978 15.75 8 15.75C12.2802 15.75 15.75 12.2802 15.75 8C15.75 3.71978 12.2802 0.25 8 0.25ZM8 14.25C4.54588 14.25 1.75 11.4547 1.75 8C1.75 4.54591 4.54534 1.75 8 1.75C11.4541 1.75 14.25 4.54534 14.25 8C14.25 11.4541 11.4547 14.25 8 14.25ZM11.3547 11.0918C11.0543 11.3953 9.93191 12.3854 8.10269 12.3854C5.52675 12.3854 3.71256 10.4658 3.71256 7.96141C3.71256 5.48791 5.59616 3.60512 8.08012 3.60512C9.81547 3.60512 10.8532 4.437 11.1299 4.69197C11.1949 4.75177 11.2367 4.83266 11.2478 4.92031C11.2588 5.00795 11.2385 5.09669 11.1904 5.17078L10.6231 6.04931C10.503 6.23525 10.2491 6.27687 10.0762 6.14059C9.80762 5.92884 9.08203 5.43628 8.14784 5.43628C6.63837 5.43628 5.71297 6.54034 5.71297 7.93884C5.71297 9.2385 6.55322 10.5542 8.15913 10.5542C9.17966 10.5542 9.93547 9.95925 10.2131 9.70344C10.3777 9.55166 10.6379 9.57722 10.7699 9.75775L11.3907 10.6068C11.4436 10.6786 11.4691 10.767 11.4625 10.8559C11.4559 10.9449 11.4177 11.0285 11.3547 11.0918Z" fill="black"/>
</svg>
