<svg width="71" height="71" viewBox="0 0 71 71" fill="none" xmlns="http://www.w3.org/2000/svg">
<path d="M35.5906 70.9996C55.1465 70.9996 70.9996 55.1465 70.9996 35.5906C70.9996 16.0348 55.1465 0.181641 35.5906 0.181641C16.0348 0.181641 0.181641 16.0348 0.181641 35.5906C0.181641 55.1465 16.0348 70.9996 35.5906 70.9996Z" fill="black"/>
<path d="M50.2945 32.617H38.2555V20.578C38.2555 19.8267 37.957 19.1061 37.4258 18.5749C36.8945 18.0436 36.1739 17.7451 35.4226 17.7451V17.7451C34.6713 17.7451 33.9507 18.0436 33.4194 18.5749C32.8881 19.1061 32.5897 19.8267 32.5897 20.578V32.617H20.5507C19.7993 32.617 19.0788 32.9155 18.5475 33.4468C18.0162 33.9781 17.7178 34.6986 17.7178 35.4499V35.4499C17.7178 36.2013 18.0162 36.9218 18.5475 37.4531C19.0788 37.9844 19.7993 38.2828 20.5507 38.2828H32.5897V50.3219C32.5897 51.0732 32.8881 51.7937 33.4194 52.325C33.9507 52.8563 34.6713 53.1548 35.4226 53.1548V53.1548C36.1739 53.1548 36.8945 52.8563 37.4258 52.325C37.957 51.7937 38.2555 51.0732 38.2555 50.3219V38.2828H50.2945C51.0458 38.2828 51.7664 37.9844 52.2977 37.4531C52.8289 36.9218 53.1274 36.2013 53.1274 35.4499V35.4499C53.1274 34.6986 52.8289 33.9781 52.2977 33.4468C51.7664 32.9155 51.0458 32.617 50.2945 32.617V32.617Z" fill="white"/>
<path d="M35.591 68.182C53.5905 68.182 68.182 53.5905 68.182 35.591C68.182 17.5915 53.5905 3 35.591 3C17.5915 3 3 17.5915 3 35.591C3 53.5905 17.5915 68.182 35.591 68.182Z" fill="#BCDDE9"/>
<path d="M49.1248 32.8544H38.0439V21.7735C38.0439 21.0819 37.7691 20.4187 37.2802 19.9297C36.7912 19.4407 36.1279 19.166 35.4364 19.166V19.166C34.7449 19.166 34.0817 19.4407 33.5927 19.9297C33.1037 20.4187 32.829 21.0819 32.829 21.7735V32.8544H21.7481C21.0565 32.8544 20.3933 33.1291 19.9043 33.6181C19.4153 34.1071 19.1406 34.7703 19.1406 35.4618V35.4618C19.1406 36.1533 19.4153 36.8166 19.9043 37.3055C20.3933 37.7945 21.0565 38.0693 21.7481 38.0693H32.829V49.1502C32.829 49.8417 33.1037 50.5049 33.5927 50.9939C34.0817 51.4829 34.7449 51.7576 35.4364 51.7576V51.7576C36.1279 51.7576 36.7912 51.4829 37.2802 50.9939C37.7691 50.5049 38.0439 49.8417 38.0439 49.1502V38.0693H49.1248C49.8163 38.0693 50.4795 37.7945 50.9685 37.3055C51.4575 36.8166 51.7322 36.1533 51.7322 35.4618V35.4618C51.7322 34.7703 51.4575 34.1071 50.9685 33.6181C50.4795 33.1291 49.8163 32.8544 49.1248 32.8544V32.8544Z" fill="black"/>
</svg>
