<svg width="688" height="503" viewBox="0 0 688 503" fill="none" xmlns="http://www.w3.org/2000/svg">
<path opacity="0.2" d="M100.544 31.0201C95.1918 30.8737 89.7064 31.0201 84.6858 32.4972C71.0255 36.5209 64.5506 49.6873 66.6557 61.0646C68.7609 72.4419 77.4207 82.3548 86.4058 91.4147C95.391 100.474 105.127 109.432 110.054 120.262C112.511 125.668 113.66 131.722 111.163 137.121C107.311 145.443 95.6965 150.09 84.5464 151.058C73.3963 152.026 62.1997 150.141 51.0097 149.511C46.3146 149.25 41.4867 149.218 37.0638 150.434C32.2093 151.758 28.165 154.464 24.446 157.285C9.93563 168.35 -1.67934 183.445 0.200043 199.305C2.32514 217.278 21.2783 231.482 42.0379 239.103C48.9112 241.65 56.183 243.674 62.2329 247.278C78.1711 256.783 81.7506 274.61 80.1634 290.342C78.5762 306.074 73.1705 321.826 76.1788 337.418C79.7184 355.557 95.3844 371.944 116.516 379.597C135.343 386.416 158.905 385.964 175.62 376.344C183.768 371.645 189.931 365.119 195.29 358.371C203.248 348.404 209.822 337.49 214.848 325.9C217.179 320.495 219.37 314.682 224.809 310.926C228.13 308.615 232.433 307.322 236.69 306.316C249.52 303.286 263.034 302.458 275.984 299.759C288.934 297.059 301.964 292.01 309.003 283.033C318.964 270.3 314.316 253.988 314.362 239.014C314.442 204.85 340.335 174.271 349.891 140.967C353.012 130.086 354.174 118.047 347.201 108.337C342.467 101.748 334.477 96.9919 326.083 93.3183C307.615 85.239 286.623 81.6418 265.976 78.1401C237.281 73.2759 202.436 72.6456 180.196 56.9071C158.852 41.7989 129.652 31.0201 100.544 31.0201Z" fill="#AFD4E3"/>
<path d="M379.198 420.617C549.745 420.617 688.001 385.123 688.001 341.339C688.001 297.555 549.745 262.061 379.198 262.061C208.651 262.061 70.3953 297.555 70.3953 341.339C70.3953 385.123 208.651 420.617 379.198 420.617Z" fill="#F5F5F5"/>
<path d="M635.657 149.944C635.657 149.944 611.862 172.756 625.297 206.608C638.732 240.459 602.266 296.754 602.266 296.754C602.266 296.754 602.658 296.696 603.382 296.575C652.252 288.299 676.538 234.717 649.364 194.906C639.263 180.109 630.968 162.766 635.657 149.944Z" fill="#AFD4E3"/>
<path d="M635.657 149.944C635.657 149.944 622.222 177.906 635.657 200.718C649.091 223.53 637.961 287.554 602.266 296.754" stroke="#535461" stroke-width="2" stroke-miterlimit="10"/>
<path d="M678.039 242.216C678.039 242.216 650.884 238.072 648.414 261.399C645.943 284.727 596.203 287.961 596.203 287.961L597.133 288.553C638.2 314.395 677.488 305.017 671.511 270.726C669.339 257.942 669.519 245.126 678.039 242.216Z" fill="#AFD4E3"/>
<path opacity="0.2" d="M678.039 242.216C678.039 242.216 650.884 238.072 648.414 261.399C645.943 284.727 596.203 287.961 596.203 287.961L597.133 288.553C638.2 314.395 677.488 305.017 671.511 270.726C669.339 257.942 669.519 245.126 678.039 242.216Z" fill="#F5F5F5"/>
<path d="M678.039 242.217C678.039 242.217 656.961 246.673 658.694 265.022C660.427 283.371 627.395 305.419 596.203 287.942" stroke="#535461" stroke-width="2" stroke-miterlimit="10"/>
<path d="M135.297 372.39C135.297 372.39 126.491 343.74 136.95 322.64C141.403 313.821 142.75 303.855 140.789 294.239C139.819 289.683 138.417 285.223 136.598 280.913" stroke="#535461" stroke-width="2" stroke-miterlimit="10"/>
<path d="M143.079 267.581C143.079 271.095 136.439 281.276 136.439 281.276C136.439 281.276 129.798 271.089 129.798 267.581C129.798 265.893 130.497 264.273 131.743 263.079C132.988 261.885 134.677 261.214 136.439 261.214C138.2 261.214 139.889 261.885 141.134 263.079C142.38 264.273 143.079 265.893 143.079 267.581Z" fill="#AFD4E3"/>
<path d="M154.071 287.037C152.079 289.985 140.736 295.079 140.736 295.079C140.736 295.079 140.942 283.071 142.934 280.123C143.387 279.38 143.993 278.733 144.714 278.221C145.435 277.709 146.257 277.342 147.13 277.143C148.003 276.944 148.91 276.917 149.794 277.063C150.679 277.209 151.523 277.526 152.276 277.993C153.03 278.461 153.676 279.07 154.177 279.784C154.678 280.498 155.023 281.302 155.191 282.148C155.358 282.993 155.346 283.862 155.153 284.702C154.961 285.543 154.592 286.337 154.071 287.037V287.037Z" fill="#AFD4E3"/>
<path d="M153.566 320.278C150.292 321.857 137.82 320.769 137.82 320.769C137.82 320.769 144.322 310.506 147.589 308.927C149.149 308.251 150.921 308.179 152.536 308.725C154.15 309.272 155.482 310.395 156.253 311.861C157.024 313.326 157.175 315.021 156.674 316.59C156.174 318.16 155.06 319.483 153.566 320.285V320.278Z" fill="#AFD4E3"/>
<path d="M147.297 345.356C144.348 347.445 131.864 348.387 131.864 348.387C131.864 348.387 136.459 337.22 139.408 335.132C140.826 334.224 142.555 333.875 144.235 334.156C145.915 334.437 147.418 335.327 148.432 336.641C149.446 337.956 149.894 339.594 149.683 341.217C149.472 342.839 148.617 344.321 147.297 345.356V345.356Z" fill="#AFD4E3"/>
<path d="M126.783 295.76C129.439 298.205 141.652 300.745 141.652 300.745C141.652 300.745 138.657 289.088 136.027 286.643C135.413 286.015 134.672 285.512 133.849 285.166C133.027 284.82 132.139 284.638 131.241 284.63C130.342 284.622 129.452 284.789 128.623 285.121C127.794 285.453 127.043 285.942 126.417 286.56C125.791 287.178 125.303 287.911 124.981 288.715C124.659 289.519 124.511 290.378 124.545 291.238C124.579 292.099 124.795 292.944 125.18 293.722C125.564 294.501 126.11 295.196 126.783 295.767V295.76Z" fill="#AFD4E3"/>
<path d="M119.836 325.174C123.11 326.753 135.582 325.664 135.582 325.664C135.582 325.664 129.08 315.401 125.813 313.823C125.031 313.403 124.169 313.14 123.278 313.048C122.387 312.957 121.486 313.039 120.629 313.29C119.772 313.542 118.977 313.956 118.292 314.51C117.606 315.063 117.045 315.744 116.641 316.511C116.238 317.278 116 318.115 115.943 318.973C115.886 319.83 116.01 320.69 116.309 321.499C116.607 322.309 117.074 323.053 117.68 323.686C118.286 324.318 119.02 324.827 119.836 325.181V325.174Z" fill="#AFD4E3"/>
<path d="M117.181 354.652C120.129 356.74 132.614 357.683 132.614 357.683C132.614 357.683 128.019 346.515 125.07 344.427C123.651 343.52 121.923 343.17 120.243 343.451C118.563 343.732 117.06 344.622 116.045 345.937C115.031 347.251 114.583 348.89 114.795 350.512C115.006 352.135 115.86 353.617 117.181 354.652Z" fill="#AFD4E3"/>
<path d="M500.208 20.7216V481.818C500.202 487.311 497.922 492.577 493.867 496.46C489.812 500.342 484.316 502.524 478.584 502.526H283.238C280.398 502.531 277.585 501.998 274.96 500.96C272.335 499.921 269.95 498.396 267.941 496.472C265.932 494.549 264.339 492.264 263.253 489.75C262.168 487.235 261.61 484.54 261.613 481.818V20.7216C261.613 18.0003 262.172 15.3057 263.259 12.7915C264.345 10.2774 265.938 7.99292 267.946 6.0687C269.954 4.14447 272.338 2.61814 274.962 1.57686C277.586 0.535589 280.398 -0.000233537 283.238 9.72181e-07H312.471V3.59232C312.47 8.11725 314.345 12.4571 317.684 15.6574C321.022 18.8577 325.55 20.6563 330.272 20.6576H429.626C433.427 20.6654 437.129 19.4978 440.182 17.3285C440.8 16.8983 441.385 16.4277 441.934 15.92C443.673 14.3287 445.057 12.4155 446.001 10.2964C446.946 8.17734 447.431 5.89652 447.428 3.59232V9.72181e-07H478.584C481.424 -0.000832751 484.236 0.53458 486.86 1.57564C489.484 2.61671 491.868 4.14302 493.876 6.06736C495.884 7.99171 497.477 10.2764 498.564 12.7908C499.65 15.3053 500.209 18.0002 500.208 20.7216V20.7216Z" fill="#3F3D56"/>
<path d="M471.648 166.221H290.173V298.532H471.648V166.221Z" fill="#DE8B5F"/>
<path d="M270.247 300.25L181.709 293.18V168.745L270.247 164.503V300.25Z" fill="#DE8B5F"/>
<path d="M491.573 300.25L580.11 293.18V168.745L491.573 164.503V300.25Z" fill="#DE8B5F"/>
<path d="M411.685 215.883C409.051 213.702 405.805 212.315 402.352 211.894C398.899 211.474 395.393 212.039 392.273 213.518C389.564 214.774 386.649 215.573 383.657 215.88C383.582 209.669 384.772 203.504 387.16 197.729L387.551 196.761H382.347L382.198 197.285C381.618 199.327 381.161 201.399 380.83 203.491C380.549 202.584 380.184 201.703 379.741 200.857C376.091 193.923 367.658 191.086 367.3 190.969L366.581 190.733L366.352 191.427C366.238 191.773 363.605 199.957 367.254 206.892C369.867 211.857 374.932 214.721 377.73 215.99C374.189 215.771 370.728 214.884 367.546 213.38C365.562 212.4 363.33 211.976 361.107 212.156C358.883 212.335 356.757 213.112 354.972 214.397C345.256 221.471 339.684 231.842 339.684 242.85C339.684 257.311 349.456 270.553 364.581 276.587C365.945 277.13 367.408 277.408 368.885 277.406C370.936 277.407 372.949 276.878 374.713 275.875C377.058 274.568 379.72 273.877 382.432 273.872C385.145 273.867 387.81 274.547 390.16 275.845C391.68 276.704 393.386 277.212 395.146 277.331C396.906 277.45 398.67 277.175 400.301 276.529C415.337 270.471 425.052 257.252 425.052 242.85C425.052 232.542 420.305 222.965 411.685 215.883ZM383.483 198.184H385.394C383.245 203.699 382.15 209.54 382.16 215.428H381.819C381.359 209.631 381.922 203.801 383.483 198.184V198.184ZM368.58 206.251C365.809 200.987 367.024 194.712 367.562 192.594C369.657 193.437 375.639 196.223 378.415 201.498C381.186 206.762 379.971 213.036 379.434 215.154C377.337 214.309 371.35 211.515 368.58 206.251V206.251ZM399.725 275.217C398.308 275.779 396.775 276.017 395.245 275.913C393.716 275.809 392.233 275.365 390.913 274.618C388.334 273.191 385.407 272.443 382.429 272.449C379.451 272.455 376.528 273.215 373.955 274.652C372.638 275.402 371.157 275.849 369.63 275.958C368.102 276.066 366.569 275.832 365.151 275.274C350.582 269.462 341.168 256.735 341.168 242.85C341.168 232.291 346.527 222.333 355.871 215.53C357.663 214.232 359.849 213.533 362.096 213.538C363.755 213.537 365.39 213.916 366.865 214.644C370.932 216.503 375.376 217.481 379.882 217.506C384.388 217.532 388.844 216.605 392.934 214.792C395.792 213.437 399.004 212.92 402.168 213.306C405.331 213.692 408.306 214.964 410.718 216.963C419.004 223.771 423.568 232.964 423.568 242.85C423.568 256.678 414.209 269.382 399.725 275.217V275.217Z" fill="white"/>
<path d="M225.735 202.439V200.769H226.428V195.566C226.43 195.18 226.322 194.801 226.115 194.471C225.908 194.14 225.61 193.87 225.254 193.69C222.19 192.158 218.898 192.16 215.468 193.697C215.089 193.87 214.769 194.142 214.545 194.481C214.322 194.821 214.203 195.214 214.204 195.616V200.769H214.897V202.281C212.347 202.966 210.102 204.433 208.507 206.458C206.911 208.482 206.053 210.953 206.063 213.49V224.748L207.382 225.17L206.063 226.012V229.395L207.382 229.817L206.063 230.66V234.043L207.382 234.465L206.063 235.308V261.074C206.065 263.084 206.9 265.011 208.383 266.432C209.866 267.854 211.876 268.653 213.974 268.656H225.636C227.729 268.653 229.735 267.856 231.215 266.438C232.695 265.02 233.527 263.097 233.529 261.092V235.308L232.21 234.465L233.529 234.043V230.66L232.21 229.817L233.529 229.396V226.012L232.21 225.17L233.529 224.748V212.909C233.521 210.605 232.766 208.361 231.37 206.486C229.974 204.611 228.005 203.197 225.735 202.439V202.439ZM216.096 194.986C219.128 193.629 221.9 193.618 224.567 194.952C224.682 195.012 224.777 195.101 224.843 195.209C224.91 195.317 224.944 195.441 224.943 195.566V198.35H215.689V195.616C215.687 195.485 215.725 195.356 215.797 195.245C215.869 195.133 215.973 195.043 216.096 194.986V194.986ZM232.045 223.723L228.861 224.74L232.045 226.774V228.37L228.861 229.387L232.045 231.422V233.018L228.861 234.035L232.045 236.069V261.092C232.043 262.72 231.367 264.281 230.166 265.432C228.964 266.583 227.335 267.231 225.636 267.233H213.974C212.27 267.231 210.637 266.582 209.432 265.427C208.227 264.272 207.55 262.707 207.548 261.075V236.069L210.732 234.035L207.548 233.018V231.422L210.732 229.387L207.548 228.37V226.774L210.732 224.74L207.548 223.723V213.49C207.538 211.177 208.351 208.93 209.852 207.119C211.353 205.308 213.453 204.04 215.806 203.525L216.381 203.398V200.769H224.25V203.493L224.786 203.642C226.875 204.232 228.711 205.453 230.019 207.122C231.326 208.792 232.037 210.821 232.045 212.909V223.723Z" fill="white"/>
<path d="M574.681 221.921L570.943 221.205L571.823 219.519L570.109 219.19L570.405 217.481L568.534 217.182V215.562L567.015 215.146L568.457 213.419H565.955L566.478 212.169L564.628 211.874L565.255 209.765H563.254V207.798H562.511C560.173 207.798 558.869 210.46 558.44 211.526C545.529 213.684 508.042 238.566 503.763 241.427C501.986 240.874 499.349 242.17 498.799 242.457L497.927 242.913L499.184 244.117L498.81 245.194L501.116 246.022L500.611 247.232L502.064 248.393L500.759 249.332L502.723 250.461L502.378 252.112L504.571 252.413V254.065L505.845 254.309L505.21 256.442H506.624V258.128H508.005L508.63 259.925L509.273 259.801C510.766 259.515 512.045 257.535 512.545 256.657C524.979 254.531 563.368 228.649 567.105 226.115C571.467 226.615 573.07 225.498 573.242 225.367L573.952 224.823L572.257 223.47L574.681 221.921ZM567.01 224.669L566.72 224.632L566.482 224.794C566.058 225.083 523.957 253.664 511.955 255.307L511.57 255.36L511.396 255.694C510.936 256.592 510.314 257.407 509.56 258.099L509.075 256.706H508.109V255.019H507.178L507.715 253.217L506.056 252.899V251.179L504.142 250.917L504.384 249.757L503.415 249.2L504.456 248.452L502.39 246.802L503.058 245.201L500.671 244.343L500.884 243.733L500.423 243.291C501.538 242.847 502.886 242.517 503.465 242.849L503.879 243.087L504.273 242.821C504.695 242.538 546.51 214.512 559.092 212.868L559.562 212.807L559.702 212.372C559.918 211.7 560.686 210.001 561.769 209.42V211.188H563.288L562.743 213.015L564.413 213.282L563.761 214.842H565.367L564.461 215.927L567.049 216.635V218.387L568.697 218.651L568.408 220.315L569.627 220.548L568.747 222.235L570.875 222.643L569.779 223.343L571.355 224.602C569.923 224.88 568.45 224.903 567.01 224.669V224.669Z" fill="white"/>
<path d="M380.91 358.997C392.8 358.997 402.438 349.761 402.438 338.368C402.438 326.974 392.8 317.738 380.91 317.738C369.021 317.738 359.382 326.974 359.382 338.368C359.382 349.761 369.021 358.997 380.91 358.997Z" fill="#F8D66D"/>
<path d="M394.464 336.331H383.036V325.38H378.784V336.331H367.355V340.406H378.784V351.357H383.036V340.406H394.464V336.331Z" fill="#3F3D56"/>
<path d="M448.808 339.079L437.673 334.099V336.945H411.691V341.213H437.673V344.058L448.808 339.079Z" fill="white"/>
<path d="M313.013 339.079L324.148 334.099V336.945H350.129V341.213H324.148V344.058L313.013 339.079Z" fill="white"/>
<path d="M452.174 67.3435H309.646V68.7672H452.174V67.3435Z" fill="white"/>
<path d="M452.519 455.741H309.991V457.164H452.519V455.741Z" fill="white"/>
</svg>
