<svg width="540" height="633" viewBox="0 0 540 633" fill="none" xmlns="http://www.w3.org/2000/svg">
<path d="M313.135 150.319H309.684V55.1066C309.684 47.8699 308.269 40.704 305.52 34.0182C302.77 27.3323 298.741 21.2574 293.66 16.1403C288.58 11.0232 282.549 6.96405 275.911 4.1947C269.274 1.42534 262.16 -2.28278e-05 254.975 2.74204e-10H54.7092C47.5247 -1.71208e-05 40.4105 1.42534 33.7729 4.1947C27.1352 6.96406 21.1042 11.0232 16.0239 16.1403C10.9437 21.2574 6.91386 27.3324 4.16447 34.0182C1.41508 40.7041 -7.93217e-06 47.8699 0 55.1066V577.451C-9.06534e-06 584.688 1.41508 591.854 4.16447 598.54C6.91386 605.225 10.9437 611.3 16.0239 616.418C21.1042 621.535 27.1352 625.594 33.7729 628.363C40.4105 631.132 47.5247 632.558 54.7092 632.558H254.975C262.16 632.558 269.274 631.132 275.911 628.363C282.549 625.594 288.58 621.535 293.66 616.418C298.741 611.3 302.77 605.225 305.52 598.54C308.269 591.854 309.684 584.688 309.684 577.451V218.093H313.135V150.319Z" fill="#3F3D56"/>
<path d="M257.183 14.338H231.042C232.244 17.3067 232.703 20.5277 232.378 23.7172C232.053 26.9067 230.954 29.9667 229.179 32.6278C227.403 35.2889 225.006 37.4694 222.196 38.9771C219.387 40.4848 216.253 41.2736 213.07 41.2738H98.3401C95.157 41.2736 92.0228 40.4848 89.2136 38.9771C86.4045 37.4694 84.0065 35.2889 82.231 32.6278C80.4555 29.9667 79.357 26.9066 79.0322 23.7172C78.7074 20.5277 79.1663 17.3067 80.3684 14.338H55.9524C50.5871 14.3379 45.2743 15.4024 40.3174 17.4705C35.3605 19.5386 30.8566 22.5699 27.0627 26.3913C23.2689 30.2127 20.2594 34.7494 18.2062 39.7423C16.153 44.7352 15.0962 50.0866 15.0962 55.4909V577.069C15.0962 582.474 16.153 587.825 18.2062 592.818C20.2594 597.811 23.2689 602.347 27.0627 606.169C30.8566 609.99 35.3605 613.022 40.3174 615.09C45.2743 617.158 50.5871 618.222 55.9524 618.222H257.183C262.548 618.222 267.861 617.158 272.818 615.09C277.775 613.022 282.279 609.99 286.073 606.169C289.866 602.347 292.876 597.811 294.929 592.818C296.982 587.825 298.039 582.474 298.039 577.069V55.4909C298.039 50.0866 296.982 44.7353 294.929 39.7424C292.876 34.7494 289.866 30.2128 286.073 26.3914C282.279 22.57 277.775 19.5387 272.818 17.4706C267.861 15.4024 262.548 14.338 257.183 14.338V14.338Z" fill="#AFD4E3"/>
<path d="M108.057 232.399C108.077 227.565 103.988 223.611 99.1884 223.611H54.6493C49.9253 223.611 45.8439 227.5 45.7885 232.257C45.7714 233.61 46.0663 234.947 46.65 236.165C47.2337 237.383 48.0902 238.448 49.1521 239.275C49.4243 239.479 49.6385 239.752 49.7733 240.066C49.9081 240.38 49.9587 240.723 49.9202 241.063C49.8686 241.449 49.8427 241.837 49.8427 242.226V273.256C49.8427 274.398 50.066 275.529 50.5 276.584C50.934 277.639 51.57 278.598 52.3719 279.406C53.1737 280.213 54.1257 280.854 55.1733 281.291C56.221 281.728 57.3439 281.953 58.4779 281.953H95.0778C97.368 281.953 99.5644 281.037 101.184 279.406C102.803 277.775 103.713 275.562 103.713 273.256V242.226C103.713 241.886 103.693 241.546 103.654 241.208C103.619 240.873 103.674 240.535 103.812 240.229C103.951 239.922 104.168 239.659 104.442 239.466C105.556 238.66 106.465 237.599 107.094 236.371C107.722 235.142 108.052 233.781 108.057 232.399Z" fill="#3F3D56"/>
<path d="M106.128 231.545C105.906 229.862 105.081 228.319 103.808 227.206C102.534 226.093 100.901 225.488 99.2151 225.504H54.636C53.0601 225.49 51.5265 226.017 50.2885 227C49.0505 227.982 48.1822 229.36 47.8269 230.906C47.5227 232.328 47.6743 233.81 48.2599 235.139C48.8454 236.468 49.8347 237.575 51.0852 238.301C51.4462 238.509 51.7283 238.832 51.8872 239.219C52.046 239.606 52.0726 240.036 51.9628 240.44C51.8046 241.021 51.7247 241.622 51.7253 242.225V273.252C51.7255 274.837 52.2754 276.373 53.2801 277.594C54.2848 278.815 55.6812 279.644 57.2282 279.938C57.6408 280.015 58.0596 280.054 58.4793 280.055H95.0793C95.6972 280.056 96.3122 279.97 96.9068 279.801C98.3236 279.399 99.5714 278.542 100.46 277.361C101.349 276.179 101.83 274.737 101.83 273.255V242.222C101.831 241.657 101.76 241.095 101.622 240.548C101.584 240.396 101.565 240.24 101.564 240.084C101.564 239.741 101.657 239.404 101.833 239.11C102.008 238.817 102.26 238.576 102.56 238.415L102.563 238.412C103.776 237.764 104.766 236.761 105.402 235.535C106.038 234.31 106.292 232.919 106.128 231.545V231.545Z" fill="#F8D66D"/>
<path opacity="0.2" d="M101.83 245.196V242.279H96.9063V225.506H94.0101V242.279H78.5152V225.506H75.6189V242.279H60.124V225.506H57.2277V242.279H51.7249V245.196H57.2277V253.948H51.7249V256.865H57.2277V265.616H51.7249V268.534H57.2277V279.94C57.6403 280.017 58.0592 280.056 58.4789 280.056H60.124V268.534H75.6189V280.056H78.5151V268.534H94.0101V280.056H95.0788C95.6967 280.057 96.3117 279.972 96.9063 279.803V268.534H101.83V265.616H96.9063V256.865H101.83V253.948H96.9063V245.196H101.83ZM60.124 245.196H75.6189V253.948H60.124V245.196ZM60.124 265.616V256.865H75.6189V265.616H60.124ZM94.0101 265.616H78.5152V256.865H94.0101V265.616ZM94.0101 253.948H78.5152V245.196H94.0101V253.948Z" fill="#3F3D56"/>
<path d="M111.663 147.117C111.663 151.712 110.765 156.262 109.019 160.507C107.273 164.753 104.714 168.61 101.488 171.86C98.2618 175.109 94.432 177.686 90.217 179.445C86.0019 181.203 81.4843 182.108 76.922 182.108C72.3597 182.108 67.8421 181.203 63.6271 179.445C59.4121 177.686 55.5822 175.109 52.3562 171.86C49.1301 168.61 46.5711 164.753 44.8252 160.507C43.0793 156.262 42.1807 151.712 42.1807 147.117H111.663Z" fill="#F8D66D"/>
<path d="M54.9256 153.33C54.9256 154.244 54.6034 154.986 54.2061 154.986C53.8087 154.986 53.4866 154.244 53.4866 153.33C53.5302 152.711 53.7843 152.126 54.2061 151.673C54.6278 152.126 54.8819 152.711 54.9256 153.33V153.33Z" fill="#3F3D56"/>
<path d="M91.312 159.126C91.312 160.041 90.9899 160.782 90.5925 160.782C90.1952 160.782 89.873 160.041 89.873 159.126C89.9167 158.507 90.1708 157.922 90.5925 157.469C91.0143 157.922 91.2684 158.507 91.312 159.126Z" fill="#3F3D56"/>
<path d="M64.5867 155.814C64.5867 156.729 64.2646 157.47 63.8672 157.47C63.4698 157.47 63.1477 156.729 63.1477 155.814C63.1914 155.195 63.4455 154.61 63.8672 154.157C64.2889 154.61 64.543 155.195 64.5867 155.814Z" fill="#3F3D56"/>
<path d="M78.9778 168.858C78.9778 169.772 78.6557 170.514 78.2583 170.514C77.8609 170.514 77.5388 169.772 77.5388 168.858C77.5825 168.238 77.8366 167.653 78.2583 167.201C78.6801 167.653 78.9341 168.238 78.9778 168.858V168.858Z" fill="#3F3D56"/>
<path d="M63.5598 167.2C63.5598 168.114 63.2377 168.856 62.8404 168.856C62.443 168.856 62.1208 168.114 62.1208 167.2C62.1645 166.581 62.4186 165.996 62.8404 165.543C63.2621 165.996 63.5162 166.581 63.5598 167.2V167.2Z" fill="#3F3D56"/>
<path d="M99.5347 151.671C99.5347 152.586 99.2126 153.327 98.8152 153.327C98.4178 153.327 98.0957 152.586 98.0957 151.671C98.1394 151.052 98.3935 150.467 98.8152 150.015C99.2369 150.467 99.491 151.052 99.5347 151.671Z" fill="#3F3D56"/>
<path d="M86.3777 172.171C86.3777 173.085 86.0556 173.827 85.6582 173.827C85.2608 173.827 84.9387 173.085 84.9387 172.171C84.9824 171.552 85.2365 170.967 85.6582 170.514C86.08 170.967 86.334 171.552 86.3777 172.171V172.171Z" fill="#3F3D56"/>
<path d="M76.922 184.076C67.1935 184.064 57.8666 180.167 50.9874 173.238C44.1083 166.31 40.2388 156.915 40.2278 147.117H44.1336C44.1336 151.454 44.9817 155.748 46.6295 159.755C48.2772 163.762 50.6924 167.402 53.7371 170.469C56.7818 173.535 60.3963 175.968 64.3744 177.628C68.3525 179.287 72.6162 180.142 76.922 180.142C81.2278 180.142 85.4915 179.287 89.4696 177.628C93.4477 175.968 97.0622 173.535 100.107 170.469C103.152 167.402 105.567 163.762 107.215 159.755C108.862 155.748 109.71 151.454 109.71 147.117H113.616C113.605 156.915 109.736 166.31 102.857 173.238C95.9775 180.167 86.6506 184.064 76.922 184.076Z" fill="#3F3D56"/>
<path d="M161.443 159.806H149.944V171.389H161.443V159.806Z" fill="#3F3D56"/>
<path d="M274.137 165.017H181.566V166.176H274.137V165.017Z" fill="#3F3D56"/>
<path d="M161.443 246.99H149.944V258.573H161.443V246.99Z" fill="#3F3D56"/>
<path d="M274.137 252.202H181.566V253.361H274.137V252.202Z" fill="#3F3D56"/>
<path d="M161.443 333.571H149.944V345.153H161.443V333.571Z" fill="#3F3D56"/>
<path d="M274.137 338.781H181.566V339.941H274.137V338.781Z" fill="#3F3D56"/>
<path d="M50.4275 331.894L50.2037 333.44L51.7577 333.601L74.9885 336.005V336.277L51.6884 338.417L49.9913 338.573L50.3614 340.237C50.5969 341.295 50.5551 342.397 50.2401 343.434C49.9251 344.472 49.3475 345.411 48.5631 346.16C47.7787 346.91 46.814 347.444 45.7623 347.712C44.7107 347.98 43.6077 347.972 42.56 347.688C41.5124 347.405 40.5556 346.857 39.7823 346.096C39.009 345.335 38.4453 344.388 38.1455 343.346C37.8458 342.304 37.8202 341.202 38.0712 340.147C38.3222 339.092 38.8414 338.119 39.5786 337.324L40.525 336.302L39.5761 335.282C38.8506 334.503 38.3347 333.553 38.0764 332.52C37.8181 331.487 37.8258 330.406 38.0988 329.377C38.3719 328.349 38.9014 327.406 39.6379 326.637C40.3745 325.868 41.294 325.298 42.3108 324.98C43.3275 324.663 44.4082 324.608 45.4519 324.821C46.4955 325.034 47.4681 325.508 48.2787 326.199C49.0893 326.889 49.7114 327.774 50.0872 328.77C50.463 329.766 50.58 330.841 50.4275 331.894Z" fill="#CCCCCC" stroke="#3F3D56" stroke-width="3"/>
<path d="M119.336 335.546L119.336 335.546C119.348 335.796 119.355 336.047 119.355 336.3C119.355 336.554 119.348 336.806 119.336 337.055C118.886 345.989 110.182 352.211 101.493 350.058L69.0398 342.015L68.8614 341.971L68.6776 341.971C67.9414 341.972 67.212 341.826 66.5311 341.543C65.8501 341.259 65.2305 340.842 64.708 340.316C64.1854 339.79 63.7703 339.165 63.4869 338.476C63.2034 337.786 63.0574 337.047 63.0574 336.3C63.0574 335.554 63.2034 334.815 63.4869 334.125C63.7703 333.436 64.1854 332.811 64.708 332.285C65.2304 331.759 65.85 331.342 66.5311 331.058C67.212 330.775 67.9414 330.629 68.6776 330.63L68.8614 330.63L69.0398 330.586L101.493 322.543C110.182 320.39 118.886 326.612 119.336 335.546Z" fill="#F8D66D" stroke="#3F3D56" stroke-width="3"/>
<path d="M105.071 478.168C105.089 473.824 101.391 470.27 97.0503 470.27H56.773C52.5011 470.27 48.8102 473.765 48.7602 478.04C48.7447 479.255 49.0113 480.457 49.5392 481.552C50.067 482.646 50.8416 483.603 51.8018 484.346C52.048 484.53 52.2417 484.775 52.3636 485.057C52.4855 485.339 52.5313 485.648 52.4965 485.953C52.4498 486.299 52.4263 486.649 52.4264 486.998V514.881C52.4264 515.908 52.6284 516.924 53.0208 517.872C53.4132 518.82 53.9884 519.682 54.7135 520.408C55.4387 521.133 56.2995 521.709 57.2469 522.102C58.1943 522.494 59.2098 522.697 60.2353 522.697H93.333C95.4041 522.697 97.3903 521.873 98.8547 520.408C100.319 518.942 101.142 516.954 101.142 514.881V486.998C101.142 486.692 101.124 486.387 101.089 486.083C101.057 485.782 101.107 485.478 101.232 485.203C101.357 484.928 101.554 484.691 101.801 484.518C102.809 483.793 103.631 482.84 104.199 481.736C104.767 480.633 105.066 479.41 105.071 478.168Z" fill="#3F3D56"/>
<path d="M99.9129 479.328C99.738 478.003 99.0879 476.787 98.0851 475.91C97.0823 475.034 95.796 474.557 94.4684 474.569H59.3611C58.12 474.558 56.9123 474.974 55.9373 475.748C54.9624 476.521 54.2785 477.607 53.9987 478.825C53.7592 479.945 53.8786 481.112 54.3397 482.159C54.8008 483.206 55.5799 484.078 56.5647 484.651C56.849 484.814 57.0712 485.069 57.1963 485.374C57.3214 485.679 57.3424 486.017 57.2558 486.335C57.1313 486.793 57.0684 487.266 57.0688 487.741V512.183C57.069 513.432 57.5021 514.642 58.2933 515.603C59.0845 516.565 60.1842 517.218 61.4025 517.45C61.7274 517.511 62.0573 517.541 62.3878 517.542H91.2113C91.6979 517.542 92.1823 517.475 92.6506 517.342C93.7664 517.025 94.749 516.35 95.449 515.419C96.1489 514.489 96.5279 513.353 96.5281 512.185V487.739C96.5281 487.294 96.473 486.851 96.3638 486.42C96.3341 486.301 96.3188 486.178 96.3182 486.055C96.3184 485.784 96.3916 485.519 96.5298 485.288C96.668 485.056 96.8661 484.867 97.1028 484.74L97.1051 484.738C98.0603 484.227 98.8397 483.437 99.3409 482.471C99.842 481.506 100.041 480.41 99.9129 479.328V479.328Z" fill="#F8D66D"/>
<path d="M108.156 419.497C105.382 423.145 101.921 426.206 97.9719 428.506C94.0228 430.807 89.6625 432.301 85.1399 432.904C80.6172 433.507 76.0209 433.206 71.6134 432.02C67.2058 430.834 63.0733 428.784 59.4517 425.989C55.8302 423.194 52.7906 419.708 50.5065 415.73C48.2223 411.752 46.7384 407.359 46.1394 402.804C45.5404 398.248 45.838 393.618 47.0153 389.179C48.1927 384.739 50.2266 380.577 53.001 376.929L108.156 419.497Z" fill="#F8D66D"/>
<path d="M58.2638 427.55C50.548 421.581 45.4975 412.773 44.2202 403.059C42.9429 393.345 45.5431 383.517 51.4504 375.732L54.5508 378.125C51.9324 381.568 50.0128 385.496 48.9017 389.686C47.7905 393.876 47.5096 398.246 48.075 402.545C48.6403 406.845 50.0408 410.99 52.1966 414.745C54.3523 418.499 57.221 421.789 60.639 424.427C64.0569 427.065 67.9572 428.999 72.117 430.119C76.2768 431.239 80.6147 431.522 84.8831 430.953C89.1515 430.384 93.2667 428.974 96.9938 426.803C100.721 424.632 103.987 421.742 106.605 418.3L109.706 420.693C103.781 428.464 95.0375 433.55 85.3936 434.836C75.7497 436.122 65.993 433.501 58.2638 427.55Z" fill="#3F3D56"/>
<path d="M161.443 403.46H149.944V415.042H161.443V403.46Z" fill="#3F3D56"/>
<path d="M274.138 408.672H181.568V409.831H274.138V408.672Z" fill="#3F3D56"/>
<path d="M161.443 490.647H149.944V502.229H161.443V490.647Z" fill="#3F3D56"/>
<path d="M274.138 495.858H181.568V497.017H274.138V495.858Z" fill="#3F3D56"/>
<path d="M416.699 267.054L392.373 286.366L340.827 268.12C340.827 268.12 323.302 248.265 313.391 263.053C309.997 268.118 332.228 277.475 334.326 278.344C339.569 280.518 389.797 308.273 394.719 304.631C399.641 300.99 427.334 282.573 427.334 282.573L416.699 267.054Z" fill="#A0616A"/>
<path d="M499.738 234.111C476.682 225.434 454.75 221.328 436.969 234.111V192.856C436.969 188.705 437.781 184.594 439.358 180.759C440.935 176.924 443.247 173.439 446.161 170.504C449.075 167.569 452.535 165.24 456.343 163.652C460.151 162.063 464.232 161.245 468.353 161.245H468.353C472.475 161.245 476.556 162.063 480.363 163.652C484.171 165.24 487.631 167.569 490.545 170.504C493.46 173.439 495.771 176.924 497.349 180.759C498.926 184.594 499.737 188.705 499.737 192.856L499.738 234.111Z" fill="#3F3D56"/>
<path d="M441.806 324.231L439.922 337.514C439.922 337.514 435.212 351.745 439.922 378.31L364.094 586.562L420.141 602.691L447.929 488.841L487.02 402.029L483.252 500.7L463.471 606.012L521.873 603.64L538.891 423.062C541.643 394.523 536.728 365.764 524.661 339.794C519.94 329.696 514.864 321.737 510.258 320.581C496.44 317.116 441.806 324.231 441.806 324.231Z" fill="#3F3D56"/>
<path d="M371.159 585.14L351.848 606.013C351.848 606.013 314.641 625.462 341.016 627.834C367.391 630.206 376.339 619.77 376.339 619.77C376.339 619.77 409.308 617.398 408.837 612.654C408.366 607.91 406.011 592.256 406.011 592.256L371.159 585.14Z" fill="#3F3D56"/>
<path d="M475.953 590.172V604.878C475.953 604.878 476.424 611.045 475.953 612.468C475.482 613.891 468.417 631.443 491.966 627.648C515.515 623.853 506.096 609.147 506.096 609.147L500.444 587.801L475.953 590.172Z" fill="#3F3D56"/>
<path d="M468.064 221.767C481.135 221.767 491.731 211.094 491.731 197.929C491.731 184.764 481.135 174.091 468.064 174.091C454.993 174.091 444.397 184.764 444.397 197.929C444.397 211.094 454.993 221.767 468.064 221.767Z" fill="#A0616A"/>
<path d="M484.431 211.092C484.431 211.092 481.134 242.401 484.431 248.094C487.728 253.786 450.991 242.401 450.991 242.401C450.991 242.401 458.998 221.054 456.172 212.515C453.346 203.976 484.431 211.092 484.431 211.092Z" fill="#A0616A"/>
<path d="M503.269 301.224L510.805 322.096L440.628 330.161C440.628 330.161 433.092 328.738 433.092 322.571C433.092 316.404 425.086 294.582 425.086 294.582C425.086 294.582 405.476 278.574 396.056 274.304C392.642 272.758 397.75 273.397 400.623 266.831C401.485 264.858 402.516 262.775 403.642 260.664C404.56 258.933 405.549 257.177 406.562 255.446C407.791 253.335 409.058 251.257 410.287 249.279C414.008 243.297 417.404 238.269 418.492 236.234C421.789 230.067 452.784 229.516 452.784 229.516C461.648 235.133 487.255 236.234 487.255 236.234C487.255 236.234 504.87 243.658 512.208 249.279C512.74 249.682 503.269 301.224 503.269 301.224Z" fill="#E6E6E6"/>
<path d="M488.034 169.313V168.747L487.366 168.784C483.572 165.874 479.169 163.872 474.492 162.931C469.815 161.989 464.987 162.133 460.373 163.351C464.796 164.528 468.908 166.668 472.42 169.62L449.735 170.89L440.16 192.321H446.64L451.862 182.677V192.321H473.778L475.268 184.82L479.405 192.321H483.711C483.737 192.855 483.779 193.386 483.779 193.928L479.523 235.183L499.737 226.61V193.928C499.74 189.204 498.691 184.54 496.665 180.28C494.64 176.019 491.69 172.271 488.034 169.313V169.313Z" fill="#3F3D56"/>
<path d="M519.754 278.454L518.341 315.93L514.573 388.51C514.573 388.51 519.754 419.819 506.566 419.345C493.379 418.87 503.269 382.343 503.269 382.343L499.502 324.943L503.269 284.621L519.754 278.454Z" fill="#A0616A"/>
<path d="M523.522 298.852C523.522 303.122 499.738 301.936 499.738 301.936L487.257 236.234C487.257 236.234 504.871 243.658 512.209 249.28C513.936 251.084 515.349 253.169 516.387 255.447C516.947 256.969 517.48 258.734 517.984 260.665C518.483 262.581 518.949 264.664 519.387 266.832C521.443 277.405 522.824 288.101 523.522 298.852V298.852Z" fill="#E6E6E6"/>
</svg>
