<svg width="31" height="30" viewBox="0 0 31 30" fill="none" xmlns="http://www.w3.org/2000/svg">
<g clip-path="url(#clip0)">
<path d="M22.34 17.9776C21.9688 17.7913 20.1425 16.8938 19.8025 16.7688C19.4613 16.6451 19.2138 16.5838 18.965 16.9563C18.7188 17.3276 18.0063 18.1638 17.79 18.4113C17.5738 18.6601 17.3563 18.6901 16.985 18.5051C16.6138 18.3176 15.4163 17.9263 13.9975 16.6613C12.8938 15.6763 12.1475 14.4601 11.9313 14.0876C11.715 13.7163 11.9088 13.5151 12.0938 13.3301C12.2613 13.1638 12.4663 12.8963 12.6513 12.6801C12.8375 12.4626 12.8988 12.3076 13.0238 12.0588C13.1475 11.8113 13.0863 11.5951 12.9925 11.4088C12.8988 11.2226 12.1563 9.3938 11.8475 8.65005C11.545 7.9263 11.2388 8.02505 11.0113 8.01255C10.7739 8.0031 10.5364 7.99893 10.2988 8.00005C10.0513 8.00005 9.64879 8.09255 9.30879 8.46505C8.96879 8.8363 8.00879 9.73505 8.00879 11.5638C8.00879 13.3913 9.34004 15.1576 9.52504 15.4063C9.71129 15.6538 12.145 19.4063 15.8713 21.0151C16.7575 21.3976 17.4488 21.6263 17.9888 21.7963C18.8788 22.08 19.6888 22.0401 20.3275 21.9438C21.0413 21.8376 22.525 21.045 22.835 20.1776C23.145 19.3101 23.145 18.5663 23.0513 18.4113C22.9588 18.2563 22.7113 18.1638 22.3388 17.9776H22.34ZM15.5625 27.2313H15.5575C13.3447 27.2315 11.1726 26.6365 9.26879 25.5088L8.81754 25.2413L4.14129 26.4688L5.38879 21.9088L5.09504 21.4413C3.85809 19.4716 3.20371 17.1922 3.20754 14.8663C3.20879 8.0538 8.75254 2.5113 15.5675 2.5113C18.8675 2.5113 21.97 3.7988 24.3025 6.1338C25.4534 7.27957 26.3656 8.64221 26.9863 10.1429C27.607 11.6435 27.924 13.2524 27.9188 14.8763C27.915 21.6888 22.3725 27.2313 15.5625 27.2313ZM26.0788 4.36005C24.7015 2.97371 23.0628 1.87447 21.2576 1.12605C19.4525 0.377631 17.5167 -0.00509531 15.5625 5.12219e-05C7.36879 5.12219e-05 0.700039 6.6688 0.696289 14.8651C0.696289 17.4851 1.38004 20.0425 2.68129 22.2963L0.571289 30L8.45254 27.9326C10.632 29.1199 13.0743 29.7422 15.5563 29.7425H15.5625C23.755 29.7425 30.425 23.0738 30.4288 14.8763C30.4348 12.9229 30.0535 10.9877 29.3068 9.18259C28.5602 7.37751 27.463 5.73839 26.0788 4.36005Z" fill="white"/>
</g>
<defs>
<clipPath id="clip0">
<rect width="30" height="30" fill="white" transform="translate(0.5)"/>
</clipPath>
</defs>
</svg>
