<?xml version="1.0" encoding="utf-8"?>
<!-- Generator: Adobe Illustrator 24.3.0, SVG Export Plug-In . SVG Version: 6.00 Build 0)  -->
<svg version="1.1" id="Layer_1" xmlns="http://www.w3.org/2000/svg" xmlns:xlink="http://www.w3.org/1999/xlink" x="0px" y="0px"
	 viewBox="0 0 665 616" style="enable-background:new 0 0 665 616;" xml:space="preserve">
<style type="text/css">
	.st0{fill:#DE8B5F;}
	.st1{opacity:0.4;enable-background:new    ;}
	.st2{fill:#BCDDE9;}
	.st3{opacity:0.1;enable-background:new    ;}
	.st4{fill:url(#SVGID_1_);}
	.st5{fill:url(#SVGID_2_);}
	.st6{fill:#FBBEBE;}
	.st7{fill:#3F3D56;}
	.st8{opacity:0.1;}
	.st9{fill:#FFFFFF;}
	.st10{fill:#F8D66D;}
	.st11{fill:#A8A8A8;}
	.st12{opacity:0.2;enable-background:new    ;}
	.st13{fill:none;stroke:#535461;stroke-width:2;stroke-miterlimit:10;}
</style>
<g>
	<g>
		<path class="st0" d="M357.3,616c88.7,0,160.6-5.5,160.6-12.3c0-6.8-71.9-12.3-160.6-12.3c-88.7,0-160.6,5.5-160.6,12.3
			C196.7,610.5,268.6,616,357.3,616z"/>
		<path class="st1" d="M357.3,616c88.7,0,160.6-5.5,160.6-12.3c0-6.8-71.9-12.3-160.6-12.3c-88.7,0-160.6,5.5-160.6,12.3
			C196.7,610.5,268.6,616,357.3,616z"/>
		<path class="st0" d="M205.4,59.9c22.5-20.1,58-24.2,90.2-22.6c101.3,5,192.7,53.9,271.7,109.1c28.6,20,56.8,41.5,75.4,69.1
			c37.8,56.1,26.6,133.7-26,179.9c-17.9,15.7-39.6,27.8-61.8,38.5c-39.6,19-82.3,34.2-127.3,38.6c-32,3.1-64.5,0.6-96.3-3.7
			c-89-12.1-176.4-38.7-249.6-84.4C49.5,364.2,19.2,339.4,6,307c-13.2-32.4-4.8-73.4,28-92.5c13.6-7.9,29.8-11.5,45.7-14.9
			c23.4-4.9,47.1-9.8,68.2-19.9c21.8-10.4,47.6-30.5,43.3-53.5C186.5,101.6,182.8,79.9,205.4,59.9z"/>
		<path class="st1" d="M205.4,59.9c22.5-20.1,58-24.2,90.2-22.6c101.3,5,192.7,53.9,271.7,109.1c28.6,20,56.8,41.5,75.4,69.1
			c37.8,56.1,26.6,133.7-26,179.9c-17.9,15.7-39.6,27.8-61.8,38.5c-39.6,19-82.3,34.2-127.3,38.6c-32,3.1-64.5,0.6-96.3-3.7
			c-89-12.1-176.4-38.7-249.6-84.4C49.5,364.2,19.2,339.4,6,307c-13.2-32.4-4.8-73.4,28-92.5c13.6-7.9,29.8-11.5,45.7-14.9
			c23.4-4.9,47.1-9.8,68.2-19.9c21.8-10.4,47.6-30.5,43.3-53.5C186.5,101.6,182.8,79.9,205.4,59.9z"/>
		<path class="st2" d="M428.7,52.9v0.5c0,0.1,0,0.3,0,0.4c0,0.1,0,0.3,0,0.5c0,0.4,0,0.7-0.1,1.1v0.2c0,0.3,0,0.6-0.1,0.9v0.3
			c0,0,0,0.1,0,0.1c0,0.3,0,0.6-0.1,0.8c0,0.3-0.1,0.5-0.1,0.7c-0.1,0.6-0.1,1.1-0.2,1.7c-0.1,0.4-0.1,0.7-0.2,1.1c0,0,0,0.1,0,0.1
			c0,0.2-0.1,0.4-0.1,0.6c0,0.2,0,0.2-0.1,0.3c0,0.1,0,0.2-0.1,0.3c-0.1,0.1-0.1,0.4-0.1,0.6c0,0.2-0.1,0.4-0.1,0.6
			c0,0.2-0.1,0.3-0.1,0.4c0,0.1-0.1,0.5-0.2,0.7c0,0,0,0,0,0l-0.1,0.5l-0.2,0.6c-0.1,0.2-0.1,0.5-0.2,0.7c0,0.1,0,0.1-0.1,0.2
			l-0.2,0.7c-0.2,0.8-0.5,1.5-0.7,2.3l-0.3,0.7l-0.2,0.4c-1.7,4.6-4.1,8.8-7.1,12.7c-0.2,0.2-0.4,0.5-0.5,0.7
			c-1.4,1.8-2.9,3.5-4.5,5.1l-74.3,74.2l-74.3-74.2c-2.1-2.1-4.1-4.4-5.8-6.9c-1.1-1.5-2.1-3.2-3-4.8c-5-9.1-7.2-19.5-6.3-29.8
			c0.1-1,0.2-1.9,0.3-2.8c0.2-1.7,0.6-3.3,0.9-5c0.1-0.3,0.2-0.7,0.3-1c0-0.2,0.1-0.3,0.1-0.5c0-0.2,0.1-0.2,0.1-0.3l0.2-0.7
			c0.2-0.6,0.3-1.1,0.5-1.7l0.3-0.8c0.4-1.1,0.8-2.2,1.3-3.3l0.3-0.6c0.1-0.3,0.3-0.7,0.4-1c0.2-0.5,0.5-1,0.7-1.6l0.1-0.1
			c0.1-0.2,0.2-0.5,0.4-0.7L256,27c0.2-0.3,0.4-0.7,0.6-1c0.1-0.2,0.2-0.3,0.3-0.5c0.1-0.2,0.1-0.2,0.2-0.3c0,0,0,0,0-0.1
			c0.1-0.2,0.2-0.4,0.4-0.6c0.1-0.2,0.3-0.4,0.4-0.6c0.3-0.5,0.6-0.9,0.9-1.4l0.3-0.5l0.4-0.6c0.1-0.2,0.3-0.4,0.5-0.6l0.6-0.7
			c0.2-0.2,0.3-0.4,0.5-0.6l0.2-0.2l0.4-0.4c0.2-0.2,0.4-0.5,0.6-0.7l0.3-0.3l0-0.1l0.4-0.5l0.5-0.5c0.5-0.5,0.9-1,1.5-1.5l0.6-0.6
			l0.9-0.8c0.2-0.2,0.4-0.4,0.6-0.5c0.2-0.2,0.5-0.4,0.7-0.6l0.5-0.4c0.2-0.1,0.3-0.3,0.5-0.4c0.3-0.3,0.6-0.5,0.9-0.7l0.5-0.4
			c0.8-0.6,1.6-1.2,2.4-1.8l0.5-0.3l0.5-0.3l0.5-0.3l0.7-0.4l0.3-0.2l0.5-0.3c0.7-0.4,1.4-0.8,2.1-1.1l0.4-0.2l0.6-0.3l0.5-0.3
			l0.5-0.2l0.5-0.3l0.5-0.2l0.5-0.2c0.7-0.3,1.5-0.6,2.2-0.9l0.5-0.3l0.6-0.2l0.5-0.2l0.4-0.1l1-0.3l0.5-0.2l0.4-0.1l0.4-0.1
			c0.2-0.1,0.5-0.1,0.7-0.2l1-0.2c1-0.2,2-0.5,3-0.6l0.4-0.1l0.6-0.1l0.6-0.1l0.7-0.1l0.4-0.1c1-0.1,1.9-0.2,2.9-0.3h0.5h0.3h0.4
			h0.4h0.1h0.5h0.6h2.3h0.6h0.5h0.2h0.4h0.1c0.2,0,0.5,0,0.7,0h0.1h0.4c0.8,0.1,1.5,0.1,2.3,0.2l1,0.1l0.7,0.1l0.6,0.1l0.6,0.1
			l0.4,0.1c1,0.2,2,0.4,3,0.6l1.2,0.3l0.3,0.1l0.5,0.1c0.3,0.1,0.7,0.2,1,0.3l0.4,0.1c0.7,0.2,1.5,0.5,2.2,0.7l0.5,0.2l0.6,0.2
			l1,0.4c0.4,0.2,0.7,0.3,1.1,0.5l0.4,0.2l0.6,0.3l0.5,0.2l0.5,0.3l0.7,0.3l0.5,0.3c0.4,0.2,0.8,0.4,1.2,0.7l0.5,0.3
			c0.6,0.3,1.2,0.7,1.8,1.1l0.5,0.3l0.5,0.3l0.5,0.3l0.3,0.2c0.7,0.5,1.4,1,2.1,1.5l0.5,0.4c0.3,0.2,0.6,0.5,0.9,0.7
			c0.2,0.1,0.3,0.3,0.5,0.4l0.5,0.4l0.7,0.6c0.2,0.2,0.4,0.4,0.6,0.5l0.8,0.9l0.6,0.6l0.6-0.6l0.9-0.8c0.2-0.2,0.4-0.4,0.6-0.5
			c0.2-0.2,0.5-0.4,0.7-0.6l0.5-0.4c0.2-0.1,0.3-0.3,0.5-0.4c0.3-0.3,0.6-0.5,0.9-0.7l0.5-0.4c0.8-0.6,1.6-1.2,2.4-1.8l0.5-0.3
			l0.5-0.3l0.5-0.3l0.7-0.4l0.3-0.2l0.5-0.3c0.7-0.4,1.4-0.8,2.1-1.1l0.4-0.2l0.6-0.3l0.5-0.3l0.5-0.2l0.5-0.3l0.5-0.2l0.5-0.2
			c0.7-0.3,1.5-0.6,2.2-0.9c0.2-0.1,0.4-0.1,0.5-0.2l0.6-0.2l0.5-0.2l0.4-0.1l1-0.3l0.5-0.2l0.4-0.1L362,2c0.2-0.1,0.5-0.1,0.7-0.2
			l1-0.2c1-0.2,2-0.5,3-0.6l0.4-0.1l0.6-0.1l0.6-0.1l0.7-0.1l0.4-0.1c1-0.1,1.9-0.2,2.9-0.3h0.5h0.3h0.4h0.4h0.1h0.5h0.6h2.3h0.6
			h0.5h0.2h0.4h0c0.2,0,0.5,0,0.7,0h0.1h0.4c0.8,0.1,1.5,0.1,2.3,0.2l1,0.1l0.7,0.1l0.6,0.1l0.6,0.1l0.4,0.1c1,0.2,2,0.4,3,0.6
			l1.2,0.3l0.3,0.1l0.5,0.1c0.3,0.1,0.7,0.2,1,0.3l0.4,0.1c0.7,0.2,1.5,0.5,2.2,0.7l0.5,0.2l0.6,0.2l1,0.4c0.4,0.2,0.7,0.3,1.1,0.5
			l0.4,0.2l0.6,0.3l0.5,0.2l0.5,0.3l0.7,0.3l0.5,0.3c0.4,0.2,0.8,0.4,1.2,0.7l0.5,0.3c0.6,0.3,1.2,0.7,1.8,1.1l0.5,0.3l0.5,0.3
			l0.5,0.3h0l0.3,0.2c0.7,0.5,1.4,1,2.1,1.5l0.5,0.4c0.3,0.2,0.6,0.5,0.9,0.7c0.2,0.1,0.3,0.3,0.5,0.4l0.5,0.4l0.6,0.5
			c0.2,0.2,0.4,0.4,0.6,0.6l0.3,0.3c0,0,0,0,0.1,0.1c0.2,0.2,0.4,0.4,0.6,0.5l0.3,0.3c0.1,0.1,0.2,0.2,0.3,0.3L414,16
			c0.3,0.3,0.6,0.6,0.9,0.9c0.2,0.2,0.3,0.4,0.5,0.5c0.3,0.3,0.5,0.6,0.8,0.9l0.9,1c1,1.2,1.9,2.4,2.8,3.7l0.3,0.5
			c0.1,0.2,0.2,0.4,0.4,0.6l0.3,0.5c0.2,0.3,0.3,0.6,0.5,0.8l0.5,0.8c0.1,0.2,0.2,0.3,0.3,0.5l0.2,0.4l0.2,0.4l0.3,0.6l0.3,0.6
			c0.7,1.3,1.3,2.7,1.9,4.1l0.2,0.6c0.2,0.6,0.4,1.1,0.6,1.7l0.2,0.5c0.1,0.2,0.2,0.5,0.2,0.7c0.1,0.2,0.1,0.4,0.2,0.7l0.1,0.4
			c0.1,0.2,0.1,0.4,0.2,0.6c0.1,0.2,0.1,0.5,0.2,0.7c0.1,0.4,0.2,0.8,0.3,1.2l0.2,0.6c0.1,0.3,0.1,0.6,0.2,0.9
			c0,0.1,0.1,0.3,0.1,0.4c0,0.1,0.1,0.3,0.1,0.5c0,0.2,0.1,0.3,0.1,0.4l0.1,0.3c0,0.1,0,0.2,0.1,0.3c0.1,0.1,0,0.2,0.1,0.3l0.1,0.7
			c0,0.2,0.1,0.4,0.1,0.7c0,0.2,0.1,0.5,0.1,0.7c0,0.2,0.1,0.5,0.1,0.7l0,0.4c0,0.2,0.1,0.5,0.1,0.7c0,0.1,0,0.2,0,0.4
			c0,0.2,0,0.5,0.1,0.7c0,0,0,0,0,0.1c0,0.2,0,0.3,0,0.5v0.5c0,0.3,0,0.5,0,0.8c0,0.3,0,0.5,0,0.8C428.8,51.9,428.8,52.4,428.7,52.9
			z"/>
		<path class="st3" d="M428.7,52.9v0.5c0,0.1,0,0.3,0,0.4c0,0.1,0,0.3,0,0.5c0,0.4,0,0.7-0.1,1.1v0.2c0,0.3,0,0.6-0.1,0.9v0.3
			c0,0,0,0.1,0,0.1c0,0.3,0,0.6-0.1,0.8c0,0.3-0.1,0.5-0.1,0.7c-0.1,0.6-0.1,1.1-0.2,1.7c-0.1,0.4-0.1,0.7-0.2,1.1c0,0,0,0.1,0,0.1
			c0,0.2-0.1,0.4-0.1,0.6c0,0.2,0,0.2-0.1,0.3c0,0.1,0,0.2-0.1,0.3c-0.1,0.1-0.1,0.4-0.1,0.6c0,0.2-0.1,0.4-0.1,0.6
			c0,0.2-0.1,0.3-0.1,0.4c0,0.1-0.1,0.5-0.2,0.7c0,0,0,0,0,0l-0.1,0.5l-0.2,0.6c-0.1,0.2-0.1,0.5-0.2,0.7c0,0.1,0,0.1-0.1,0.2
			l-0.2,0.7c-0.2,0.8-0.5,1.5-0.7,2.3l-0.3,0.7l-0.2,0.4c2.6-10.6,1.7-21.8-2.4-32c-4.1-10.1-11.3-18.8-20.5-24.6
			c-0.9-0.6-1.9-1.2-2.9-1.7c-10-5.5-21.5-7.6-32.8-6c-11.3,1.6-21.7,6.9-29.8,14.9c-2-2-4.1-3.8-6.4-5.4l0,0
			c-1.7-1.3-3.6-2.4-5.4-3.4c-7.8-4.2-16.4-6.5-25.3-6.5s-17.5,2.2-25.3,6.5c-2.6,1.4-5.1,3.1-7.5,5c-3.9,3.1-7.3,6.7-10.2,10.7
			c-1,1.5-2,3-2.9,4.5c0,0,0,0,0,0.1c-0.8,1.5-1.6,3-2.2,4.5c-0.4,0.8-0.7,1.7-1.1,2.6c0.1-0.3,0.2-0.7,0.3-1c0-0.2,0.1-0.3,0.1-0.5
			c0-0.2,0.1-0.2,0.1-0.3l0.2-0.7c0.2-0.6,0.3-1.1,0.5-1.7l0.3-0.8c0.4-1.1,0.8-2.2,1.3-3.3l0.3-0.6c0.1-0.3,0.3-0.7,0.4-1
			c0.2-0.5,0.5-1,0.7-1.6l0.1-0.1c0.1-0.2,0.2-0.5,0.4-0.7L256,27c0.2-0.3,0.4-0.7,0.6-1c0.1-0.2,0.2-0.3,0.3-0.5
			c0.1-0.2,0.1-0.2,0.2-0.3c0,0,0,0,0-0.1c0.1-0.2,0.2-0.4,0.4-0.6c0.1-0.2,0.3-0.4,0.4-0.6c0.3-0.5,0.6-0.9,0.9-1.4l0.3-0.5
			l0.4-0.6c0.1-0.2,0.3-0.4,0.5-0.6l0.6-0.7c0.2-0.2,0.3-0.4,0.5-0.6l0.2-0.2l0.4-0.4c0.2-0.2,0.4-0.5,0.6-0.7l0.3-0.3l0-0.1
			l0.4-0.5l0.5-0.5c0.5-0.5,0.9-1,1.5-1.5l0.6-0.6l0.9-0.8c0.2-0.2,0.4-0.4,0.6-0.5c0.2-0.2,0.5-0.4,0.7-0.6l0.5-0.4
			c0.2-0.1,0.3-0.3,0.5-0.4c0.3-0.3,0.6-0.5,0.9-0.7l0.5-0.4c0.8-0.6,1.6-1.2,2.4-1.8l0.5-0.3l0.5-0.3l0.5-0.3l0.7-0.4l0.3-0.2
			l0.5-0.3c0.7-0.4,1.4-0.8,2.1-1.1l0.4-0.2l0.6-0.3l0.5-0.3l0.5-0.2l0.5-0.3l0.5-0.2l0.5-0.2c0.7-0.3,1.5-0.6,2.2-0.9l0.5-0.3
			l0.6-0.2l0.5-0.2l0.4-0.1l1-0.3l0.5-0.2l0.4-0.1l0.4-0.1c0.2-0.1,0.5-0.1,0.7-0.2l1-0.2c1-0.2,2-0.5,3-0.6l0.4-0.1l0.6-0.1
			l0.6-0.1l0.7-0.1l0.4-0.1c1-0.1,1.9-0.2,2.9-0.3h0.5h0.3h0.4h0.4h0.1h0.5h0.6h2.3h0.6h0.5h0.2h0.4h0.1c0.2,0,0.5,0,0.7,0h0.1h0.4
			c0.8,0.1,1.5,0.1,2.3,0.2l1,0.1l0.7,0.1l0.6,0.1l0.6,0.1l0.4,0.1c1,0.2,2,0.4,3,0.6l1.2,0.3l0.3,0.1l0.5,0.1
			c0.3,0.1,0.7,0.2,1,0.3l0.4,0.1c0.7,0.2,1.5,0.5,2.2,0.7l0.5,0.2l0.6,0.2l1,0.4c0.4,0.2,0.7,0.3,1.1,0.5l0.4,0.2l0.6,0.3l0.5,0.2
			l0.5,0.3l0.7,0.3l0.5,0.3c0.4,0.2,0.8,0.4,1.2,0.7l0.5,0.3c0.6,0.3,1.2,0.7,1.8,1.1l0.5,0.3l0.5,0.3l0.5,0.3l0.3,0.2
			c0.7,0.5,1.4,1,2.1,1.5l0.5,0.4c0.3,0.2,0.6,0.5,0.9,0.7c0.2,0.1,0.3,0.3,0.5,0.4l0.5,0.4l0.7,0.6c0.2,0.2,0.4,0.4,0.6,0.5
			l0.8,0.9l0.6,0.6l0.6-0.6l0.9-0.8c0.2-0.2,0.4-0.4,0.6-0.5c0.2-0.2,0.5-0.4,0.7-0.6l0.5-0.4c0.2-0.1,0.3-0.3,0.5-0.4
			c0.3-0.3,0.6-0.5,0.9-0.7l0.5-0.4c0.8-0.6,1.6-1.2,2.4-1.8l0.5-0.3l0.5-0.3l0.5-0.3l0.7-0.4l0.3-0.2l0.5-0.3
			c0.7-0.4,1.4-0.8,2.1-1.1l0.4-0.2l0.6-0.3l0.5-0.3l0.5-0.2l0.5-0.3l0.5-0.2l0.5-0.2c0.7-0.3,1.5-0.6,2.2-0.9
			c0.2-0.1,0.4-0.1,0.5-0.2l0.6-0.2l0.5-0.2l0.4-0.1l1-0.3l0.5-0.2l0.4-0.1L362,2c0.2-0.1,0.5-0.1,0.7-0.2l1-0.2c1-0.2,2-0.5,3-0.6
			l0.4-0.1l0.6-0.1l0.6-0.1l0.7-0.1l0.4-0.1c1-0.1,1.9-0.2,2.9-0.3h0.5h0.3h0.4h0.4h0.1h0.5h0.6h2.3h0.6h0.5h0.2h0.4h0
			c0.2,0,0.5,0,0.7,0h0.1h0.4c0.8,0.1,1.5,0.1,2.3,0.2l1,0.1l0.7,0.1l0.6,0.1l0.6,0.1l0.4,0.1c1,0.2,2,0.4,3,0.6l1.2,0.3l0.3,0.1
			l0.5,0.1c0.3,0.1,0.7,0.2,1,0.3l0.4,0.1c0.7,0.2,1.5,0.5,2.2,0.7l0.5,0.2l0.6,0.2l1,0.4c0.4,0.2,0.7,0.3,1.1,0.5l0.4,0.2l0.6,0.3
			l0.5,0.2l0.5,0.3l0.7,0.3l0.5,0.3c0.4,0.2,0.8,0.4,1.2,0.7l0.5,0.3c0.6,0.3,1.2,0.7,1.8,1.1l0.5,0.3l0.5,0.3l0.5,0.3h0l0.3,0.2
			c0.7,0.5,1.4,1,2.1,1.5l0.5,0.4c0.3,0.2,0.6,0.5,0.9,0.7c0.2,0.1,0.3,0.3,0.5,0.4l0.5,0.4l0.6,0.5c0.2,0.2,0.4,0.4,0.6,0.6
			l0.3,0.3c0,0,0,0,0.1,0.1c0.2,0.2,0.4,0.4,0.6,0.5l0.3,0.3c0.1,0.1,0.2,0.2,0.3,0.3L414,16c0.3,0.3,0.6,0.6,0.9,0.9
			c0.2,0.2,0.3,0.4,0.5,0.5c0.3,0.3,0.5,0.6,0.8,0.9l0.9,1c1,1.2,1.9,2.4,2.8,3.7l0.3,0.5c0.1,0.2,0.2,0.4,0.4,0.6l0.3,0.5
			c0.2,0.3,0.3,0.6,0.5,0.8l0.5,0.8c0.1,0.2,0.2,0.3,0.3,0.5l0.2,0.4l0.2,0.4l0.3,0.6l0.3,0.6c0.7,1.3,1.3,2.7,1.9,4.1l0.2,0.6
			c0.2,0.6,0.4,1.1,0.6,1.7l0.2,0.5c0.1,0.2,0.2,0.5,0.2,0.7c0.1,0.2,0.1,0.4,0.2,0.7l0.1,0.4c0.1,0.2,0.1,0.4,0.2,0.6
			c0.1,0.2,0.1,0.5,0.2,0.7c0.1,0.4,0.2,0.8,0.3,1.2l0.2,0.6c0.1,0.3,0.1,0.6,0.2,0.9c0,0.1,0,0.3,0.1,0.4c0,0.1,0.1,0.3,0.1,0.5
			c0,0.2,0.1,0.3,0.1,0.4l0.1,0.3c0,0.1,0,0.2,0.1,0.3c0.1,0.1,0,0.2,0.1,0.3l0.1,0.7c0,0.2,0.1,0.4,0.1,0.7c0,0.2,0.1,0.5,0.1,0.7
			c0,0.2,0.1,0.5,0.1,0.7l0,0.4c0,0.2,0.1,0.5,0.1,0.7c0,0.1,0,0.2,0,0.4c0,0.2,0,0.5,0.1,0.7c0,0,0,0,0,0.1c0,0.2,0,0.3,0,0.5v0.5
			c0,0.3,0,0.5,0,0.8c0,0.3,0,0.5,0,0.8C428.8,51.9,428.8,52.4,428.7,52.9z"/>
		<path class="st2" d="M550.3,214.7v0.3c0,0,0,0.1,0,0.1c0,0,0,0.2,0,0.3v0.1v0.3v0.1c0,0,0,0,0,0v0.3v0.2l-0.1,0.5
			c0,0.1,0,0.2,0,0.3c0,0.1,0,0.1,0,0.2v0.1c0,0,0,0.1,0,0.1c0,0.1,0,0.1,0,0.2c0,0.1,0,0.1,0,0.2c0,0,0,0.1,0,0.1
			c0,0,0,0.2-0.1,0.2l0,0.2l0,0.2l-0.1,0.2c0,0,0,0,0,0.1c0,0,0,0.2-0.1,0.2c-0.1,0.2-0.1,0.5-0.2,0.7c0,0.1-0.1,0.2-0.1,0.2
			c0,0,0,0.1-0.1,0.1c-0.5,1.4-1.2,2.7-2.1,3.9l-0.2,0.2c-0.4,0.5-0.9,1.1-1.4,1.5l-22.9,22.7l-22.7-22.6c-0.7-0.6-1.2-1.4-1.8-2.1
			c-0.3-0.5-0.6-1-0.9-1.5c-1.5-2.8-2.2-5.9-1.9-9.1c0-0.3,0.1-0.6,0.1-0.9c0.1-0.5,0.2-1,0.3-1.5c0-0.1,0-0.2,0.1-0.3l0-0.2v-0.1
			l0.1-0.2c0.1-0.2,0.1-0.3,0.2-0.5c0.1-0.2,0.1-0.2,0.1-0.2c0.1-0.3,0.2-0.7,0.4-1l0.1-0.2l0.1-0.3c0.1-0.2,0.2-0.3,0.2-0.5v0
			l0.1-0.2l0.1-0.2c0.1-0.1,0.1-0.2,0.2-0.3l0.1-0.1l0-0.1c0-0.1,0.1-0.1,0.1-0.2c0-0.1,0.1-0.1,0.1-0.2c0-0.1,0.2-0.3,0.3-0.4
			l0.1-0.2l0.1-0.2l0.1-0.2l0.2-0.2l0.2-0.2l0.1-0.1l0.1-0.1l0.2-0.2l0.1-0.1l0.1-0.2c0-0.1,0.1-0.1,0.2-0.2c0-0.1,0.3-0.3,0.4-0.5
			l0.2-0.2l0.3-0.3l0.2-0.2l0.2-0.2l0.1-0.1l0.1-0.1l0.3-0.2l0.2-0.1c0.2-0.2,0.5-0.4,0.7-0.5l0.2-0.1l0.1-0.1l0.1-0.1l0.2-0.1
			l0.1-0.1l0.2-0.1c0.2-0.1,0.4-0.2,0.6-0.3l0.1-0.1l0.2-0.1l0.2-0.1l0.2-0.1l0.2-0.1l0.2-0.1l0.2-0.1l0.7-0.3l0.2-0.1l0.2-0.1
			l0.2-0.1l0.1,0l0.3-0.1l0.2-0.1l0.1,0l0.1,0l0.2-0.1l0.3-0.1c0.3-0.1,0.6-0.1,0.9-0.2h0.1h0.2h0.2h0.2h0.1c0.3,0,0.6-0.1,0.9-0.1
			h2.1h0.2h0.2l0.7,0.1l0.3,0h0.2h0.2h0.2h0.1c0.3,0.1,0.6,0.1,0.9,0.2l0.4,0.1h0.1l0.2,0l0.3,0.1l0.1,0c0.2,0.1,0.4,0.1,0.7,0.2
			l0.2,0.1l0.2,0.1l0.3,0.1l0.3,0.1l0.1,0.1l0.2,0.1l0.2,0.1l0.2,0.1l0.2,0.1l0.2,0.1l0.4,0.2l0.2,0.1c0.2,0.1,0.4,0.2,0.5,0.3
			l0.1,0.1l0.2,0.1l0.2,0.1l0.1,0.1l0.6,0.5c0,0,0.1,0.1,0.1,0.1l0.3,0.2l0.1,0.1l0.1,0.1l0.2,0.2l0.2,0.2l0.3,0.3
			c0.1,0.1,0.1,0.1,0.2,0.2c0.1-0.1,0.1-0.1,0.2-0.2l0.3-0.3l0.2-0.2l0.2-0.2l0.1-0.1l0.1-0.1l0.3-0.2c0.1,0,0.1-0.1,0.1-0.1
			l0.7-0.5l0.2-0.1l0.2-0.1l0.1-0.1l0.2-0.1l0.1-0.1l0.2-0.1c0.2-0.1,0.4-0.2,0.6-0.3l0.1-0.1l0.2-0.1l0.2-0.1l0.2-0.1l0.2-0.1
			l0.2-0.1l0.2-0.1l0.7-0.3l0.2-0.1l0.2-0.1l0.2-0.1l0.1,0l0.3-0.1l0.2-0.1l0.1,0l0.1,0l0.2-0.1l0.3-0.1c0.3-0.1,0.6-0.1,0.9-0.2
			h0.1h0.2h0.2h0.2h0.1c0.3,0,0.6-0.1,0.9-0.1h2.1h0.2h0.1l0.7,0.1c0.1,0,0.2,0,0.3,0h0.2h0.2h0.2h0.1c0.3,0.1,0.6,0.1,0.9,0.2
			l0.4,0.1h0.1l0.2,0l0.3,0.1l0.1,0c0.2,0.1,0.4,0.1,0.7,0.2l0.1,0.1l0.2,0.1l0.3,0.1l0.3,0.1l0.1,0.1l0.2,0.1l0.2,0.1l0.2,0.1
			l0.2,0.1l0.2,0.1l0.4,0.2l0.2,0.1c0.2,0.1,0.4,0.2,0.5,0.3l0.1,0.1l0.1,0.1l0.2,0.1l0.1,0.1c0.2,0.1,0.4,0.3,0.6,0.5l0.2,0.1
			l0.3,0.2l0.1,0.1l0.1,0.1l0.2,0.2l0.2,0.2l0.1,0.1l0.2,0.2l0.1,0.1l0.1,0.1l0.2,0.2l0.3,0.3c0,0.1,0.1,0.1,0.1,0.2l0.3,0.3
			l0.3,0.3c0.3,0.4,0.6,0.7,0.8,1.1l0.1,0.2l0.1,0.2l0.1,0.1l0.2,0.3l0.1,0.2l0.1,0.2l0.1,0.1l0.1,0.1c0,0.1,0.1,0.1,0.1,0.2
			l0.1,0.2c0.2,0.4,0.4,0.8,0.6,1.2c0,0.1,0.1,0.1,0.1,0.2l0.2,0.5c0,0.1,0,0.1,0.1,0.2c0.1,0.1,0.1,0.1,0.1,0.2
			c0,0.1,0,0.1,0.1,0.2l0,0.1c0,0.1,0,0.1,0.1,0.2l0.1,0.2c0,0.1,0.1,0.2,0.1,0.4c0,0.1,0,0.1,0.1,0.2c0,0.1,0,0.2,0.1,0.3
			c0,0.1,0,0.1,0,0.1c0,0,0,0.1,0,0.2v0.1v0.1v0.1v0.1c0,0.1,0,0.1,0,0.2c0,0.1,0,0.1,0,0.2c0,0.1,0,0.2,0,0.2c0,0.1,0,0.1,0,0.2
			v0.1v0.2c0,0,0,0.1,0,0.1c0,0,0,0.1,0,0.2c0,0,0,0.1,0,0.1c0,0,0,0.1,0,0.1c0,0.1,0,0.2,0,0.2c0,0.1,0,0.2,0,0.2
			C549.9,214.3,550.3,214.5,550.3,214.7z"/>
		<path class="st3" d="M550.3,214.7v0.3c0,0,0,0.1,0,0.1c0,0,0,0.2,0,0.3v0.1v0.3v0.1c0,0,0,0,0,0v0.3v0.2l-0.1,0.5
			c0,0.1,0,0.2,0,0.3c0,0.1,0,0.1,0,0.2v0.1c0,0,0,0.1,0,0.1c0,0.1,0,0.1,0,0.2c0,0.1,0,0.1,0,0.2c0,0,0,0.1,0,0.1
			c0,0,0,0.2-0.1,0.2l0,0.2l0,0.2l-0.1,0.2c0,0,0,0,0,0.1c0,0,0,0.2-0.1,0.2c-0.1,0.2-0.1,0.5-0.2,0.7c0,0.1-0.1,0.2-0.1,0.2
			c0,0,0,0.1-0.1,0.1c0.3-1.3,0.5-2.6,0.4-3.9c0-2.7-0.7-5.3-2-7.6c-1.3-2.3-3.2-4.3-5.4-5.8c-0.3-0.2-0.6-0.4-0.9-0.5
			c-2.4-1.3-5-2-7.7-2c-2.7,0-5.3,0.7-7.7,2c-0.5,0.3-1,0.6-1.5,0.9c-0.7,0.5-1.4,1.1-2.1,1.8c-0.6-0.6-1.3-1.2-2-1.7l0,0
			c-0.5-0.4-1.1-0.7-1.7-1.1c-2.8-1.5-5.9-2.2-9.1-1.9c-3.2,0.3-6.2,1.5-8.6,3.5c-0.5,0.4-0.9,0.8-1.3,1.2c-0.6,0.6-1.2,1.3-1.8,2.1
			c-0.3,0.4-0.6,0.9-0.9,1.4c-0.3,0.4-0.5,0.9-0.7,1.4c-0.1,0.3-0.2,0.5-0.3,0.8c0-0.1,0-0.2,0.1-0.3l0-0.2v-0.1l0.1-0.2
			c0.1-0.2,0.1-0.3,0.2-0.5c0.1-0.2,0.1-0.2,0.1-0.2c0.1-0.3,0.2-0.7,0.4-1l0.1-0.2l0.1-0.3c0.1-0.2,0.2-0.3,0.2-0.5v0l0.1-0.2
			l0.1-0.2c0.1-0.1,0.1-0.2,0.2-0.3l0.1-0.1l0-0.1c0-0.1,0.1-0.1,0.1-0.2c0-0.1,0.1-0.1,0.1-0.2c0-0.1,0.2-0.3,0.3-0.4l0.1-0.2
			l0.1-0.2l0.1-0.2l0.2-0.2l0.2-0.2l0.1-0.1l0.1-0.1l0.2-0.2l0.1-0.1l0.1-0.2c0-0.1,0.1-0.1,0.2-0.2s0.3-0.3,0.4-0.5l0.2-0.2
			l0.3-0.3l0.2-0.2l0.2-0.2l0.1-0.1l0.1-0.1l0.3-0.2l0.2-0.1c0.2-0.2,0.5-0.4,0.7-0.5l0.2-0.1l0.1-0.1l0.1-0.1l0.2-0.1l0.1-0.1
			l0.2-0.1c0.2-0.1,0.4-0.2,0.6-0.3l0.1-0.1l0.2-0.1l0.2-0.1l0.2-0.1l0.2-0.1l0.2-0.1l0.2-0.1l0.7-0.3l0.2-0.1l0.2-0.1l0.2-0.1
			l0.1,0l0.3-0.1l0.2-0.1l0.1,0l0.1,0l0.2-0.1l0.3-0.1c0.3-0.1,0.6-0.1,0.9-0.2h0.1h0.2h0.2h0.2h0.1c0.3,0,0.6-0.1,0.9-0.1h2.1h0.2
			h0.2l0.7,0.1l0.3,0h0.2h0.2h0.2h0.1c0.3,0.1,0.6,0.1,0.9,0.2l0.4,0.1h0.1l0.2,0l0.3,0.1l0.1,0c0.2,0.1,0.4,0.1,0.7,0.2l0.2,0.1
			l0.2,0.1l0.3,0.1l0.3,0.1l0.1,0.1l0.2,0.1l0.2,0.1l0.2,0.1l0.2,0.1l0.2,0.1l0.4,0.2l0.2,0.1c0.2,0.1,0.4,0.2,0.5,0.3l0.1,0.1
			l0.2,0.1l0.2,0.1l0.1,0.1l0.6,0.5c0,0,0.1,0.1,0.1,0.1l0.3,0.2l0.1,0.1l0.1,0.1l0.2,0.2l0.2,0.2l0.3,0.3c0.1,0.1,0.1,0.1,0.2,0.2
			c0.1-0.1,0.1-0.1,0.2-0.2l0.3-0.3l0.2-0.2l0.2-0.2l0.1-0.1l0.1-0.1l0.3-0.2c0.1,0,0.1-0.1,0.1-0.1l0.7-0.5l0.2-0.1l0.2-0.1
			l0.1-0.1l0.2-0.1l0.1-0.1l0.2-0.1c0.2-0.1,0.4-0.2,0.6-0.3l0.1-0.1l0.2-0.1l0.2-0.1l0.2-0.1l0.2-0.1l0.2-0.1l0.2-0.1l0.7-0.3
			l0.2-0.1l0.2-0.1l0.2-0.1l0.1,0l0.3-0.1l0.2-0.1l0.1,0l0.1,0l0.2-0.1l0.3-0.1c0.3-0.1,0.6-0.1,0.9-0.2h0.1h0.2h0.2h0.2h0.1
			c0.3,0,0.6-0.1,0.9-0.1h2.1h0.2h0.1l0.7,0.1c0.1,0,0.2,0,0.3,0h0.2h0.2h0.2h0.1c0.3,0.1,0.6,0.1,0.9,0.2l0.4,0.1h0.1l0.2,0
			l0.3,0.1l0.1,0c0.2,0.1,0.4,0.1,0.7,0.2l0.1,0.1l0.2,0.1l0.3,0.1l0.3,0.1l0.1,0.1l0.2,0.1l0.2,0.1l0.2,0.1l0.2,0.1l0.2,0.1
			l0.4,0.2l0.2,0.1c0.2,0.1,0.4,0.2,0.5,0.3l0.1,0.1l0.1,0.1l0.2,0.1l0.1,0.1c0.2,0.1,0.4,0.3,0.6,0.5l0.2,0.1l0.3,0.2l0.1,0.1
			l0.1,0.1l0.2,0.2l0.2,0.2l0.1,0.1l0.2,0.2l0.1,0.1l0.1,0.1l0.2,0.2l0.3,0.3c0.1,0.1,0.1,0.1,0.1,0.2l0.3,0.3l0.3,0.3
			c0.3,0.4,0.6,0.7,0.8,1.1l0.1,0.2l0.1,0.2l0.1,0.1l0.2,0.3l0.1,0.2l0.1,0.2l0.1,0.1l0.1,0.1c0,0.1,0.1,0.1,0.1,0.2l0.1,0.2
			c0.2,0.4,0.4,0.8,0.6,1.2c0,0.1,0.1,0.1,0.1,0.2l0.2,0.5c0,0.1,0,0.1,0.1,0.2c0.1,0.1,0.1,0.1,0.1,0.2c0,0.1,0,0.1,0.1,0.2l0,0.1
			c0,0.1,0,0.1,0.1,0.2l0.1,0.2c0,0.1,0.1,0.2,0.1,0.4c0,0.1,0,0.1,0.1,0.2c0,0.1,0,0.2,0.1,0.3c0,0.1,0,0.1,0,0.1s0,0.1,0,0.2v0.1
			v0.1v0.1v0.1c0,0.1,0,0.1,0,0.2c0,0.1,0,0.1,0,0.2s0,0.2,0,0.2c0,0.1,0,0.1,0,0.2v0.1v0.2c0,0,0,0.1,0,0.1c0,0,0,0.1,0,0.2
			c0,0,0,0.1,0,0.1c0,0,0,0.1,0,0.1c0,0.1,0,0.2,0,0.2s0,0.2,0,0.2C550.1,214.2,550.3,214.5,550.3,214.7z"/>
		<path class="st2" d="M445.2,184.6v0.1c0,0,0,0.1,0,0.1v0.1c0,0.1,0,0.2,0,0.3v0.1v0.3v0.1v0.3c0,0.1,0,0.1,0,0.2
			c0,0.2,0,0.3-0.1,0.5c-0.1,0.2,0,0.2-0.1,0.3c0,0.1,0,0.1,0,0.2c0,0,0,0.1,0,0.1v0.1c0,0.1,0,0.1,0,0.2l0,0.2c0,0,0,0.1,0,0.1
			c0,0.1,0,0.2-0.1,0.2l0,0c0,0.1,0,0.1,0,0.2c0,0.1,0,0.1-0.1,0.2l-0.1,0.2c0,0,0,0,0,0.1l-0.1,0.2c-0.1,0.2-0.1,0.5-0.2,0.7
			c0,0.1-0.1,0.1-0.1,0.2l0,0.1c-0.5,1.4-1.2,2.7-2.1,3.9l-0.2,0.2c-0.4,0.5-0.9,1.1-1.4,1.6l-22.7,22.6l-22.7-22.6
			c-0.7-0.7-1.2-1.4-1.8-2.1c-0.3-0.5-0.6-1-0.9-1.5c-1.5-2.8-2.2-5.9-1.9-9.1c0-0.3,0.1-0.6,0.1-0.9c0.1-0.5,0.2-1,0.3-1.5
			c0-0.1,0.1-0.2,0.1-0.3c0-0.1,0-0.1,0-0.2c0,0,0-0.1,0-0.1l0.1-0.2c0.1-0.2,0.1-0.3,0.2-0.5l0.1-0.2c0.1-0.3,0.2-0.7,0.4-1
			l0.1-0.2c0-0.1,0.1-0.2,0.1-0.3c0.1-0.1,0.2-0.3,0.2-0.5v0l0.1-0.2l0.1-0.2l0.2-0.3c0,0,0.1-0.1,0.1-0.1l0.1-0.1l0.1-0.2
			c0-0.1,0.1-0.1,0.1-0.2l0.3-0.4l0.1-0.1l0.1-0.2l0.1-0.2l0.2-0.2c0-0.1,0.1-0.1,0.2-0.2c0,0,0,0,0.1-0.1l0.1-0.1l0.2-0.2l0.1-0.1
			l0.1-0.2l0.2-0.2l0.4-0.4l0.2-0.2l0.3-0.3c0.1-0.1,0.1-0.1,0.2-0.2l0.2-0.2l0.1-0.1l0.1-0.1l0.3-0.2l0.1-0.1
			c0.2-0.2,0.5-0.4,0.7-0.5l0.2-0.1l0.2-0.1l0.1-0.1l0.2-0.1l0.1-0.1l0.2-0.1c0.2-0.1,0.4-0.2,0.6-0.3l0.1-0.1l0-0.2l0.2-0.1
			l0.2-0.1l0.2-0.1l0.2-0.1l0.2-0.1l0.7-0.3l0.2-0.1l0.2-0.1l0.2-0.1l0.1,0l0.3-0.1l0.2,0l0.1,0l0.1,0l0.2-0.1l0.3-0.1l0.9-0.2h0.1
			h0.2h0.2h0.2h0.1c0.3,0,0.6-0.1,0.9-0.1h0.2h2.3c0.2,0,0.5,0,0.7,0.1l0.3,0h0.2h0.2h0.2h0.1c0.3,0.1,0.6,0.1,0.9,0.2l0.4,0.1h0.1
			c0.1,0,0.1,0,0.2,0l0.3,0.1l0.1,0l0.7,0.2l0.2,0.1l0.2,0.1l0.3,0.1l0.3,0.1l0.1,0.1l0.2,0.1l0.2,0.1l0.2,0.1l0.2,0.1l0.2,0.1
			l0.4,0.2l0.2,0.1l0.5,0.3l0.1,0.1l0.2,0.1l0.2,0.1l0.1,0.1c0.2,0.2,0.4,0.3,0.6,0.5c0.1,0,0.1,0.1,0.1,0.1
			c0.1,0.1,0.2,0.2,0.3,0.2l0.1,0.1l0.1,0.1l0.2,0.2c0.1,0.1,0.1,0.1,0.2,0.2l0.3,0.3l0.2,0.2l0.2-0.2l0.3-0.3l0.2-0.2l0.2-0.2
			l0.1-0.1l0.1-0.1c0.1-0.1,0.2-0.2,0.3-0.2c0,0,0.1-0.1,0.1-0.1c0.2-0.2,0.5-0.4,0.7-0.5l0.2-0.1l0.2-0.1l0.1-0.1l0.2-0.1l0.1-0.1
			l0.2-0.1c0.2-0.1,0.4-0.2,0.6-0.3l0.1-0.1l0.2-0.1l0.2-0.1l0.2-0.1l0.2-0.1l0.2-0.1l0.2-0.1l0.7-0.3l0.2-0.1l0.2-0.1l0.2-0.1
			l0.1,0l0.3-0.1l0.2,0l0.1,0l0.1,0l0.2-0.1l0.3-0.1c0.3-0.1,0.6-0.1,0.9-0.2h0.1h0.2h0.2h0.2h0.1c0.3,0,0.6-0.1,0.9-0.1h0.2h2.3
			l0.7,0.1l0.3,0h0.2h0.2h0.2h0.1c0.3,0.1,0.6,0.1,0.9,0.2l0.4,0.1h0.1c0.1,0,0.1,0,0.2,0l0.3,0.1l0.1,0l0.7,0.2l0.2,0.1l0.2,0.1
			l0.3,0.1l0.3,0.1l0.1,0.1l0.2,0.1l0.2,0.1l0.2,0.1l0.2,0.1l0.2,0.1l0.4,0.2l0.2,0.1l0.5,0.3l0.1,0.1l0.2,0.1l0.2,0.1l0.1,0.1
			l0.6,0.5l0.1,0.1l0.3,0.2l0.1,0.1l0.1,0.1l0.2,0.2l0.2,0.2l0.1,0.1l0.2,0.2l0.1,0.1l0.1,0.1l0.2,0.2l0.3,0.3l0.2,0.2
			c0.1,0.1,0.2,0.2,0.2,0.3l0.3,0.3c0.3,0.4,0.6,0.7,0.8,1.1l0.1,0.2l0.1,0.2c0,0,0.1,0.1,0.1,0.2c0.1,0.1,0.1,0.2,0.2,0.3
			c0.1,0.1,0.1,0.2,0.1,0.2l0.1,0.1l0.1,0.1l0.1,0.1l0.1,0.2c0,0.1,0.1,0.1,0.1,0.2c0.2,0.4,0.4,0.8,0.6,1.2c0,0.1,0.1,0.1,0.1,0.2
			c0.1,0.2,0.1,0.3,0.2,0.5c0,0.1,0,0.1,0.1,0.2l0.1,0.2l0.1,0.2c0,0,0,0.1,0,0.1c0,0,0,0.1,0.1,0.2l0.1,0.2c0,0.1,0.1,0.3,0.1,0.4
			l0,0.2l0.1,0.3v0.1c0,0.1,0,0.1,0,0.2c0,0,0,0.1,0,0.1c0,0,0,0.1,0,0.1v0.1c0,0,0,0.1,0,0.1c0,0.1,0,0.1,0,0.2c0,0.1,0,0.1,0,0.2
			c0,0.1,0,0.1,0,0.2v0.2v0.1v0.2c0,0,0,0.1,0,0.1v0.2c0,0.1,0,0.1,0,0.1c0,0.1,0,0.1,0,0.1c0,0.1,0,0.2,0,0.2v0.2
			C445.2,184.3,445.2,184.4,445.2,184.6z"/>
		<path class="st3" d="M445.2,184.6v0.1c0,0,0,0.1,0,0.1v0.1c0,0.1,0,0.2,0,0.3v0.1v0.3v0.1v0.3c0,0.1,0,0.1,0,0.2
			c0,0.2,0,0.3-0.1,0.5c-0.1,0.2,0,0.2-0.1,0.3c0,0.1,0,0.1,0,0.2c0,0,0,0.1,0,0.1v0.1c0,0.1,0,0.1,0,0.2l0,0.2c0,0,0,0.1,0,0.1
			c0,0.1,0,0.2-0.1,0.2l0,0c0,0.1,0,0.1,0,0.2c0,0.1,0,0.1-0.1,0.2l-0.1,0.2c0,0,0,0,0,0.1l-0.1,0.2c-0.1,0.2-0.1,0.5-0.2,0.7
			c0,0.1-0.1,0.1-0.1,0.2l0,0.1c0.6-2.6,0.6-5.3-0.1-7.9c-1-3.9-3.5-7.2-6.9-9.4c-0.3-0.2-0.6-0.4-0.9-0.5c-2.4-1.3-5-2-7.7-2
			s-5.4,0.7-7.7,2c-0.5,0.3-1,0.6-1.5,1c-0.8,0.5-1.5,1.1-2.1,1.8c-0.6-0.6-1.3-1.2-2-1.7l0,0c-0.5-0.4-1.1-0.7-1.7-1
			c-3-1.7-6.5-2.3-10-1.8c-3.4,0.5-6.6,2.1-9.1,4.5c-0.8,0.6-1.4,1.3-2.1,2.1c-0.3,0.4-0.6,0.9-0.9,1.4c-0.2,0.4-0.5,0.9-0.7,1.4
			c-0.1,0.3-0.2,0.5-0.3,0.8c0-0.1,0.1-0.2,0.1-0.3c0-0.1,0-0.1,0-0.2c0,0,0-0.1,0-0.1l0.1-0.2c0.1-0.2,0.1-0.3,0.2-0.5l0.1-0.2
			c0.1-0.3,0.2-0.7,0.4-1l0.1-0.2c0-0.1,0.1-0.2,0.1-0.3c0.1-0.1,0.2-0.3,0.2-0.5v0l0.1-0.2l0.1-0.2l0.2-0.3c0-0.1,0-0.1,0.1-0.1
			l0.1-0.1l0.1-0.2c0-0.1,0.1-0.1,0.1-0.2l0.3-0.4l0.1-0.1l0.1-0.2l0.1-0.2l0.2-0.2c0-0.1,0.1-0.1,0.2-0.2c0,0,0-0.1,0.1-0.1
			l0.1-0.1l0.2-0.2l0.1-0.1l0.1-0.2l0.2-0.2l0.4-0.4l0.2-0.2l0.3-0.3c0.1-0.1,0.1-0.1,0.2-0.2l0.2-0.2l0.1-0.1l0.1-0.1l0.3-0.2
			l0.1-0.1c0.2-0.2,0.5-0.4,0.7-0.5l0.2-0.1l0.2-0.1l0.1-0.1l0.2-0.1l0.1-0.1l0.2-0.1c0.2-0.1,0.4-0.2,0.6-0.3l0.1-0.1l0.3-0.1
			l0.2-0.1l0.2-0.1l0.2-0.1l0.2-0.1l0.2-0.1l0.7-0.3l0.2-0.1l0.2-0.1l0.2-0.1l0.1,0l0.3-0.1l0.2,0l0.1,0l0.1,0l0.2-0.1l0.3-0.1
			l0.9-0.2h0.1h0.2h0.2h0.2h0.1c0.3,0,0.6-0.1,0.9-0.1h0.2h2.3c0.2,0,0.5,0,0.7,0.1l0.3,0h0.2h0.2h0.2h0.1c0.3,0.1,0.6,0.1,0.9,0.2
			l0.4,0.1h0.1c0.1,0,0.1,0,0.2,0l0.3,0.1l0.1,0l0.7,0.2l0.2,0.1l0.2,0.1l0.3,0.1l0.3,0.1l0.1,0.1l0.2,0.1l0.2,0.1l0.2,0.1l0.2,0.1
			l0.2,0.1l0.4,0.2l0.2,0.1l0.5,0.3l0.1,0.1l0.2,0.1l0.2,0.1l0.1,0.1c0.2,0.2,0.4,0.3,0.6,0.5c0.1,0,0.1,0.1,0.1,0.1
			c0.1,0.1,0.2,0.2,0.3,0.2l0.1,0.1l0.1,0.1l0.2,0.2c0.1,0.1,0.1,0.1,0.2,0.2l0.3,0.3l0.2,0.2l0.2-0.2l0.3-0.3l0.2-0.2l0.2-0.2
			l0.1-0.1l0.1-0.1c0.1-0.1,0.2-0.2,0.3-0.2c0,0,0.1-0.1,0.1-0.1c0.2-0.2,0.5-0.4,0.7-0.5l0.2-0.1l0.2-0.1l0.1-0.1l0.2-0.1l0.1-0.1
			l0.2-0.1c0.2-0.1,0.4-0.2,0.6-0.3l0.1-0.1l0.2-0.1l0.2-0.1l0.2-0.1l0.2-0.1l0.2-0.1l0.2-0.1l0.7-0.3l0.2-0.1l0.2-0.1l0.2-0.1
			l0.1,0l0.3-0.1l0.2,0l0.1,0l0.1,0l0.2-0.1l0.3-0.1c0.3-0.1,0.6-0.1,0.9-0.2h0.1h0.2h0.2h0.2h0.1c0.3,0,0.6-0.1,0.9-0.1h0.2h2.3
			l0.7,0.1l0.3,0h0.2h0.2h0.2h0.1c0.3,0.1,0.6,0.1,0.9,0.2l0.4,0.1h0.1c0.1,0,0.1,0,0.2,0l0.3,0.1l0.1,0l0.7,0.2l0.2,0.1l0.2,0.1
			l0.3,0.1l0.3,0.1l0.1,0.1l0.2,0.1l0.2,0.1l0.2,0.1l0.2,0.1l0.2,0.1l0.4,0.2l0.2,0.1l0.5,0.3l0.1,0.1l0.2,0.1l0.2,0.1l0.1,0.1
			l0.6,0.5l0.1,0.1l0.3,0.2l0.1,0.1l0.1,0.1l0.2,0.2l0.2,0.2l0.1,0.1l0.2,0.2l0.1,0.1l0.1,0.1l0.2,0.2l0.3,0.3l0.2,0.2
			c0.1,0.1,0.2,0.2,0.2,0.3l0.3,0.3c0.3,0.4,0.6,0.7,0.8,1.1l0.1,0.2l0.1,0.2c0,0,0.1,0.1,0.1,0.2c0.1,0.1,0.1,0.2,0.2,0.3
			c0.1,0.1,0.1,0.2,0.1,0.2l0.1,0.1l0.1,0.1l0.1,0.1l0.1,0.2c0,0.1,0.1,0.1,0.1,0.2c0.2,0.4,0.4,0.8,0.6,1.2c0,0.1,0.1,0.1,0.1,0.2
			c0.1,0.2,0.1,0.3,0.2,0.5c0,0.1,0,0.1,0.1,0.2l0.1,0.2l0.1,0.2c0,0,0,0.1,0,0.1c0,0,0,0.1,0.1,0.2l0.1,0.2c0,0.1,0.1,0.3,0.1,0.4
			l0,0.2l0.1,0.3v0.1c0,0.1,0,0.1,0,0.2c0,0,0,0.1,0,0.1c0,0,0,0.1,0,0.1v0.1c0,0,0,0.1,0,0.1c0,0.1,0,0.1,0,0.2c0,0.1,0,0.1,0,0.2
			c0,0.1,0,0.1,0,0.2v0.2v0.1v0.2c0,0,0,0.1,0,0.1v0.2c0,0.1,0,0.1,0,0.1c0,0.1,0,0.1,0,0.1c0,0.1,0,0.2,0,0.2v0.2
			C445.2,184.3,445.2,184.4,445.2,184.6z"/>
		<path class="st2" d="M230.9,200.5c0,0,0,0.1,0,0.1v0.3v0.3v0v0.3v0.1v0.3c0,0.1,0,0.1,0,0.2c0,0.2,0,0.3-0.1,0.5
			c0,0.2,0,0.2-0.1,0.3c0,0.1,0,0.1,0,0.2c0,0,0,0.1,0,0.1v0.1c0,0.1,0,0.1,0,0.2l0,0.2c0,0,0,0.1,0,0.1c0,0.1,0,0.2-0.1,0.2
			c0,0.1,0,0.1,0,0.2c0,0.1,0,0.1-0.1,0.2l-0.1,0.2c0,0,0,0,0,0.1l-0.1,0.2c-0.1,0.2-0.1,0.5-0.2,0.7c0,0.1,0,0.2-0.1,0.2l0,0.1
			c-0.5,1.4-1.2,2.7-2.1,3.9l-0.2,0.2c-0.4,0.5-0.9,1.1-1.4,1.5l-22.7,22.6l-22.7-22.6c-0.7-0.7-1.2-1.4-1.8-2.1
			c-0.3-0.5-0.6-1-0.9-1.5c-1.5-2.8-2.2-5.9-1.9-9.1c0-0.3,0.1-0.6,0.1-0.9c0.1-0.5,0.2-1,0.3-1.5c0-0.1,0.1-0.2,0.1-0.3l0-0.2
			c0,0,0-0.1,0-0.1c0-0.1,0-0.2,0.1-0.2c0-0.2,0.1-0.3,0.2-0.5c0.1-0.2,0.1-0.2,0.1-0.2c0.1-0.3,0.3-0.7,0.4-1l0.1-0.2
			c0-0.1,0.1-0.2,0.1-0.3c0.1-0.1,0.2-0.3,0.2-0.5v0l0.1-0.2l0.1-0.2l0.2-0.3l0.1-0.1l0.1-0.1l0.1-0.2c0-0.1,0.1-0.1,0.1-0.2
			l0.3-0.4l0.1-0.2l0.1-0.2c0-0.1,0.1-0.1,0.1-0.2c0.1-0.1,0.1-0.2,0.2-0.2l0.2-0.2l0.1-0.1l0.1-0.1l0.2-0.2l0.1-0.1l0.1-0.2
			l0.2-0.2l0.4-0.5l0.2-0.2l0.3-0.3l0.2-0.2l0.2-0.2l0.1-0.1l0.1-0.1l0.3-0.2l0.1-0.1c0.2-0.2,0.5-0.4,0.7-0.5l0.2-0.1l0.2-0.1
			l0.1-0.1c0.1,0,0.1-0.1,0.2-0.1l0.1-0.1l0.2-0.1c0.2-0.1,0.4-0.2,0.6-0.3l0.1-0.1l0.1-0.1l0.2-0.1l0.2-0.1l0.2-0.1l0.2-0.1
			l0.2-0.1l0.7-0.3l0.2-0.1l0.2-0.1l0.2-0.1l0.1,0l0.3-0.1l0.2-0.1l0.1,0h0.1l0.2-0.1l0.3-0.1c0.3-0.1,0.6-0.1,0.9-0.2h0.1h0.2h0.2
			l0.2,0h0.1c0.3,0,0.6-0.1,0.9-0.1h2h0.2h0.2l0.7,0.1l0.3,0l0.2,0h0.2h0.2h0.1c0.3,0.1,0.6,0.1,0.9,0.2l0.4,0.1h0.1l0.2,0l0.3,0.1
			l0.1,0c0.2,0.1,0.4,0.1,0.7,0.2l0.2,0.1l0.2,0.1l0.3,0.1l0.3,0.1l0.1,0.1l0.2,0.1l0.2,0.1l0.2,0.1l0.2,0.1l0.2,0.1l0.4,0.2
			l0.2,0.1c0.2,0.1,0.4,0.2,0.5,0.3l0.1,0.1l0.2,0.1l0.2,0.1c0,0,0.1,0,0.1,0.1c0.2,0.1,0.4,0.3,0.6,0.5l0.1,0.1l0.3,0.2l0.1,0.1
			l0.1,0.1l0.2,0.2l0.2,0.2l0.3,0.3l0.2,0.2l0.2-0.2l0.3-0.3l0.2-0.2l0.2-0.2l0.1-0.1l0.1-0.1l0.3-0.2l0.1-0.1
			c0.2-0.2,0.5-0.4,0.7-0.5l0.2-0.1l0.2-0.1l0.1-0.1l0.2-0.1l0.1-0.1l0.2-0.1c0.2-0.1,0.4-0.2,0.6-0.3c0,0,0.1,0,0.1-0.1l0.2-0.1
			l0.2-0.1l0.2-0.1l0.2-0.1l0.2-0.1l0.2-0.1l0.7-0.3l0.2-0.1l0.2-0.1l0.2-0.1l0.1,0l0.3-0.1l0.2-0.1l0.1,0h0.1l0.2-0.1l0.3-0.1
			c0.3-0.1,0.6-0.1,0.9-0.2h0.1h0.2h0.2l0.2,0h0.1c0.3,0,0.6-0.1,0.9-0.1h2.1h0.2h0.2l0.7,0.1l0.3,0l0.2,0h0.2h0.2h0.1
			c0.3,0.1,0.6,0.1,0.9,0.2l0.4,0.1h0.1l0.2,0l0.3,0.1l0.1,0c0.2,0.1,0.4,0.1,0.7,0.2l0.2,0.1l0.2,0.1l0.3,0.1l0.3,0.1l0.1,0.1
			l0.2,0.1l0.2,0.1l0.2,0.1l0.2,0.1l0.2,0.1l0.4,0.2l0.2,0.1c0.2,0.1,0.4,0.2,0.5,0.3l0.1,0.1l0.2,0.1l0.2,0.1l0.1,0.1l0.6,0.5
			l0.1,0.1l0.3,0.2l0.1,0.1l0.1,0.1l0.2,0.2c0.1,0.1,0.1,0.1,0.2,0.2l0.1,0.1l0.2,0.2l0.1,0.1l0.1,0.1l0.2,0.2l0.3,0.3l0.2,0.2
			l0.2,0.3l0.3,0.3c0.3,0.4,0.6,0.7,0.8,1.1l0.1,0.2l0.1,0.2c0,0,0.1,0.1,0.1,0.1c0.1,0.1,0.1,0.2,0.2,0.3c0.1,0.1,0.1,0.2,0.1,0.2
			l0.1,0.2l0.1,0.1l0.1,0.1l0.1,0.2c0,0.1,0.1,0.1,0.1,0.2c0.2,0.4,0.4,0.8,0.6,1.2l0.1,0.2c0.1,0.2,0.1,0.3,0.2,0.5l0.1,0.2
			c0,0.1,0.1,0.1,0.1,0.2l0.1,0.2c0,0,0,0.1,0,0.1l0.1,0.2c0,0.1,0,0.2,0.1,0.2c0,0.1,0.1,0.2,0.1,0.4l0,0.2l0.1,0.3v0.1
			c0,0.1,0,0.1,0,0.2c0,0,0,0.1,0,0.1c0,0,0,0.1,0,0.1v0.1c0,0,0,0.1,0,0.1s0,0.1,0,0.2c0,0.1,0,0.1,0,0.2c0,0.1,0,0.2,0,0.2
			c0,0.1,0,0.1,0,0.2v0.1v0.2c0,0,0,0.1,0,0.1c0,0.1,0,0.1,0,0.2c0,0,0,0.1,0,0.1c0,0.1,0,0.1,0,0.1c0,0,0,0.2,0,0.2
			c0,0.1,0,0.2,0,0.2C230.5,200.1,230.9,200.4,230.9,200.5z"/>
		<path class="st3" d="M230.9,200.5c0,0,0,0.1,0,0.1v0.3v0.3v0v0.3v0.1v0.3c0,0.1,0,0.1,0,0.2c0,0.2,0,0.3-0.1,0.5
			c0,0.2,0,0.2-0.1,0.3c0,0.1,0,0.1,0,0.2c0,0,0,0.1,0,0.1v0.1c0,0.1,0,0.1,0,0.2l0,0.2c0,0,0,0.1,0,0.1c0,0.1,0,0.2-0.1,0.2
			c0,0.1,0,0.1,0,0.2c0,0.1,0,0.1-0.1,0.2l-0.1,0.2c0,0,0,0,0,0.1l-0.1,0.2c-0.1,0.2-0.1,0.5-0.2,0.7c0,0.1,0,0.2-0.1,0.2l0,0.1
			c0.6-2.6,0.6-5.3-0.1-7.9c-1.1-3.9-3.7-7.2-7.2-9.3c-0.3-0.2-0.6-0.4-0.9-0.5c-2.4-1.3-5-2-7.7-2c-2.7,0-5.4,0.7-7.7,2
			c-0.5,0.3-1,0.6-1.5,1c-0.7,0.5-1.5,1.1-2.1,1.8c-0.6-0.6-1.3-1.2-2-1.7c-0.5-0.4-1.1-0.7-1.7-1.1c-2.4-1.3-5-2-7.7-2
			c-2.7,0-5.4,0.7-7.7,2c-0.8,0.4-1.6,0.9-2.3,1.5c-0.5,0.4-0.9,0.8-1.3,1.2c-0.6,0.6-1.2,1.3-1.8,2.1c-0.3,0.4-0.6,0.9-0.9,1.4
			c-0.2,0.4-0.5,0.9-0.7,1.4c-0.1,0.3-0.2,0.5-0.3,0.8c0-0.1,0.1-0.2,0.1-0.3l0-0.2c0,0,0-0.1,0-0.1c0-0.1,0-0.2,0.1-0.2
			c0.1-0.2,0.1-0.3,0.2-0.5c0.1-0.2,0.1-0.2,0.1-0.2c0.1-0.3,0.3-0.7,0.4-1l0.1-0.2c0-0.1,0.1-0.2,0.1-0.3c0.1-0.1,0.2-0.3,0.2-0.5
			v0l0.1-0.2l0.1-0.2l0.2-0.3l0.1-0.1l0.1-0.1l0.1-0.2c0-0.1,0.1-0.1,0.1-0.2l0.3-0.4l0.1-0.2l0.1-0.2c0-0.1,0.1-0.1,0.1-0.2
			c0.1-0.1,0.1-0.2,0.2-0.2l0.2-0.2l0.1-0.1l0.1-0.1l0.2-0.2l0.1-0.1l0.1-0.2l0.2-0.2l0.4-0.5l0.2-0.2l0.3-0.3l0.2-0.2l0.2-0.2
			l0.1-0.1l0.1-0.1l0.3-0.2l0.1-0.1c0.2-0.2,0.5-0.4,0.7-0.5l0.2-0.1l0.2-0.1l0.1-0.1c0.1,0,0.1-0.1,0.2-0.1l0.1-0.1l0.2-0.1
			c0.2-0.1,0.4-0.2,0.6-0.3l0.1-0.1l0.3-0.1l0.2-0.1l0.2-0.1l0.2-0.1l0.2-0.1l0.2-0.1l0.7-0.3l0.2-0.1l0.2-0.1l0.2-0.1l0.1,0
			l0.3-0.1l0.2-0.1l0.1,0h0.1l0.2-0.1l0.3-0.1c0.3-0.1,0.6-0.1,0.9-0.2h0.1h0.2h0.2l0.2,0h0.1c0.3,0,0.6-0.1,0.9-0.1h2h0.2h0.2
			l0.7,0.1l0.3,0l0.2,0h0.2h0.2h0.1c0.3,0.1,0.6,0.1,0.9,0.2l0.4,0.1h0.1l0.2,0l0.3,0.1l0.1,0c0.2,0.1,0.4,0.1,0.7,0.2l0.2,0.1
			l0.2,0.1l0.3,0.1l0.3,0.1l0.1,0.1l0.2,0.1l0.2,0.1l0.2,0.1l0.2,0.1l0.2,0.1l0.4,0.2l0.2,0.1c0.2,0.1,0.4,0.2,0.5,0.3l0.1,0.1
			l0.2,0.1l0.2,0.1c0,0,0.1,0,0.1,0.1c0.2,0.1,0.4,0.3,0.6,0.5l0.1,0.1l0.3,0.2l0.1,0.1l0.1,0.1l0.2,0.2l0.2,0.2l0.3,0.3l0.2,0.2
			l0.2-0.2l0.3-0.3l0.2-0.2l0.2-0.2l0.1-0.1l0.1-0.1l0.3-0.2l0.1-0.1c0.2-0.2,0.5-0.4,0.7-0.5l0.2-0.1l0.2-0.1l0.1-0.1l0.2-0.1
			l0.1-0.1l0.2-0.1c0.2-0.1,0.4-0.2,0.6-0.3c0,0,0.1,0,0.1-0.1l0.2-0.1l0.2-0.1l0.2-0.1l0.2-0.1l0.2-0.1l0.2-0.1l0.7-0.3l0.2-0.1
			l0.2-0.1l0.2-0.1l0.1,0l0.3-0.1l0.2-0.1l0.1,0h0.1l0.2-0.1l0.3-0.1c0.3-0.1,0.6-0.1,0.9-0.2h0.1h0.2h0.2l0.2,0h0.1
			c0.3,0,0.6-0.1,0.9-0.1h2.1h0.2h0.2l0.7,0.1l0.3,0l0.2,0h0.2h0.2h0.1c0.3,0.1,0.6,0.1,0.9,0.2l0.4,0.1h0.1l0.2,0l0.3,0.1l0.1,0
			c0.2,0.1,0.4,0.1,0.7,0.2l0.2,0.1l0.2,0.1l0.3,0.1l0.3,0.1l0.1,0.1l0.2,0.1l0.2,0.1l0.2,0.1l0.2,0.1l0.2,0.1l0.4,0.2l0.2,0.1
			c0.2,0.1,0.4,0.2,0.5,0.3l0.1,0.1l0.2,0.1l0.2,0.1l0.1,0.1l0.6,0.5l0.1,0.1l0.3,0.2l0.1,0.1l0.1,0.1l0.2,0.2
			c0.1,0.1,0.1,0.1,0.2,0.2l0.1,0.1l0.2,0.2l0.1,0.1l0.1,0.1l0.2,0.2l0.3,0.3l0.2,0.2l0.2,0.3l0.3,0.3c0.3,0.4,0.6,0.7,0.8,1.1
			l0.1,0.2l0.1,0.2c0,0,0.1,0.1,0.1,0.1c0.1,0.1,0.1,0.2,0.2,0.3c0.1,0.1,0.1,0.2,0.1,0.2l0.1,0.2l0.1,0.1l0.1,0.1l0.1,0.2
			c0,0.1,0.1,0.1,0.1,0.2c0.2,0.4,0.4,0.8,0.6,1.2l0.1,0.2c0.1,0.2,0.1,0.3,0.2,0.5l0.1,0.2c0,0.1,0.1,0.1,0.1,0.2l0.1,0.2
			c0,0,0,0.1,0,0.1l0.1,0.2c0,0.1,0,0.2,0.1,0.2c0,0.1,0.1,0.2,0.1,0.4l0,0.2l0.1,0.3v0.1c0,0.1,0,0.1,0,0.2c0,0,0,0.1,0,0.1
			c0,0,0,0.1,0,0.1v0.1c0,0,0,0.1,0,0.1s0,0.1,0,0.2c0,0.1,0,0.1,0,0.2c0,0.1,0,0.2,0,0.2c0,0.1,0,0.1,0,0.2v0.1v0.2
			c0,0,0,0.1,0,0.1c0,0.1,0,0.1,0,0.2c0,0,0,0.1,0,0.1c0,0.1,0,0.1,0,0.1c0,0,0,0.2,0,0.2c0,0.1,0,0.2,0,0.2
			C230.5,200.1,230.9,200.4,230.9,200.5z"/>
		<path class="st2" d="M223.8,316.1v0.3c0,0,0,0.1,0,0.1c0,0.1,0,0.2,0,0.3v0.1v0.3v0.1c0,0,0,0,0,0v0.3v0.2l-0.1,0.5
			c0,0.1,0,0.2-0.1,0.3c0,0.1,0,0.1,0,0.2v0.1c0,0,0,0.1,0,0.1c0,0.1,0,0.1,0,0.2c0,0.1,0,0.1,0,0.2c0,0,0,0.1,0,0.1
			c0,0,0,0.2,0,0.2l0,0.2l0,0.2l-0.1,0.2c0,0,0,0,0,0.1s0,0.2-0.1,0.2c-0.1,0.2-0.1,0.5-0.2,0.7l-0.1,0.2c0,0,0,0.1-0.1,0.1
			c-0.5,1.4-1.2,2.7-2.1,3.9l-0.2,0.2c-0.4,0.5-0.9,1.1-1.4,1.5l-22.7,22.7L174,327.2c-0.7-0.6-1.2-1.4-1.8-2.1
			c-0.3-0.5-0.6-1-0.9-1.5c-1.5-2.8-2.2-5.9-1.9-9.1c0-0.3,0.1-0.6,0.1-0.9c0.1-0.5,0.2-1,0.3-1.5c0-0.1,0-0.2,0.1-0.3l0-0.2v-0.1
			l0.1-0.2c0.1-0.2,0.1-0.3,0.2-0.5l0.1-0.2c0.1-0.3,0.2-0.7,0.4-1l-0.1-0.2l0.1-0.3c0.1-0.2,0.2-0.3,0.2-0.5v0l0.1-0.2l0.1-0.2
			c0.1-0.1,0.1-0.2,0.2-0.3l0.1-0.1l0-0.1c0-0.1,0.1-0.1,0.1-0.2c0-0.1,0.1-0.1,0.1-0.2l0.3-0.4c0-0.1,0.1-0.1,0.1-0.1l0.1-0.2
			l0.1-0.2l0.2-0.2l0.2-0.2l0.1-0.1l0.1-0.1l0.2-0.2l0.1-0.1l0.1-0.2l0.2-0.2c0.1-0.2,0.3-0.3,0.4-0.4l0.2-0.2l0.3-0.3l0.2-0.2
			l0.2-0.2l0.1-0.1l0.1-0.1c0.1-0.1,0.2-0.2,0.3-0.2c0,0,0.1-0.1,0.1-0.1c0.2-0.2,0.5-0.4,0.7-0.5l0.2-0.1c0,0,0.1-0.1,0.2-0.1
			l0.1-0.1l0.2-0.1l0.1-0.1l0.2-0.1c0.2-0.1,0.4-0.2,0.6-0.3l0.1-0.1l0.2-0.1l0.2-0.1l0.2-0.1l0.2-0.1l0.2-0.1l0.2-0.1l0.7-0.3
			l0.2-0.1l0.2-0.1l0.2,0l0.1,0l0.3-0.1l0.2,0l0.1,0h0.1l0.2-0.1l0.3-0.1c0.3-0.1,0.6-0.1,0.9-0.2h0.1h0.2h0.2h0.2h0.1
			c0.3,0,0.6-0.1,0.9-0.1h0.2h1.9h0.2h0.1l0.7,0.1l0.3,0h0.2h0.2h0.2h0.1c0.3,0.1,0.6,0.1,0.9,0.2l0.4,0.1h0.1l0.2,0l0.3,0.1l0.1,0
			c0.2,0.1,0.4,0.1,0.7,0.2l0.2,0.1l0.2,0.1l0.3,0.1l0.3,0.1l0.1,0.1l0.2,0.1l0.2,0.1l0.2,0.1l0.2,0.1l0.2,0.1l0.4,0.2l0.2,0.1
			c0.2,0.1,0.4,0.2,0.5,0.3l0.1,0.1l0.2,0.1l0.2,0.1l0.1,0.1l0.6,0.5l0.1,0.1l0.3,0.2l0.1,0.1l0.1,0.1l0.2,0.2l0.2,0.2l0.3,0.3
			l0.2,0.2l0.2-0.2l0.3-0.3l0.2-0.2l0.2-0.2l0.1-0.1l0.1-0.1l0.3-0.2l0.1-0.1c0.2-0.2,0.5-0.4,0.7-0.5l0.2-0.1l0.2-0.1l0.1-0.1
			l0.2-0.1l0.1-0.1l0.2-0.1l0.6-0.3l0.1-0.1l0.2-0.1l0.2-0.1l0.2-0.1l0.2-0.1l0.2-0.1l0.2-0.1l0.7-0.3l0.2-0.1l0.2-0.1l0.2-0.1
			l0.1,0l0.3-0.1l0.2-0.1l0.1,0h0.1l0.2-0.1l0.3-0.1c0.3-0.1,0.6-0.1,0.9-0.2h0.1h0.2h0.2h0.2h0.1l0.9-0.1h0.2h1.9h0.2h0.1
			c0.2,0,0.5,0,0.7,0.1l0.3,0h0.2h0.2h0.2h0.1c0.3,0.1,0.6,0.1,0.9,0.2l0.4,0.1h0.1l0.2,0.1l0.3,0.1l0.1,0c0.2,0.1,0.4,0.1,0.7,0.2
			l0.1,0.1l0.2,0.1l0.3,0.1l0.3,0.1l0.1,0.1l0.2,0.1l0.2,0.1l0.2,0.1l0.2,0.1l0.2,0.1c0.1,0.1,0.2,0.1,0.4,0.2l0.2,0.1l0.5,0.3
			l0.1,0.1l0.2,0.1l0.1,0.1l0.1,0.1c0.2,0.2,0.4,0.3,0.6,0.5l0.2,0.1l0.3,0.2l0.1,0.1l0.1,0.1l0.2,0.2l0.2,0.2l0.1,0.1l0.2,0.2
			l0.1,0.1l0.1,0.1l0.2,0.2l0.3,0.3l0.2,0.2l0.2,0.3l0.3,0.3c0.3,0.4,0.6,0.7,0.8,1.1l0.1,0.2l0.1,0.2l0.1,0.2l0.2,0.3l0.1,0.2
			l0.1,0.1l0.1,0.1c0,0,0,0.1,0.1,0.1c0,0,0.1,0.1,0.1,0.2c0,0.1,0.1,0.1,0.1,0.2c0.2,0.4,0.4,0.8,0.6,1.2c0,0.1,0.1,0.1,0.1,0.2
			l0.2,0.5l0.1,0.2c0,0.1,0.1,0.2,0.1,0.2s0,0.1,0.1,0.2l0,0.1l0.1,0.2l0.1,0.2c0,0.1,0.1,0.2,0.1,0.4c0,0.1,0,0.1,0.1,0.2
			c0,0.1,0,0.2,0.1,0.3v0.1c0,0.1,0,0.1,0,0.2v0.1v0.1v0.1v0.1c0,0.1,0,0.1,0,0.2s0,0.1,0,0.2s0,0.1,0,0.2c0,0.1,0,0.1,0,0.2v0.1
			v0.2c0,0,0,0.1,0,0.1c0,0,0,0.2,0,0.2c0,0.1,0,0.1,0,0.1c0,0,0,0.1,0,0.1c0,0.1,0,0.2,0,0.2c0,0.1,0,0.2,0,0.2
			C223.4,315.7,223.8,315.9,223.8,316.1z"/>
		<path class="st3" d="M223.8,316.1v0.3c0,0,0,0.1,0,0.1c0,0.1,0,0.2,0,0.3v0.1v0.3v0.1c0,0,0,0,0,0v0.3v0.2l-0.1,0.5
			c0,0.1,0,0.2-0.1,0.3c0,0.1,0,0.1,0,0.2v0.1c0,0,0,0.1,0,0.1c0,0.1,0,0.1,0,0.2c0,0.1,0,0.1,0,0.2c0,0,0,0.1,0,0.1
			c0,0,0,0.2-0.1,0.2l0,0.2l0,0.2l-0.1,0.2c0,0,0,0,0,0.1s0,0.2-0.1,0.2c-0.1,0.2-0.1,0.5-0.2,0.7l-0.1,0.2c0,0,0,0.1-0.1,0.1
			c0.3-1.3,0.5-2.6,0.4-3.9c0-1.4-0.2-2.7-0.5-4c-1-3.9-3.5-7.2-6.9-9.4c-0.3-0.2-0.6-0.4-0.9-0.5c-2.4-1.3-5-2-7.7-2
			c-2.7,0-5.4,0.7-7.7,2c-0.5,0.3-1,0.6-1.5,1c-0.8,0.5-1.6,1.1-2.3,1.8c-0.6-0.6-1.3-1.2-2-1.7l0,0c-0.5-0.4-1.1-0.7-1.7-1
			c-2.8-1.5-5.9-2.2-9.1-1.9c-3.2,0.3-6.2,1.5-8.6,3.4c-0.5,0.4-0.9,0.8-1.3,1.2c-0.6,0.6-1.2,1.3-1.8,2.1c-0.3,0.4-0.6,0.9-0.9,1.4
			c-0.3,0.4-0.5,0.9-0.7,1.4c-0.1,0.3-0.2,0.5-0.3,0.8c0-0.1,0-0.2,0.1-0.3l0-0.2v-0.1l0.1-0.2c0.1-0.2,0.1-0.3,0.2-0.5l0.1-0.2
			c0.1-0.3,0.2-0.7,0.4-1l0.1-0.2l0.1-0.3l0.2-0.5v0l0.1-0.2l0.1-0.2c0.1-0.1,0.1-0.2,0.2-0.3l0.1-0.1l0-0.1c0-0.1,0.1-0.1,0.1-0.2
			c0-0.1,0.1-0.1,0.1-0.2l0.3-0.4c0-0.1,0.1-0.1,0.1-0.1l0.1-0.2l0.1-0.2l0.2-0.2l0.2-0.2l0.1-0.1l0.1-0.1l0.2-0.2l0.1-0.1l0.1-0.2
			l0.2-0.2c0.1-0.2,0.3-0.3,0.4-0.4l0.2-0.2l0.3-0.3l0.2-0.2l0.2-0.2l0.1-0.1l0.1-0.1c0.1-0.1,0.2-0.2,0.3-0.2c0,0,0.1-0.1,0.1-0.1
			c0.2-0.2,0.5-0.4,0.7-0.5l0.2-0.1c0,0,0.1-0.1,0.2-0.1l0.1-0.1l0.2-0.1l0.1-0.1l0.2-0.1c0.2-0.1,0.4-0.2,0.6-0.3l0.1-0.1l0.2-0.1
			l0.2-0.1l0.2-0.1l0.2-0.1l0.2-0.1l0.2-0.1l0.7-0.3l0.2-0.1l0.2-0.1l0.2,0l0.1,0l0.3-0.1l0.2,0l0.1,0h0.1l0.2-0.1l0.3-0.1
			c0.3-0.1,0.6-0.1,0.9-0.2h0.1h0.2h0.2h0.2h0.1c0.3,0,0.6-0.1,0.9-0.1h0.2h1.9h0.2h0.1l0.7,0.1l0.3,0h0.2h0.2h0.2h0.1
			c0.3,0.1,0.6,0.1,0.9,0.2l0.4,0.1h0.1l0.2,0l0.3,0.1l0.1,0c0.2,0.1,0.4,0.1,0.7,0.2l0.2,0.1l0.2,0.1l0.3,0.1l0.3,0.1l0.1,0.1
			l0.2,0.1l0.2,0.1l0.2,0.1l0.2,0.1l0.2,0.1l0.4,0.2l0.2,0.1c0.2,0.1,0.4,0.2,0.5,0.3l0.1,0.1l0.2,0.1l0.2,0.1l0.1,0.1l0.6,0.5
			l0.1,0.1l0.3,0.2l0.1,0.1l0.1,0.1l0.2,0.2l0.2,0.2l0.3,0.3l0.2,0.2l0.2-0.2l0.3-0.3l0.2-0.2l0.2-0.2l0.1-0.1l0.1-0.1l0.3-0.2
			l0.1-0.1c0.2-0.2,0.5-0.4,0.7-0.5l0.2-0.1l0.2-0.1l0.1-0.1l0.2-0.1l0.1-0.1l0.2-0.1l0.6-0.3l0.1-0.1l0.2-0.1l0.2-0.1l0.2-0.1
			l0.2-0.1l0.2-0.1l0.2-0.1l0.7-0.3l0.2-0.1l0.2-0.1l0.2-0.1l0.1,0l0.3-0.1l0.2-0.1l0.1,0h0.1l0.2-0.1l0.3-0.1
			c0.3-0.1,0.6-0.1,0.9-0.2h0.1h0.2h0.2h0.2h0.1l0.9-0.1h0.2h1.9h0.2h0.1c0.2,0,0.5,0,0.7,0.1l0.3,0h0.2h0.2h0.2h0.1
			c0.3,0.1,0.6,0.1,0.9,0.2l0.4,0.1h0.1l0.2,0.1l0.3,0.1l0.1,0c0.2,0.1,0.4,0.1,0.7,0.2l0.1,0.1l0.2,0.1l0.3,0.1l0.3,0.1l0.1,0.1
			l0.2,0.1l0.2,0.1l0.2,0.1l0.2,0.1l0.2,0.1c0.1,0.1,0.2,0.1,0.4,0.2l0.2,0.1l0.5,0.3l0.1,0.1l0.2,0.1l0.1,0.1l0.1,0.1
			c0.2,0.2,0.4,0.3,0.6,0.5l0.2,0.1l0.3,0.2l0.1,0.1l0.1,0.1l0.2,0.2l0.2,0.2l0.1,0.1l0.2,0.2l0.1,0.1l0.1,0.1l0.2,0.2l0.3,0.3
			l0.2,0.2l0.2,0.3l0.3,0.3c0.3,0.4,0.6,0.7,0.8,1.1l0.1,0.2l0.1,0.2l0.1,0.2l0.2,0.3l0.1,0.2l0.1,0.1l0.1,0.1c0,0,0,0.1,0.1,0.1
			c0,0,0.1,0.1,0.1,0.2c0,0.1,0.1,0.1,0.1,0.2c0.2,0.4,0.4,0.8,0.6,1.2c0,0.1,0.1,0.1,0.1,0.2l0.2,0.5l0.1,0.2
			c0,0.1,0.1,0.2,0.1,0.2s0,0.1,0.1,0.2l0,0.1l0.1,0.2l0.1,0.2c0,0.1,0.1,0.2,0.1,0.4c0,0.1,0,0.1,0.1,0.2c0,0.1,0,0.2,0.1,0.3v0.1
			c0,0.1,0,0.1,0,0.2v0.1v0.1v0.1v0.1c0,0.1,0,0.1,0,0.2c0,0.1,0,0.1,0,0.2s0,0.1,0,0.2c0,0.1,0,0.1,0,0.2v0.1v0.2c0,0,0,0.1,0,0.1
			c0,0,0,0.2,0,0.2c0,0.1,0,0.1,0,0.1c0,0,0,0.1,0,0.1c0,0.1,0,0.2,0,0.2c0,0.1,0,0.2,0,0.2C223.4,315.7,223.8,315.9,223.8,316.1z"
			/>
		<path class="st2" d="M284.2,241.8v0.2c0,0,0,0.1,0,0.1c0,0.1,0,0.2,0,0.2v0.1c0,0.1,0,0.1,0,0.2v0.1v0.2c0,0,0,0.1,0,0.1l0,0.4
			l0,0.2v0.1c0,0,0,0,0,0.1c0,0,0,0,0,0.1c0,0,0,0.1,0,0.1v0.1v0.1c0,0.1,0,0.1,0,0.2l0,0v0.1c0,0,0,0.1,0,0.1l0,0.2c0,0,0,0,0,0
			l0,0.2c-0.1,0.2-0.1,0.3-0.2,0.5c-0.1,0.2,0,0.1-0.1,0.2l0,0.1c-0.4,1-0.9,1.9-1.5,2.7l-0.1,0.2c-0.3,0.4-0.6,0.8-1,1.1l-16,16
			l-16-16c-1.2-1.2-2.1-2.6-2.6-4.1c-0.6-1.5-0.8-3.2-0.6-4.8c0-0.2,0-0.4,0.1-0.6c0-0.4,0.1-0.7,0.2-1.1c0-0.1,0-0.1,0.1-0.2
			c0,0,0-0.1,0-0.1v-0.1l0-0.2c0-0.1,0.1-0.3,0.1-0.4l0.1-0.2c0.1-0.2,0.2-0.5,0.3-0.7l0.1-0.1c0-0.1,0.1-0.1,0.1-0.2l0.2-0.3
			c0,0,0.1-0.1,0.1-0.2l0.1-0.2c0-0.1,0.1-0.1,0.1-0.2c0,0,0-0.1,0.1-0.1v-0.1l0.1-0.1l0.1-0.1l0.2-0.3l0.1-0.1l0.1-0.1l0.1-0.1
			l0.1-0.2c0,0,0.1-0.1,0.1-0.1l0-0.1l0.1-0.1c0-0.1,0.1-0.1,0.1-0.1l0.1-0.1l0.1-0.1l0.1-0.1l0.3-0.3l0.1-0.1l0.2-0.2
			c0,0,0.1-0.1,0.1-0.1l0.2-0.1l0.1-0.1l0.1-0.1l0.2-0.2l0.1-0.1l0.5-0.4l0.1-0.1l0.1-0.1l0.1-0.1l0.1-0.1l0.1,0l0.1-0.1
			c0.1-0.1,0.3-0.2,0.4-0.2l0.1-0.1l0.1-0.1l0.1-0.1l0.1-0.1l0.1-0.1l0.1-0.1l0.1,0l0.5-0.2l0.1,0l0.1,0l0.1,0h0.1l0.2-0.1h0.1h0.1
			h0.1l0.2,0l0.2-0.1c0.2-0.1,0.4-0.1,0.6-0.1h0.1h0.1h0.1h0.2h0.1c0.2,0,0.4-0.1,0.6-0.1h1.7l0.5,0.1h0.2h0.2h0.1h0.1h0.1
			c0.2,0,0.4,0.1,0.6,0.1l0.3,0.1h0.1h0.1l0.2,0.1h0.1l0.5,0.2l0.1,0l0.1,0.1l0.2,0.1l0.2,0.1l0.1,0l0.1,0.1l0.1,0.1l0.1,0.1
			l0.1,0.1l0.1,0.1l0.3,0.1l0.1,0.1l0.4,0.2l0.1,0.1l0.1,0.1l0.1,0.1l0.1,0.1c0.2,0.1,0.3,0.2,0.4,0.3l0.1,0.1l0.2,0.2l0.1,0.1
			l0.1,0.1l0.2,0.1l0.1,0.1c0.1,0.1,0.1,0.1,0.2,0.2l0.1,0.1l0.1-0.1c0.1-0.1,0.1-0.1,0.2-0.2l0.1-0.1l0.2-0.1l0.1-0.1l0.1-0.1
			l0.2-0.2l0.1-0.1c0.2-0.1,0.3-0.3,0.5-0.4l0.1-0.1l0.1-0.1l0.1-0.1l0.2-0.1l0.1,0l0.1-0.1c0.2-0.1,0.3-0.2,0.4-0.2l0.1-0.1
			l0.1-0.1l0.1-0.1l0.1-0.1l0.1-0.1l0.1-0.1l0.1-0.1l0.5-0.2l0.1,0l0.1,0l0.1,0h0.1l0.2-0.1h0.1h0.1h0.1l0.2,0l0.2-0.1
			c0.2-0.1,0.4-0.1,0.6-0.1h0.1h0.1h0.1h0.2h0.1c0.2,0,0.4-0.1,0.6-0.1h1.7l0.5,0.1h0.2h0.1h0.1h0.1h0.1l0.6,0.1l0.3,0.1h0.1h0.1
			l0.2,0.1h0.1l0.5,0.2l0.1,0l0.1,0.1l0.2,0.1l0.2,0.1l0.1,0l0.1,0.1l0.1,0.1l0.1,0.1l0.1,0.1l0.1,0.1l0.3,0.1l0.1,0.1
			c0.1,0.1,0.3,0.2,0.4,0.2l0.1,0.1l0.1,0.1l0.1,0.1l0.1,0.1c0.2,0.1,0.3,0.2,0.5,0.3l0.1,0.1c0.1,0.1,0.1,0.1,0.2,0.2l0.1,0.1
			l0.1,0.1l0.1,0.1l0.1,0.1l0.1,0.1l0.1,0.1l0.1,0.1l0.1,0.1l0.1,0.1l0.2,0.2l0.1,0.1l0.2,0.2l0.2,0.2c0.2,0.3,0.4,0.5,0.6,0.8
			l0.1,0.1c0,0,0.1,0.1,0.1,0.1l0.1,0.1c0,0.1,0.1,0.1,0.1,0.2l0.1,0.2c0,0,0,0.1,0.1,0.1l0.1,0.1l0,0.1l0.1,0.1l0.1,0.1
			c0.1,0.3,0.3,0.6,0.4,0.9l0.1,0.1c0.1,0.1,0.1,0.2,0.1,0.4c0,0,0,0.1,0,0.1c0,0.1,0,0.1,0.1,0.2l0,0.1c0,0,0,0.1,0,0.1
			c0,0,0,0.1,0,0.1l0,0.2c0,0.1,0.1,0.2,0.1,0.3c0,0.1,0,0.1,0,0.1l0,0.2v0.1v0.1c0,0,0,0.1,0,0.1c0,0,0,0.1,0,0.1v0.1
			c0,0,0,0,0,0.1v0.1v0.1v0.2c0,0.1,0,0.1,0,0.2v0.1c0,0.1,0,0.1,0,0.2c0,0,0,0.1,0,0.1c0,0.1,0,0.1,0,0.2c0,0,0,0.1,0,0.1
			c0,0,0,0.1,0,0.1c0,0.1,0,0.1,0,0.2l0,0c0,0.1,0,0.1,0,0.2L284.2,241.8z"/>
		<path class="st3" d="M284.2,241.8v0.2c0,0,0,0.1,0,0.1c0,0.1,0,0.2,0,0.2v0.1c0,0.1,0,0.1,0,0.2v0.1v0.2c0,0,0,0.1,0,0.1l0,0.4
			l0,0.2v0.1c0,0,0,0,0,0.1c0,0,0,0,0,0.1c0,0,0,0.1,0,0.1v0.1v0.1c0,0.1,0,0.1,0,0.2l0,0v0.1c0,0,0,0.1,0,0.1l0,0.2c0,0,0,0,0,0
			l0,0.2c-0.1,0.2-0.1,0.3-0.2,0.5c-0.1,0.2,0,0.1,0,0.2l0,0.1c0.2-0.9,0.3-1.8,0.3-2.7c0-1-0.1-1.9-0.4-2.9
			c-0.5-1.9-1.5-3.7-2.9-5.1c-0.6-0.6-1.2-1.1-1.9-1.6c-0.2-0.1-0.4-0.2-0.6-0.4c-1.7-0.9-3.5-1.4-5.4-1.4c-1.9,0-3.8,0.5-5.4,1.4
			c-0.4,0.2-0.7,0.4-1.1,0.7c-0.5,0.4-1,0.8-1.5,1.2c-0.4-0.4-0.9-0.8-1.4-1.2c-0.4-0.3-0.8-0.5-1.2-0.7c-1.7-0.9-3.5-1.4-5.4-1.4
			c-1.9,0-3.8,0.5-5.4,1.4c-0.6,0.3-1.1,0.7-1.6,1.1c-0.3,0.3-0.6,0.5-0.9,0.8c-0.5,0.4-0.9,0.9-1.2,1.5c-0.2,0.3-0.4,0.6-0.6,1
			c-0.2,0.3-0.3,0.6-0.5,1c-0.1,0.2-0.2,0.4-0.2,0.6c0-0.1,0-0.1,0.1-0.2c0,0,0-0.1,0-0.1v-0.1l0-0.2c0-0.1,0.1-0.3,0.1-0.4l0.1-0.2
			c0.1-0.2,0.2-0.5,0.3-0.7l0.1-0.1c0-0.1,0.1-0.1,0.1-0.2l0.2-0.3c0,0,0.1-0.1,0.1-0.2l0.1-0.2c0-0.1,0.1-0.1,0.1-0.2
			c0,0,0-0.1,0.1-0.1v-0.1l0.1-0.1l0.1-0.1l0.2-0.3l0.1-0.1l0.1-0.1l0.1-0.1l0.1-0.2c0,0,0.1-0.1,0.1-0.1l0-0.1l0.1-0.1
			c0-0.1,0.1-0.1,0.1-0.1l0.1-0.1l0.1-0.1l0.1-0.1l0.3-0.3l0.1-0.1l0.2-0.2c0,0,0.1-0.1,0.1-0.1l0.2-0.1l0.1-0.1l0.1-0.1l0.2-0.2
			l0.1-0.1l0.5-0.4l0.1-0.1l0.1-0.1l0.1-0.1l0.1-0.1l0.1,0l0.1-0.1c0.1-0.1,0.3-0.2,0.4-0.2l0.1-0.1l0.1-0.1l0.1-0.1l0.1-0.1
			l0.1-0.1l0.1-0.1l0.1-0.1l0.5-0.2l0.1,0l0.1,0l0.1,0h0.1l0.2-0.1h0.1h0.1h0.1l0.2,0l0.2-0.1c0.2-0.1,0.4-0.1,0.6-0.1h0.1h0.1h0.1
			h0.2h0.1c0.2,0,0.4-0.1,0.6-0.1h1.7l0.5,0.1h0.2h0.2h0.1h0.1h0.1c0.2,0,0.4,0.1,0.6,0.1l0.3,0.1h0.1h0.1l0.2,0.1h0.1l0.5,0.2
			l0.1,0l0.1,0.1l0.2,0.1l0.2,0.1l0.1,0l0.1,0.1l0.1,0.1l0.1,0.1l0.1,0.1l0.1,0.1l0.3,0.1l0.1,0.1l0.4,0.2l0.1,0.1l0.1,0.1l0.1,0.1
			l0.1,0.1c0.2,0.1,0.3,0.2,0.4,0.3l0.1,0.1l0.2,0.2l0.1,0.1l0.1,0.1l0.2,0.1l0.1,0.1c0.1,0.1,0.1,0.1,0.2,0.2l0.1,0.1l0.1-0.1
			c0.1-0.1,0.1-0.1,0.2-0.2l0.1-0.1l0.2-0.1l0.1-0.1l0.1-0.1l0.2-0.2l0.1-0.1c0.2-0.1,0.3-0.3,0.5-0.4l0.1-0.1l0.1-0.1l0.1-0.1
			l0.2-0.1l0.1,0l0.1-0.1c0.2-0.1,0.3-0.2,0.5-0.2l0.1-0.1l0.1-0.1l0.1-0.1l0.1-0.1l0.1-0.1l0.1-0.1l0.1-0.1l0.5-0.2l0.1,0l0.1,0
			l0.1,0h0.1l0.2-0.1h0.1h0.1h0.1l0.2,0l0.2-0.1c0.2-0.1,0.4-0.1,0.6-0.1h0.1h0.1h0.1h0.2h0.1c0.2,0,0.4-0.1,0.6-0.1h1.7l0.5,0.1
			h0.2h0.1h0.1h0.1h0.1l0.6,0.1l0.3,0.1h0.1h0.1l0.2,0.1h0.1l0.5,0.2l0.1,0l0.1,0.1l0.2,0.1l0.2,0.1l0.1,0l0.1,0.1l0.1,0.1l0.1,0.1
			l0.1,0.1l0.1,0.1l0.3,0.1l0.1,0.1c0.1,0.1,0.3,0.2,0.4,0.2l0.1,0.1l0.1,0.1l0.1,0.1l0.1,0.1c0.2,0.1,0.3,0.2,0.5,0.3l0.1,0.1
			c0.1,0.1,0.1,0.1,0.2,0.2l0.1,0.1l0.1,0.1l0.1,0.1l0.1,0.1l0.1,0.1l0.1,0.1l0.1,0.1l0.1,0.1l0.1,0.1l0.2,0.2l0.1,0.1l0.2,0.2
			l0.2,0.2c0.2,0.3,0.4,0.5,0.6,0.8l0.1,0.1c0,0,0.1,0.1,0.1,0.1l0.1,0.1c0,0.1,0.1,0.1,0.1,0.2l0.1,0.2c0,0,0,0.1,0.1,0.1l0.1,0.1
			l0,0.1l0.1,0.1l0.1,0.1c0.1,0.3,0.3,0.6,0.4,0.9l0.1,0.1c0.1,0.1,0.1,0.2,0.1,0.4c0,0,0,0.1,0,0.1c0,0.1,0,0.1,0.1,0.2l0,0.1
			c0,0,0,0.1,0,0.1c0,0,0,0.1,0,0.1l0,0.2c0,0.1,0.1,0.2,0.1,0.3c0,0.1,0,0.1,0,0.1l0,0.2v0.1v0.1c0,0,0,0.1,0,0.1c0,0,0,0.1,0,0.1
			v0.1c0,0,0,0,0,0.1v0.1v0.1v0.2c0,0.1,0,0.1,0,0.2v0.1c0,0.1,0,0.1,0,0.2c0,0,0,0.1,0,0.1c0,0.1,0,0.1,0,0.2c0,0,0,0.1,0,0.1
			c0,0,0,0.1,0,0.1c0,0.1,0,0.1,0,0.2l0,0c0,0.1,0,0.1,0,0.2L284.2,241.8z"/>
		<path class="st2" d="M455.7,303.1v0.2c0,0,0,0.1,0,0.1c0,0.1,0,0.2,0,0.2v0.1c0,0.1,0,0.1,0,0.2v0.1v0.2c0,0,0,0.1,0,0.1l0,0.4
			c0,0.1,0,0.2,0,0.2v0.1c0,0,0,0,0,0.1c0,0,0,0,0,0.1c0,0,0,0.1,0,0.1v0.1v0.1c0,0.1,0,0.1,0,0.2c0,0,0,0.1,0,0.1c0,0,0,0.1,0,0.1
			l0,0.2c0,0,0,0,0,0c0,0.1,0,0.1,0,0.2c-0.1,0.2-0.1,0.3-0.2,0.5c0,0,0,0.1-0.1,0.2l0,0.1c-0.4,1-0.9,1.9-1.5,2.7l-0.1,0.2
			c-0.3,0.4-0.6,0.8-1,1.1l-16,16l-16-16c-0.5-0.5-0.9-1-1.3-1.5c-0.2-0.3-0.5-0.7-0.7-1c-1.1-2-1.6-4.2-1.4-6.4
			c0-0.2,0-0.4,0.1-0.6c0-0.4,0.1-0.7,0.2-1.1c0-0.1,0-0.1,0.1-0.2c0,0,0-0.1,0-0.1c0,0,0,0,0-0.1l0-0.2c0-0.1,0.1-0.2,0.1-0.4
			c0-0.1,0-0.1,0.1-0.2c0.1-0.2,0.2-0.5,0.3-0.7l0.1-0.1c0-0.1,0.1-0.1,0.1-0.2c0-0.1,0.1-0.2,0.2-0.3l0.1-0.2l0.1-0.2
			c0-0.1,0.1-0.1,0.1-0.2c0,0,0-0.1,0.1-0.1c0,0,0,0,0-0.1c0,0,0.1-0.1,0.1-0.1l0.1-0.1l0.2-0.3l0.1-0.1l0.1-0.1l0.1-0.1l0.1-0.2
			l0.1-0.1v-0.1l0.1-0.1l0.1-0.1l0.1-0.1l0.1-0.1l0.1-0.1c0.1-0.1,0.2-0.2,0.3-0.3c0,0,0.1-0.1,0.1-0.1c0.1-0.1,0.1-0.1,0.2-0.2
			l0.1-0.1c0,0,0.1-0.1,0.1-0.1l0.1-0.1l0.1-0.1l0.2-0.2l0.1-0.1c0.2-0.1,0.3-0.3,0.5-0.4l0.1-0.1l0.1-0.1l0.1-0.1l0.2-0.1l0.1,0
			l0.1-0.1l0.4-0.2l0.1-0.1l0.1-0.1l0.1-0.1l0.1-0.1l0.1-0.1l0.1-0.1l0.1-0.1l0.5-0.2l0.1,0l0.1,0l0.1,0l0.1,0l0.2-0.1h0.1h0.1h0.1
			l0.2,0l0.2-0.1c0.2-0.1,0.4-0.1,0.6-0.1h0.1h0.1h0.1h0.2h0.1l0.6-0.1h1.7l0.5,0.1h0.2h0.2h0.1h0.1h0.1c0.2,0,0.4,0.1,0.6,0.1
			l0.3,0.1h0.1h0.1l0.2,0.1h0.1l0.5,0.2h0.1l0.1,0.1l0.2,0.1l0.2,0.1l0.1,0l0.1,0.1l0.1,0.1l0.1,0.1l0.1,0.1l0.1,0.1l0.3,0.1
			l0.1,0.1l0.4,0.2l0.1,0.1l0.1,0.1l0.1,0.1l0.1,0.1l0.4,0.3l0.1,0.1l0.2,0.2l0.1,0.1l0.1,0.1l0.2,0.1l0.1,0.1l0.2,0.2
			c0,0,0.1,0.1,0.1,0.1c0,0,0.1-0.1,0.1-0.1l0.2-0.2c0,0,0.1-0.1,0.1-0.1l0.2-0.1l0.1-0.1l0.1-0.1l0.2-0.2l0.1-0.1
			c0.2-0.1,0.3-0.3,0.5-0.4l0.1-0.1l0.1-0.1l0.1-0.1l0.1-0.1l0.1,0l0.1-0.1l0.4-0.2l0.1-0.1l0.1-0.1l0.1-0.1l0.1-0.1l0.1-0.1
			l0.1-0.1l0.1,0l0.5-0.2l0.1,0l0.1,0l0.1,0l0.1,0l0.2-0.1h0.1h0.1h0.1l0.2,0l0.2,0c0.2-0.1,0.4-0.1,0.6-0.1h0.1h0.1h0.1h0.2h0.1
			l0.6-0.1h1.7l0.5,0.1h0.2h0.2h0.1h0.1h0.1c0.2,0,0.4,0.1,0.6,0.1l0.3,0.1h0.1h0.1l0.2,0.1h0.1l0.5,0.2h0.1l0.1,0.1l0.2,0.1
			l0.2,0.1l0.1,0l0.1,0.1l0.1,0l0.1,0.1l0.1,0.1l0.1,0.1l0.3,0.1l0.1,0.1c0.1,0.1,0.3,0.2,0.4,0.2l0.1,0.1l0.1,0.1l0.1,0.1l0.1,0.1
			l0.4,0.3l0.1,0.1l0.2,0.2l0.1,0.1l0.1,0.1l0.1,0.1l0.1,0.1c0,0,0,0.1,0.1,0.1l0,0c0,0,0.1,0.1,0.1,0.1l0.1,0.1l0.1,0.1l0.1,0.1
			l0.2,0.2l0.1,0.1c0.1,0.1,0.1,0.1,0.2,0.2l0.2,0.2c0.2,0.3,0.4,0.5,0.6,0.8c0,0,0.1,0.1,0.1,0.1l0.1,0.1l0.1,0.1
			c0,0.1,0.1,0.1,0.1,0.2l0.1,0.2l0.1,0.1l0,0.1l0,0.1l0.1,0.1l0.1,0.1c0.1,0.3,0.3,0.6,0.4,0.9c0,0,0,0.1,0.1,0.1
			c0,0.1,0.1,0.2,0.1,0.4l0,0.1c0,0.1,0,0.1,0.1,0.2l0,0.1v0.1c0,0,0,0.1,0,0.1l0,0.2c0,0.1,0.1,0.2,0.1,0.3s0,0.1,0,0.1l0,0.2v0.1
			v0.1c0,0,0,0.1,0,0.1s0,0.1,0,0.1v0.1c0,0,0,0.1,0,0.1v0.1v0.1v0.2v0.2v0.1c0,0.1,0,0.1,0,0.2s0,0.1,0,0.1s0,0.1,0,0.2
			c0,0,0,0.1,0,0.1v0.1c0,0.1,0,0.1,0,0.2c0,0.1,0,0.1,0,0.2L455.7,303.1z"/>
		<path class="st3" d="M455.7,303.1v0.2c0,0,0,0.1,0,0.1c0,0.1,0,0.2,0,0.2v0.1c0,0.1,0,0.1,0,0.2v0.1v0.2c0,0,0,0.1,0,0.1l0,0.4
			c0,0.1,0,0.2,0,0.2v0.1c0,0,0,0,0,0.1c0,0,0,0,0,0.1c0,0,0,0.1,0,0.1v0.1v0.1c0,0.1,0,0.1,0,0.2c0,0,0,0.1,0,0.1c0,0,0,0.1,0,0.1
			l0,0.2c0,0,0,0,0,0c0,0.1,0,0.1,0,0.2c-0.1,0.2-0.1,0.3-0.2,0.5c0,0,0,0.1-0.1,0.2l0,0.1c0.2-0.9,0.3-1.8,0.3-2.7
			c0-1.9-0.5-3.7-1.4-5.4c-0.9-1.6-2.2-3-3.8-4.1c-0.2-0.1-0.4-0.3-0.6-0.4c-1.7-0.9-3.5-1.4-5.4-1.4c-1.9,0-3.8,0.5-5.4,1.4
			c-0.4,0.2-0.7,0.4-1.1,0.7c-0.5,0.4-1,0.8-1.5,1.2c-0.4-0.4-0.9-0.8-1.4-1.2l0,0c-0.4-0.3-0.8-0.5-1.2-0.7
			c-1.7-0.9-3.5-1.4-5.4-1.4s-3.8,0.5-5.4,1.4c-0.6,0.3-1.1,0.7-1.6,1.1c-0.3,0.3-0.6,0.5-0.9,0.8c-0.5,0.4-0.9,0.9-1.2,1.5
			c-0.2,0.3-0.4,0.6-0.6,1l0,0c-0.2,0.3-0.3,0.6-0.5,1c-0.1,0.2-0.2,0.4-0.2,0.6c0-0.1,0-0.1,0.1-0.2c0,0,0-0.1,0-0.1c0,0,0,0,0-0.1
			l0-0.2c0-0.1,0.1-0.2,0.1-0.4c0-0.1,0-0.1,0.1-0.2c0.1-0.2,0.2-0.5,0.3-0.7l0.1-0.1c0-0.1,0.1-0.1,0.1-0.2c0-0.1,0.1-0.2,0.2-0.3
			l0.1-0.2l0.1-0.2c0-0.1,0.1-0.1,0.1-0.2c0,0,0-0.1,0.1-0.1c0,0,0,0,0-0.1c0,0,0.1-0.1,0.1-0.1l0.1-0.1l0.2-0.3l0.1-0.1l0.1-0.1
			l0.1-0.1l0.1-0.2l0.1-0.1v0l0.1-0.1l0.1-0.1l0.1-0.1l0.1-0.1l0.1-0.1c0.1-0.1,0.2-0.2,0.3-0.3c0,0,0.1-0.1,0.1-0.1
			c0.1-0.1,0.1-0.1,0.2-0.2l0.1-0.1c0,0,0.1-0.1,0.1-0.1l0.1-0.1l0.1-0.1l0.2-0.2l0.1-0.1c0.2-0.1,0.3-0.3,0.5-0.4l0.1-0.1l0.1-0.1
			l0.1-0.1l0.2-0.1l0.1,0l0.1-0.1l0.4-0.2l0.1-0.1l0.1-0.1l0.1-0.1l0.1-0.1l0.1-0.1l0.1-0.1l0.1-0.1l0.5-0.2l0.1,0l0.1,0l0.1,0
			l0.1,0l0.2-0.1h0.1h0.1h0.1l0.2,0l0.2-0.1c0.2-0.1,0.4-0.1,0.6-0.1h0.1h0.1h0.1h0.2h0.1l0.6-0.1h1.7l0.5,0.1h0.2h0.2h0.1h0.1h0.1
			c0.2,0,0.4,0.1,0.6,0.1l0.3,0.1h0.1h0.1l0.2,0.1h0.1l0.5,0.2h0.1l0.1,0.1l0.2,0.1l0.2,0.1l0.1,0l0.1,0.1l0.1,0l0.1,0.1l0.1,0.1
			l0.1,0.1l0.3,0.1l0.1,0.1l0.4,0.2l0.1,0.1l0.1,0.1l0.1,0.1l0.1,0.1l0.4,0.3l0.1,0.1l0.2,0.2l0.1,0.1l0.1,0.1l0.2,0.1l0.1,0.1
			l0.2,0.2c0,0,0.1,0.1,0.1,0.1c0,0,0.1-0.1,0.1-0.1l0.2-0.2c0,0,0.1-0.1,0.1-0.1l0.2-0.1l0.1-0.1l0.1-0.1l0.2-0.2l0.1-0.1
			c0.2-0.1,0.3-0.3,0.5-0.4l0.1-0.1l0.1-0.1l0.1-0.1l0.1-0.1l0.1,0l0.1-0.1l0.4-0.2l0.1-0.1l0.1-0.1l0.1-0.1l0.1,0l0.1-0.1l0.1-0.1
			l0.1-0.1l0.5-0.2l0.1,0l0.1,0l0.1,0l0.1,0l0.2-0.1h0.1h0.1h0.1l0.2,0l0.2-0.1c0.2-0.1,0.4-0.1,0.6-0.1h0.1h0.1h0.1h0.2h0.1
			l0.6-0.1h1.7l0.5,0.1h0.2h0.2h0.1h0.1h0.1c0.2,0,0.4,0.1,0.6,0.1l0.3,0.1h0.1h0.1l0.2,0.1h0.1l0.5,0.2h0.1l0.1,0.1l0.2,0.1
			l0.2,0.1l0.1,0l0.1,0.1l0.1,0.1l0.1,0.1l0.1,0.1l0.1,0.1l0.3,0.1l0.1,0.1c0.1,0.1,0.3,0.2,0.4,0.2l0.1,0.1l0.1,0.1l0.1,0.1
			l0.1,0.1l0.4,0.3l0.1,0.1l0.2,0.2l0.1,0.1l0.1,0.1l0.1,0.1l0.1,0.1c0,0,0,0,0.1,0.1l0,0c0,0,0.1,0.1,0.1,0.1l0.1,0.1l0.1,0.1
			l0.1,0.1l0.2,0.2l0.1,0.1c0.1,0.1,0.1,0.1,0.2,0.2l0.2,0.2c0.2,0.3,0.4,0.5,0.6,0.8c0,0,0.1,0.1,0.1,0.1l0.1,0.1l0.1,0.1
			c0,0.1,0.1,0.1,0.1,0.2l0.1,0.2l0.1,0.1l0,0.1l0,0.1l0.1,0.1l0.1,0.1c0.1,0.3,0.3,0.6,0.4,0.9c0,0,0,0.1,0.1,0.1
			c0.1,0.1,0.1,0.2,0.1,0.4l0,0.1c0,0.1,0,0.1,0.1,0.2l0,0.1v0.1c0,0,0,0.1,0,0.1l0,0.2c0,0.1,0.1,0.2,0.1,0.3s0,0.1,0,0.1l0,0.2
			v0.1v0.1c0,0,0,0.1,0,0.1s0,0.1,0,0.1v0.1c0,0,0,0.1,0,0.1v0.1v0.1v0.2v0.2v0.1c0,0.1,0,0.1,0,0.2c0,0.1,0,0.1,0,0.1s0,0.1,0,0.2
			c0,0,0,0.1,0,0.1v0.1c0,0.1,0,0.1,0,0.2l0,0c0,0.1,0,0.1,0,0.2L455.7,303.1z"/>
		
			<linearGradient id="SVGID_1_" gradientUnits="userSpaceOnUse" x1="330.4125" y1="7.425" x2="330.4125" y2="489.6779" gradientTransform="matrix(1 0 0 -1 0 618)">
			<stop  offset="0" style="stop-color:#808080;stop-opacity:0.25"/>
			<stop  offset="0.54" style="stop-color:#808080;stop-opacity:0.12"/>
			<stop  offset="1" style="stop-color:#808080;stop-opacity:0.1"/>
		</linearGradient>
		<path class="st4" d="M407.6,306.5c-2.3-2.4-4.8-4.6-7.4-6.6c0.3-3.9,1-13.2,1.1-15c0.1-2.3-3.3-5.2-10.4-7.9
			c-7.2-2.7-5.1,9.8-5,10.9c0.1,1.1,1.7,4.5,4.4,5.6c1,0.4,1.2,0.9,1.2,1.4l-0.2,0c-5.9-0.7-8.6-2.1-8.6-2.1s-2.2,6.5-2.2,9.7
			c0,0.2,0,0.3,0,0.5c-0.1,0.6,0,1.1,0.2,1.7h0.5c0.1,0.8-0.1,1.7-0.4,2.5l0,0c-0.2,0.6-0.5,1.2-0.7,1.8c-0.2-1.8-0.3-3.6-0.3-5.4
			c0.1-1.7-2.7-8.8-2.7-8.8s-1.2-0.5-3.6-3.3c-2.4-2.8-4.4-3.9-6-4.5c-1.6-0.6-7.6-8.4-10.1-10.2c-2-1.5-2.8-0.6-3-0.2l-0.1,0.1
			c-1.1-1.6-2-3.1-2-4.2c0-0.8,0.1-2.4,0.2-4.5c0.9,0.7,1.7,1.4,2.4,2.2c1.7,1.9,2.9,4.1,4.7,5.8c1.4,1.4,3.2,2.2,5.2,2.3
			c0.6,0,1.3-0.1,1.9-0.3c2.4-0.9,4-3.9,6.5-4c2,0.1,3.5,2,5.1,3.2c1.2,0.9,2.7,1.5,4.2,1.5c0.6,0,1.2-0.1,1.8-0.3
			c1.9-0.7,3.2-3,2.3-4.8c-1.3-2.8-5.9-2.2-7.8-4.6c-0.2-0.2-0.4-0.5-0.5-0.8c-0.1-0.3-0.1-0.6,0-1c0.1-0.2,0.2-0.5,0.5-0.6
			c0.2-0.2,0.5-0.2,0.7-0.2c0.9,0.1,1.8,0.5,2.4,1.2c0.9,1,2.2,2.2,3.3,2c0.3,0,0.7,0,1-0.2c0-0.9,0.1-1.7,0.1-2.6
			c1.2,0.7,2.6,1.1,4,1.1c0.3,0,0.5,0,0.8,0c1.5-0.2,3-1.6,2.8-3.1c0.7,0.6,1.5,0.8,2.4,0.8c0.4,0,0.8,0,1.2-0.1
			c0.6-0.2,1.2-0.6,1.6-1.2c0.4-0.5,0.7-1.2,0.7-1.9c0.1-1.6-0.9-3.1-1.8-4.4l-4.8-6.5c-0.5-0.5-0.7-1.2-0.7-1.9
			c0.2-0.5,0.4-1,0.8-1.5c1.3-1.9,0.7-4.7-1-6.2c-1.6-1.6-4.1-2.1-6.3-2.1c-1.7,0-3.6,0.3-5-0.7c-1.1-0.7-1.6-2.1-2-3.4
			c-1-3.8-1.1-7.8-1.8-11.7c-0.7-3.9-2.2-7.9-5.4-10.2c-0.7-0.6-1.6-1-2.5-1.1c-0.8,0-1.5,0.1-2.3,0.2c-2.6,0.1-4.9-1.7-6.6-3.7
			c-1.6-2-2.9-4.4-4.8-6.2c-2.8-2.8-7.4-3.6-11.1-2.6c-1.7,0.5-3.1,1.9-4.8,1.9c-2.6,0.1-5.4-0.5-7.9-0.7c-2.4-0.2-4.9-0.4-7.3,0.2
			c-1.1,0.2-2.1,0.7-2.9,1.3c-0.9,0.7-1.6,1.5-2.1,2.4l-0.6-5.2c0,0-1.3-9.9-1.9-10.7c-0.4-0.6-0.2-1.4,0.1-2.3l0.1,0.1
			c0.1-0.3,0.2-0.5,0.3-0.8c0-0.2,0-0.4,0-0.6c0.2-2-3.4-14.6-3.4-14.6H311c0-0.2-0.1-0.3-0.1-0.5c-0.9-5.1-2.5-13.2-3.6-15.1
			c-0.7-1.3-0.8-3.2-0.7-4.9c0.2-1.9,0.2-3.8,0.2-5.8c0-0.9,0-1.9,0.1-2.8c0.1-0.7,0-1.4-0.3-2s-0.7-1.2-1.3-1.6
			c-4.2-3.1-14.6-10.3-20.6-10.5c-7.7-0.2,2.4,13.3,2.3,14.6c-0.1,1.3,7.7,2.4,7.7,2.4s0.5,3.9,0.9,6.1c0.3,1.5,0.9,12.9,1.2,19.7
			c-1.9-0.2-5.2-2-5.2-2s-9-2.4-9.8,0s11,14.2,11,14.2s4.2,11,2.9,14.5c-1.3,3.5-0.3,20-0.3,20s0.1,19.6,1,24.6
			c0.9,5-1.6,7.8-1.6,7.8s-1,12.3,0,13.5c1.1,1.4,2,3,2.8,4.6l0.3,0.6c-3.4,4.2-6.8,8.1-8.6,8.7c-3.5,1-27.2,10.9-27.2,10.9
			s-7.7,7.4-8.9,7.4s7,7.9,7,7.9s7.4,5.9,8.2,6.8c0.8,0.9,21.1,12,21.1,12s3.5,1,3.8,2.1c0.3,1,5,3.9,5,3.9s3.5,4.1,4.5,6.7
			c0,0.2,0,0.3,0,0.5c0,0.7,0.1,1.1,0.1,0.9c0.6,1.7,4.8,6,2.8,9.1c-0.9,1.5,0,4.1,1.8,6.2c-0.5,2.6-1.2,5.6-1.9,6.5
			c-1.4,1.9-0.8,4.5-2.2,4.8c-1.4,0.3-1.9,7.1-1.9,7.1l-1.2,15c0,0-0.3,3.1-2,3.9c-1.7,0.8,0,4.9,0,4.9s-1.8,3.6-0.7,5.6
			c1.1,2-2.2,11.3-2.2,11.3s-1.4,17.9,0,20.4c1.3,2.5,2,5.1,2.2,7.9c0,1.5,0.8,30.5,0.8,30.5s-1.9,11.8-2.5,13.9
			c-0.6,2.2,1.7,7,0.2,9.4c-1.5,2.5-1.2,8-1.2,8s-2.3,21.8-0.9,29.9c1.4,8-0.4,9.7-0.4,9.7c1,0.5,2,1,3,1.3c0,0.3,0.1,0.6,0.1,1
			c0.7,6.8,1.8,18.4,0.8,21c-1,2.7-1.2,7.7-1.3,10.6c0,0.2,0,0.3,0,0.5l-2.7,4.4c0,0-0.5,3.8-1.2,4.5c-0.7,0.6-6.5,11.1-7.3,12.5
			l-0.1,0.1c0,0-5.9,10.8,8.6,11.1c14.5,0.3,12.6-7.1,12.6-7.1s0-1.5,0.2-3.2c0.2-2.2,0.5-4.8,1.1-5.5c1-1.2,3.9-7,3.9-7v-8.5h-0.9
			c0-0.1,0-0.3,0.1-0.5c0.1-1.8,0.4-3.5,0.8-5.3c0.5-1.1-1-7.6-1-7.6s0.3-12.5,1.8-20.4c0.1-0.3,0.1-0.7,0.2-1
			c1.1-0.5,2.1-1,3.1-1.6c0,0,0-15.8,1.9-18.6c1.9-2.8,1.5-10.7,1.5-10.7s0.5-7,1.8-8.4c1.4-1.4,1.1-7.6,1.1-7.6s1.2-4,2.6-7.3
			c1.4-3.2,2.2-12.4,2.2-12.4c0.5-1.6,1.2-3.1,2.2-4.5c1.5-2.2,0-7,0-7s-1.7-3.1-0.6-6.2c1.1-3.1,7.1-28.2,7.1-28.2l2.3-9l3.4,11.4
			c0,0-0.5,8.2,0,10.5c0.5,2.3,3.7,7.3,3.7,7.3v24.3c0,0,0.3,16.4,1.5,19c1.2,2.6,1.8,12.4,1.8,12.4s4.2,28.6,1.5,32.8
			c1.3,0.9,2.8,1.7,4.3,2.3v16.9c0,0-3,10.2-2,17.1c0,0.1,0,0.3,0.1,0.4c-0.3,0.2-0.6,0.4-0.8,0.3l0.5,11.6c0,0,0.1,6.4-1.1,9.8
			c-0.4,1.2-0.7,2.4-0.7,3.7c-0.3,4.6,1.5,10.9,11.6,10.2c13.5-0.9,11.4-9.4,11.4-9.4s0-0.3-0.1-0.9c-0.3-4.4-1.4-8.7-3.3-12.6
			c-3.2-6.3-2.8-14.2-2.8-14.2c-0.3,0.1-0.5,0.2-0.8,0.2c0-0.2,0-0.3,0-0.5c0.2-2.2,0.4-5,0.7-6.3c0.5-2.3,0-7.7,0-7.7l1.7-16.9
			l0.1-0.9c0.8-0.4,1.6-0.9,2.4-1.5c-0.5-1.5-0.8-3.1-0.9-4.7c-0.1-1.1,0.2-2.1,0.9-3c2-2,3.4-27.2,3.4-27.2s1.1-8.9,1.1-11.9
			c0-0.2,0-0.4,0-0.5c-0.1-1.8-1.1-8.9-1.1-13c0-0.9,0.1-1.7,0.3-2.6c0.9-2.3,2.2-46,2.2-46l1.5-19.3v-15.9c0-7.6-0.9-15.2-2.8-22.5
			c4.2,2.2,11.4,7.1,12.7,5.8c1.6-1.6,2.4-29.5,2-32.3c0-0.2-0.1-0.3-0.1-0.6c-0.1-0.5-0.3-1.2-0.5-2l0.6-1.1
			c3.2-5.5,8-14.1,8.4-16.7c0.4-2.9,1-10.4,2.1-13.7c0.1-0.3,0.2-0.5,0.3-0.8c0.3-0.6,0.6-0.9,0.9-0.8c2,0.5,3.2,2,4.3,1.4
			c0.1,0,0.1-0.1,0.1-0.1c0.1-0.1,0.2-0.2,0.3-0.4l0,0c0.1-0.2,0.2-0.3,0.2-0.5l0,0c0.1-0.2,0.1-0.4,0.2-0.6v-0.1
			c0-0.1,0.1-0.2,0.1-0.3c0,0,0-0.1,0-0.1c0-0.1,0-0.2,0.1-0.2l0-0.2v-0.1c0.2-0.8,0.3-1.7,0.4-2.3c0-0.2,0.1-0.4,0.1-0.5
			L407.6,306.5L407.6,306.5z"/>
		
			<linearGradient id="SVGID_2_" gradientUnits="userSpaceOnUse" x1="302.9922" y1="-382.71" x2="302.9922" y2="-380.178" gradientTransform="matrix(1 0 0 -1 0 618)">
			<stop  offset="0" style="stop-color:#808080;stop-opacity:0.25"/>
			<stop  offset="0.54" style="stop-color:#808080;stop-opacity:0.12"/>
			<stop  offset="1" style="stop-color:#808080;stop-opacity:0.1"/>
		</linearGradient>
		<path class="st5" d="M303.1,337.6c0.1-0.4,0-0.9-0.2-1.3C303,337.3,303,337.8,303.1,337.6z"/>
		<path class="st6" d="M390.2,298.2c0,0,2.7-1.9,0.1-3c-2.7-1.1-4.3-4.5-4.4-5.6c-0.1-1.1-2.2-13.5,5-10.9
			c7.2,2.7,10.5,5.5,10.4,7.8c-0.1,2.3-1.2,16.6-1.2,16.6L390.2,298.2z"/>
		<path class="st0" d="M407.6,308c0,0,0,0.3-0.1,0.8c-0.2,1.5-0.7,4.4-1.5,4.9c-1,0.6-2.3-0.9-4.3-1.4c-0.3-0.1-0.7,0.2-0.9,0.8
			c-0.1,0.2-0.2,0.5-0.3,0.8c-1.1,3.3-1.7,10.8-2.1,13.7c-0.4,2.5-5.2,11.2-8.4,16.6c-0.5,0.8-0.9,1.6-1.3,2.2
			c-0.9,1.5-1.5,2.4-1.5,2.4l-8-15v-22.1c0.6-1,1.1-2,1.5-3.1l0,0c0.3-0.8,0.5-1.6,0.4-2.5c0-0.3-0.2-0.5-0.3-0.7
			c-0.1-0.1-0.1-0.1-0.2-0.2c0-0.1-0.1-0.1-0.1-0.2c-0.1-0.2-0.1-0.4-0.1-0.6c0-0.1,0-0.3,0-0.5c0-3.1,2.2-9.6,2.2-9.6
			s2.7,1.4,8.6,2.1C397.1,297.2,407.6,308,407.6,308z"/>
		<path class="st3" d="M407.5,308.9c-0.2,1.5-0.7,4.4-1.5,4.9c-1,0.6-2.3-0.9-4.3-1.4c-0.3-0.1-0.7,0.2-0.9,0.8
			c-0.1,0.2-0.2,0.5-0.3,0.8c-4-1.9-10.9-5.4-11.3-6.4c-0.4-1-5.3-1.2-8-1.3h-0.5c-0.2-0.5-0.2-1.1-0.2-1.7c0.2-3.2,2.2-9.2,2.2-9.2
			s2.7,1.4,8.6,2.1C396.8,298.1,406.4,307.8,407.5,308.9z"/>
		<path class="st0" d="M407.6,308c0,0-0.6,5.1-1.6,5.7s-2.3-0.9-4.3-1.4c-0.3-0.1-0.7,0.2-0.9,0.8c-3.9-1.9-11.2-5.6-11.6-6.6
			c-0.4-1-5.9-1.2-8.5-1.3c-1-2,2-10.9,2-10.9s2.7,1.4,8.6,2.1S407.6,308,407.6,308z"/>
		<path class="st0" d="M388,380c-1.6,1.6-12.1-6.2-15-6.7c-2.9-0.5-13.4-44.3-13.4-44.3l1.6-24.7l-6.1-22.7l-0.8-3
			c0,0,0.6-1.8,3.1,0c2.5,1.8,8.5,9.6,10.1,10.1c1.6,0.6,3.6,1.7,6,4.5c2.4,2.8,3.6,3.2,3.6,3.2s2.8,7,2.7,8.8
			c-0.1,1.7,0.9,13.5,2.2,14.6c1.2,1,3.4,10.5,3.4,10.5s3.8,13.3,4.6,17.1c0.1,0.2,0.1,0.4,0.1,0.6C390.4,350.6,389.6,378.4,388,380
			z"/>
		<path class="st3" d="M369.9,324.9l7.6,2c0,0,1.5,13.2,2,13.9c0.5,0.7,2.4,27.7,2.4,27.7l-12-5.4l-4.5-14.5v-16.1L369.9,324.9z"/>
		<path class="st6" d="M313.1,538.6c-0.5,1.4-0.9,2.9-1.1,4.4c-1.5,7.9-1.8,20.3-1.8,20.3s1.5,6.5,1,7.5c-0.4,1.7-0.7,3.5-0.8,5.2
			c-0.1,1.1-0.2,2-0.2,2l-14.1-0.9c0,0,0-0.8,0-2.1c0.1-2.8,0.4-7.9,1.3-10.5c1-2.7-0.1-14.3-0.8-21c-0.3-2.9-0.6-4.9-0.6-4.9
			S315.5,532.4,313.1,538.6z"/>
		<path class="st6" d="M368.1,542.4l-1.7,16.9c0,0,0.5,5.4,0,7.7c-0.3,1.3-0.5,4.1-0.7,6.3c-0.1,1.6-0.2,2.9-0.2,2.9
			s-10.8,7.5-13.3,0.9c-0.3-0.8-0.5-1.6-0.6-2.5c-1-6.9,2-17.1,2-17.1v-21.7l15,2.4L368.1,542.4z"/>
		<path class="st3" d="M313.1,538.6c-0.5,1.4-0.9,2.9-1.1,4.4c-4.8,2-10.3,2.3-15.3,0.6c-0.3-2.9-0.6-4.9-0.6-4.9
			S315.5,532.4,313.1,538.6z"/>
		<path class="st3" d="M368.6,538.3l-0.4,4.1c-5.2,2.4-10.8,0.9-14.5-0.7v-5.8L368.6,538.3z"/>
		<path class="st7" d="M308.4,348.8c0,0-1.2,9.1-2.6,10.9c-1.4,1.9-0.8,4.5-2.2,4.8s-1.9,7.1-1.9,7.1l-1.2,14.9c0,0-0.3,3.1-2,3.8
			c-1.7,0.8,0,4.9,0,4.9s-1.8,3.5-0.7,5.5c1.1,2-2.2,11.2-2.2,11.2s-1.4,17.9,0,20.3c1.3,2.4,2,5.1,2.2,7.9c0,1.5,0.8,30.3,0.8,30.3
			s-1.9,11.7-2.5,13.9c-0.6,2.2,1.7,6.9,0.2,9.4c-1.5,2.5-1.2,8-1.2,8s-2.4,21.7-1,29.7c1.4,8-0.4,9.7-0.4,9.7
			c3.4,1.8,7.2,2.6,11,2.5c3.8-0.2,7.5-1.3,10.7-3.4c0,0,0-15.7,1.9-18.5c1.9-2.8,1.5-10.6,1.5-10.6s0.5-6.9,1.8-8.3
			c1.4-1.4,1.1-7.5,1.1-7.5s1.2-4,2.6-7.3c1.4-3.3,2.2-12.3,2.2-12.3c0.5-1.6,1.2-3.1,2.2-4.5c1.5-2.2,0-6.9,0-6.9s-1.7-3.1-0.6-6.2
			c1.1-3.1,7.1-28,7.1-28l2.3-8.9l3.4,11.4c0,0-0.5,8.2,0,10.5c0.5,2.3,3.7,7.3,3.7,7.3v24.2c0,0,0.3,16.3,1.5,18.9
			c1.2,2.6,1.8,12.3,1.8,12.3s4.2,28.5,1.5,32.7c0,0,11.9,8.5,21.3,1.5c0,0-2-5.7,0-7.7c2-2,3.4-27.1,3.4-27.1s1.2-10,1.1-12.3
			c-0.2-2.3-1.7-13.2-0.8-15.5c0.9-2.3,2.2-45.7,2.2-45.7l1.5-19.2v-15.7c0-8.5-1.2-17-3.5-25.2c-2.6-9.2-6.2-19.7-9.3-20.4
			C365.3,351,317.5,356.3,308.4,348.8z"/>
		<path class="st3" d="M310.4,576c-0.1,1.1-0.2,2-0.2,2l-14.1-0.9c0,0,0-0.8,0-2.1c6.6-5.9,13.2,1,13.2,1H310.4z"/>
		<path class="st7" d="M311.3,576.5v8.5c0,0-2.9,5.8-3.9,7c-0.6,0.7-0.9,3.3-1.1,5.5c-0.1,1.7-0.2,3.2-0.2,3.2s1.9,7.4-12.6,7.1
			c-14.5-0.3-8.6-11-8.6-11l0.1-0.1c0.7-1.3,6.6-11.8,7.3-12.4c0.7-0.6,1.2-4.4,1.2-4.4l2.7-4.4c6.6-5.9,13.3,1,13.3,1L311.3,576.5z
			"/>
		<path class="st3" d="M306.1,600.7c0,0,1.9,7.4-12.6,7.1c-14.5-0.3-8.6-11-8.6-11l0.1-0.1c0.4,2.2,2.1,4.4,7.5,4.1
			c7.4-0.4,11.9-2.3,13.8-3.3C306.2,599.3,306.1,600.7,306.1,600.7z"/>
		<path class="st3" d="M365.7,573.2c-0.1,1.6-0.2,2.9-0.2,2.9s-10.8,7.5-13.3,0.9c-0.3-0.8-0.5-1.6-0.6-2.5c0.2-0.2,0.4-0.3,0.6-0.5
			c1.8-2.6,11.2-2.7,11.6-1.5C364.1,573.4,365,573.4,365.7,573.2z"/>
		<path class="st7" d="M361.2,610.5c-10.2,0.6-11.9-5.6-11.6-10.2c0.1-1.2,0.3-2.5,0.7-3.7c1.2-3.4,1.1-9.8,1.1-9.8l-0.5-11.5
			c0.4,0.2,1.3-0.8,1.3-0.8c1.8-2.6,11.2-2.7,11.6-1.5c0.5,1.2,2.6,0.4,2.6,0.4s-0.5,7.9,2.8,14.2c1.9,3.9,3,8.2,3.3,12.6
			c0,0.6,0.1,0.9,0.1,0.9S374.7,609.7,361.2,610.5z"/>
		<path class="st3" d="M361.2,610.5c-10.2,0.6-11.9-5.6-11.6-10.2c0,0,2.6,4.5,12,3.4c3.9-0.4,7.6-1.6,11-3.5c0,0.6,0.1,0.9,0.1,0.9
			S374.7,609.7,361.2,610.5z"/>
		<g class="st8">
			<path class="st3" d="M371.7,362.4c-2.1-6-4.4-10.9-6.4-11.3l-1.8,0.2c1.9,1,4,5.6,5.9,11.1c4.2,12.2,6.4,25,6.3,37.9v12.1
				l-1.5,19.2c0,0-1.2,43.4-2.2,45.7c-0.9,2.3,0.6,13.2,0.8,15.6c0.2,2.3-1.1,12.3-1.1,12.3s-1.4,25.1-3.4,27.1c-2,2,0,7.7,0,7.7
				c-2.1,1.6-4.6,2.5-7.3,2.7c3.4,0.3,6.8-0.7,9.6-2.7c0,0-2-5.7,0-7.7s3.4-27.1,3.4-27.1s1.2-10,1.1-12.3
				c-0.2-2.3-1.7-13.2-0.8-15.6c0.9-2.3,2.2-45.7,2.2-45.7l1.5-19.2v-12.1C378.1,387.4,376,374.6,371.7,362.4L371.7,362.4z"/>
		</g>
		<g class="st8">
			<path class="st3" d="M296.4,541.2c0,0,1.8-1.7,0.4-9.7c-1.4-8,0.9-29.7,0.9-29.7s-0.3-5.5,1.2-8c1.5-2.4-0.8-7.3-0.2-9.4
				c0.6-2.1,2.5-13.9,2.5-13.9s-0.8-28.8-0.8-30.4c-0.2-2.7-0.9-5.4-2.2-7.8c-1.4-2.5,0-20.3,0-20.3s3.2-9.2,2.2-11.2
				c-1.1-2,0.7-5.5,0.7-5.5s-1.7-4.2,0-4.9c1.7-0.8,2-3.8,2-3.8l1.2-14.9c0,0,0.5-6.8,1.9-7.1c1.4-0.3,0.8-2.9,2.2-4.8
				c1-1.4,2-6.9,2.4-9.5c-0.9-0.4-1.8-0.8-2.6-1.5c0,0-1.2,9.1-2.6,10.9c-1.4,1.9-0.8,4.5-2.2,4.8c-1.4,0.3-1.8,7.1-1.8,7.1
				l-1.2,14.9c0,0-0.3,3.1-2,3.8c-1.7,0.8,0,4.9,0,4.9s-1.8,3.5-0.7,5.5c1.1,2-2.2,11.2-2.2,11.2s-1.4,17.9,0,20.3
				c1.3,2.4,2,5.1,2.2,7.8c0,1.5,0.8,30.3,0.8,30.3s-1.9,11.7-2.5,13.9c-0.6,2.2,1.7,6.9,0.2,9.4c-1.5,2.5-1.2,8-1.2,8
				s-2.3,21.7-0.9,29.7c1.4,8-0.4,9.7-0.4,9.7c3.5,1.9,7.5,2.7,11.4,2.4C302,543.5,299.1,542.7,296.4,541.2L296.4,541.2z"/>
		</g>
		<path class="st7" d="M355.8,205c1.9,1.8,3.2,4.2,4.8,6.2c1.6,2,4,3.8,6.6,3.7c0.8-0.1,1.5-0.2,2.3-0.2c0.9,0.1,1.8,0.5,2.5,1.1
			c3.2,2.4,4.7,6.3,5.4,10.2c0.7,3.8,0.7,7.9,1.8,11.7c0.3,1.3,0.9,2.6,2,3.4c1.4,1,3.3,0.7,5,0.6c2.3,0,4.7,0.5,6.3,2.1
			c1.6,1.6,2.3,4.4,1,6.2c-0.4,0.4-0.6,0.9-0.8,1.4c0,0.3,0.1,0.7,0.2,1c0.1,0.3,0.3,0.6,0.6,0.9l4.8,6.5c1,1.3,2,2.7,1.8,4.4
			c0,0.7-0.3,1.3-0.7,1.9c-0.4,0.5-1,0.9-1.6,1.1c-0.6,0.2-1.3,0.2-2,0c-0.7-0.2-1.2-0.6-1.7-1.1c0.5,1.6-1.1,3.3-2.7,3.5
			c-1.7,0.2-3.3-0.5-4.8-1.3l-0.1,2.7c-1.4,0.7-2.9-0.7-4-1.9c-1.1-1.1-3.4-1.8-3.9-0.3c-0.1,0.3-0.1,0.6,0,1
			c0.1,0.3,0.2,0.6,0.5,0.8c1.9,2.4,6.5,1.8,7.8,4.6c0.9,1.8-0.4,4.1-2.3,4.8c-1.9,0.7-4.1,0-5.7-1.2c-1.6-1.2-3.2-3.2-5.3-3.2
			c-2.6,0-4.2,3-6.7,4c-2.3,0.9-5-0.3-6.8-2s-3.1-3.9-4.7-5.7c-4.3-4.7-10.8-6.6-16.9-8.6c-6.1-2-12.5-4.8-15.6-10.4
			c-1-1.7-1.6-3.6-2.8-5.2c-2-2.7-5.5-3.9-7.7-6.4c-1.2-1.4-2-3.2-2.3-5.1c-0.3-1.9,0-3.8,0.8-5.5c1.1-2.2,2.9-4,4.4-6
			c2.5-3.4,3.9-7.5,3.9-11.8c0-1.6-0.2-3.2,0.3-4.8c0.8-2.3,3-3.8,5.4-4.4c2.4-0.6,4.8-0.4,7.3-0.2c2.6,0.2,5.4,0.8,7.9,0.7
			c1.8-0.1,3.1-1.5,4.8-1.9C348.4,201.4,353,202.2,355.8,205z"/>
		<g class="st8">
			<path class="st3" d="M376.2,224.1c0.7,3.9,0.7,7.9,1.8,11.6c0.2,0.9,0.6,1.8,1.2,2.6c-0.1-0.3-0.2-0.5-0.2-0.8
				c-1-3.8-1.1-7.8-1.8-11.7c-0.4-2.3-1.2-4.6-2.3-6.7C375.4,220.8,375.9,222.5,376.2,224.1z"/>
			<path class="st3" d="M392.3,248.1c-0.4,0.4-0.7,0.9-0.8,1.5c0,0.3,0.1,0.7,0.2,1c0.1,0.3,0.3,0.6,0.6,0.9
				c0.1,0.1,0.1,0.2,0.2,0.3c0-0.1,0-0.2,0-0.3c0.2-0.5,0.4-1,0.8-1.4c1.1-1.7,0.8-4-0.4-5.6c0.2,0.6,0.3,1.3,0.2,1.9
				C392.8,247,392.6,247.6,392.3,248.1L392.3,248.1z"/>
			<path class="st3" d="M385.7,274.3c0,0.8-0.2,1.7-0.6,2.4c-0.5,0.7-1.1,1.2-1.9,1.5c-1.9,0.7-4.1,0-5.7-1.2
				c-1.6-1.2-3.2-3.2-5.3-3.2c-2.6,0-4.2,3-6.7,4c-2.3,0.9-5-0.3-6.8-2c-1.8-1.7-3.1-3.9-4.7-5.7c-4.3-4.7-10.8-6.6-16.9-8.6
				c-6.1-2-12.5-4.8-15.6-10.3c0.3,0.6,0.6,1.2,0.9,1.8c3.1,5.6,9.6,8.3,15.6,10.4c6.1,2,12.6,3.9,16.9,8.6c1.7,1.8,2.9,4,4.7,5.7
				c1.8,1.7,4.5,2.9,6.8,2c2.5-1,4-4,6.7-4c2.1,0,3.6,1.9,5.3,3.2c1.7,1.3,3.8,1.9,5.7,1.2c1.9-0.7,3.2-3,2.3-4.8
				C386.2,274.9,385.9,274.5,385.7,274.3L385.7,274.3z"/>
			<path class="st3" d="M398.5,260.7c0.2,0.5,0.2,1,0.2,1.5c0,0.7-0.3,1.3-0.7,1.9s-1,0.9-1.6,1.1s-1.3,0.2-2,0
				c-0.7-0.2-1.2-0.6-1.7-1.1c0.5,1.6-1.1,3.3-2.7,3.5c-1.7,0.2-3.3-0.5-4.8-1.3c0,0.9-0.1,1.8-0.1,2.7c-1.4,0.7-2.9-0.7-4-1.9
				s-3.4-1.8-3.9-0.3c-0.1,0.3-0.1,0.6,0,1c0.1,0.3,0.2,0.6,0.5,0.8c0.1,0.2,0.3,0.3,0.4,0.4c0-0.1,0-0.3,0.1-0.4
				c0.5-1.5,2.8-0.8,3.9,0.3c1.1,1.1,2.6,2.6,4,1.9c0-0.9,0.1-1.8,0.1-2.7c1.5,0.7,3.2,1.5,4.8,1.3c1.7-0.2,3.3-1.9,2.7-3.5
				c0.4,0.5,1,0.9,1.7,1.1c0.7,0.2,1.3,0.2,2,0c0.6-0.2,1.2-0.6,1.6-1.1c0.4-0.5,0.7-1.2,0.7-1.9
				C399.7,262.9,399.3,261.7,398.5,260.7L398.5,260.7z"/>
			<path class="st3" d="M318.6,245.9c-2-2.7-5.5-3.9-7.7-6.4c-0.3-0.3-0.6-0.7-0.9-1.1c0.4,1.1,1,2.1,1.8,3c2.2,2.5,5.7,3.8,7.7,6.4
				c0.3,0.4,0.5,0.8,0.8,1.2C319.8,247.9,319.3,246.9,318.6,245.9L318.6,245.9z"/>
		</g>
		<path class="st6" d="M332.3,244.4c0,0,1.7,18.8-6,24.5c-7.7,5.7,16.5,21.2,16.5,21.2l18.3-4c0,0-8.9-8.3-8.9-11.9
			c0-3.5,1.5-23.4,4-25.7C358.7,246.3,332.3,244.4,332.3,244.4z"/>
		<path class="st0" d="M327,244.4l-4.2,9.2c0,0-6.2,3.7-6.7,4c-0.5,0.3-5.4,6-5.4,6l-12.3,7.9c0,0-0.3-0.6-0.7-1.4
			c-0.8-1.6-1.8-3.1-2.8-4.5c-1-1.2,0-13.4,0-13.4s2.4-2.8,1.6-7.7c-0.9-5-1-24.5-1-24.5s-0.9-16.4,0.3-19.9s-2.9-14.4-2.9-14.4
			s-11.8-11.7-11-14.1c0.8-2.4,9.8,0,9.8,0s3.6,1.9,5.4,2c1.1,0.1,7.1,0.1,11.7,0.1h5.4c0,0,3.8,13.3,3.4,14.7
			c-0.1,0.3-0.2,0.5-0.3,0.8c-0.4,1.1-0.7,2-0.2,2.7c0.6,0.8,1.9,10.6,1.9,10.6l1.3,10.6c0,0,2,8.3,1.8,9.5c-0.1,1.2-3,3.6-1.7,5.8
			c1.3,2.2,1.7,8.9,1.7,8.9s2.1,4.9,4.2,6.8C326.5,244.1,326.7,244.3,327,244.4L327,244.4z"/>
		<path class="st3" d="M346.5,256.9c12.3,0,22.2-9.9,22.2-22.2s-9.9-22.2-22.2-22.2c-12.3,0-22.2,9.9-22.2,22.2
			S334.2,256.9,346.5,256.9z"/>
		<path class="st6" d="M346.5,256c12.3,0,22.2-9.9,22.2-22.2c0-12.2-9.9-22.2-22.2-22.2c-12.3,0-22.2,9.9-22.2,22.2
			C324.3,246.1,334.2,256,346.5,256z"/>
		<path class="st9" d="M369.9,324.9c-2,2.2-2.5,23.2-1.3,25.1c1.2,1.9-6,5.5-10.1,5.4c-4.2-0.2-15.6,3.4-15.6,3.4
			s-22.8-6.2-27.6-3.1c-4.8,3.1-11.6-5.5-9.6-8.6s-2.2-7.4-2.8-9.1c-0.1-0.7-0.2-1.4-0.2-2.2l0,0c-0.6-7.8-1.1-32.6-1.1-32.6v-28.5
			l21-14.8c3.3,1.7,6.6,3.6,9.7,5.6c2.2,1.4,4.3,3.1,6.3,4.8c5.7,5.4,19.9,11.1,19.9,11.1s15.6,18.6,17.6,20.5
			C378.1,303.8,371.9,322.8,369.9,324.9z"/>
		<path class="st3" d="M301.7,303.2v-24.5c0,0,0.6,44.7,1.1,57.1C302.3,328.1,301.7,303.2,301.7,303.2z"/>
		<path class="st3" d="M302.9,337.6c0.2,0.4,0.2,0.9,0.2,1.3C303,339.2,303,338.7,302.9,337.6z"/>
		<path class="st3" d="M332.5,273.5c-1.4,1.4-2.5,3-3.3,4.7c-1.2,2.5-27.5,0.5-27.5,0.5v-4l21-14.8c3.3,1.7,6.6,3.6,9.7,5.6
			C332.5,269.9,332.5,273.5,332.5,273.5z"/>
		<path class="st3" d="M302.9,335.8c0.2,0.4,0.2,0.9,0.2,1.3C303,337.3,303,336.8,302.9,335.8z"/>
		<path class="st3" d="M327,244.4l-4.2,9.2c0,0-6.2,3.7-6.7,4c-0.5,0.3-5.4,6-5.4,6l-12.3,7.9c0,0-0.3-0.6-0.7-1.4
			c3.3-4,6.7-8.3,8.7-9.9c3.9-3-0.1-3.3,0-3.9c0.1-0.6,8.7-3.7,11-5.9c1.9-1.8,7.1-5.3,9-6.5C326.5,244.1,326.7,244.3,327,244.4
			L327,244.4z"/>
		<path class="st0" d="M327,244.4c0,0-7.3,4.7-9.6,6.9s-10.9,5.3-11,5.9c-0.1,0.6,3.9,0.9,0,3.9c-3.9,3-13.5,17.1-17,18.1
			c-3.5,1.1-27.2,10.9-27.2,10.9s-7.7,7.3-8.9,7.3s7,7.9,7,7.9s7.4,5.9,8.2,6.8c0.8,0.9,21.1,11.9,21.1,11.9s3.5,1,3.8,2.1
			c0.3,1,5,3.9,5,3.9s5.2,5.9,4.7,8c-0.5,2.1-1.4-60.2-1.4-60.2s26.3,2.1,27.5-0.5c0.9-1.7,2-3.3,3.3-4.7c0,0-0.1-21.4-1.5-22.9
			S327,246.4,327,244.4z"/>
		<path class="st3" d="M265.8,295.1c0,0,6.9,7.5,10.2,8.8c2,0.9,3.6,2.6,4.5,4.6c0,0,3.8,2.2,5.9,2.5c2.1,0.4,5.2,3.5,5.2,3.5
			s7.7,2.2,7.7,3.8s3.1,3.8,3.1,3.8l-0.8-44.3c0,0-12.9,1.6-16.6,7C281.4,290.3,265.8,295.1,265.8,295.1z"/>
		<path class="st3" d="M280.9,299.3c0.6-0.3,16.4-20.7,16.4-20.7l2.9-0.6c0,0-7.5,11.2-7.4,12.1
			C292.9,291.1,280.9,299.3,280.9,299.3z"/>
		<path class="st3" d="M287.5,306c0,0,4.2-9.6,5.3-11.2c1.2-1.6,7.4-12.5,7.4-12.5c0.2,0.9,0.2,1.9,0,2.8
			C299.9,286.1,287.5,306,287.5,306z"/>
		<path class="st3" d="M315.4,234.5c0,0-9.2,16.9-8.4,17.7C307.8,253,315.4,234.5,315.4,234.5z"/>
		<path class="st3" d="M318.6,241.2c0,0-7.6,11.1-6.9,11C312.4,252,318.6,241.2,318.6,241.2z"/>
		<path class="st6" d="M311.7,177.6l-14.6,1c0,0,0-0.5-0.1-1.3c-0.2-4.8-0.9-21.6-1.3-23.4c-0.5-2.2-0.9-6.1-0.9-6.1
			s-7.9-1.2-7.7-2.4c0.1-1.3-10.1-14.8-2.3-14.5c6,0.2,16.4,7.3,20.6,10.4c0.6,0.4,1,1,1.3,1.6c0.3,0.6,0.4,1.3,0.3,2
			c-0.1,0.9-0.2,1.8-0.1,2.8c0.1,1.9,0,3.8-0.2,5.7c-0.2,1.6-0.1,3.5,0.7,4.9c1.1,1.9,2.7,9.9,3.6,15
			C311.4,175.7,311.7,177.6,311.7,177.6z"/>
		<path class="st3" d="M317.6,188.8l-0.3,0.8c-3.2-3.1-23-5.1-23-5.1c-1.7-2-0.2-2.9,1.7-5.4c1.1-1.5,7.6-3.5,12.8-5h5.4
			C314.2,174.1,318,187.4,317.6,188.8z"/>
		<path class="st3" d="M311.7,177.6l-14.6,1c0,0,0-0.5-0.1-1.3c2.3-1.3,7.4-3,11.7-4.2h2.1C311.4,175.7,311.7,177.6,311.7,177.6z"/>
		<path class="st0" d="M317.6,188.3c-0.1,0.3-0.2,0.5-0.3,0.8c-3.2-3.1-23-5.1-23-5.1c-1.7-2-0.2-2.9,1.7-5.4
			c1.1-1.5,7.6-3.5,12.8-5h5.4C314.2,173.6,318,186.9,317.6,188.3z"/>
		<path class="st3" d="M330.2,302.6c0,0-1.6,31.1,0,32.6S330.2,302.6,330.2,302.6z"/>
		<path class="st3" d="M341.6,315.7c0,0-0.6,34.2,0,34.5C342.2,350.5,341.6,315.7,341.6,315.7z"/>
		<path class="st3" d="M355,319.7c0,0,2.2,23.6,4.2,24.5C361.2,345.1,355,319.7,355,319.7z"/>
		<path class="st3" d="M389.4,347.8c-0.7-0.1-1.3-0.4-1.9-0.7c-2-1.3-4.2-14.9-7-16.7c-2.9-1.8-13.3-20-13.3-20s-4-7.3-5.7-9.1
			c-1.6-1.9-0.8-10.2-0.8-10.2s-4.3-5-6.1-9.1c-0.4-0.9-0.7-1.9-0.8-3c0,0,0.6-1.8,3.1,0c2.5,1.8,8.5,9.6,10.1,10.1
			c1.6,0.6,3.6,1.7,6,4.5c2.4,2.8,3.6,3.2,3.6,3.2s2.8,7,2.7,8.8c-0.1,1.7,0.9,13.5,2.2,14.6s3.3,10.5,3.3,10.5
			S388.6,344,389.4,347.8z"/>
		<path class="st3" d="M380.5,304.6c0-0.1,0-0.3,0-0.5c0.1,0.3,0.1,0.7,0.1,1C380.5,304.9,380.5,304.7,380.5,304.6L380.5,304.6z"/>
		<path class="st3" d="M390,344.2c-0.5,0.8-0.9,1.6-1.3,2.2c-1.9-2-4.1-14.8-6.9-16.6c-1-0.8-1.8-1.8-2.5-2.9v-15.2
			c0.6-1,1.1-2,1.5-3.1c0.3,4.1,1.1,10.2,2,11c1.3,1,3.3,10.5,3.3,10.5S388.6,338.9,390,344.2z"/>
		<path class="st0" d="M389.8,347.3c-0.7-0.1-1.3-0.4-1.9-0.7c-2-1.3-4.2-14.9-7.1-16.7c-2.9-1.9-13.3-20-13.3-20s-4-7.3-5.7-9.1
			c-1.6-1.9-0.8-10.2-0.8-10.2s-4.3-5-6.1-9.1c-0.4-0.9-0.7-1.9-0.8-3c0,0,0.6-1.8,3.1,0c2.5,1.8,8.5,9.6,10.1,10.1
			c1.6,0.6,3.6,1.7,6,4.5c2.4,2.8,3.6,3.2,3.6,3.2s2.8,7,2.7,8.8c-0.1,1.7,0.9,13.5,2.2,14.6c1.2,1,3.3,10.5,3.3,10.5
			S389,343.5,389.8,347.3z"/>
		<path class="st7" d="M366.2,304.2c0.9,0,1.6-0.7,1.6-1.6c0-0.9-0.7-1.6-1.6-1.6c-0.9,0-1.6,0.7-1.6,1.6
			C364.7,303.5,365.4,304.2,366.2,304.2z"/>
		<path class="st7" d="M376.5,318.2c0.9,0,1.6-0.7,1.6-1.6s-0.7-1.6-1.6-1.6c-0.9,0-1.6,0.7-1.6,1.6S375.6,318.2,376.5,318.2z"/>
		<path class="st3" d="M388.4,312.5c0,0-7.5-3.4-6.4-1.6C383.2,312.8,388.4,312.5,388.4,312.5z"/>
		<path class="st3" d="M388.4,317.5c0,0-7.6-2.1-6-0.9C384,317.9,388.4,317.5,388.4,317.5z"/>
		<path class="st3" d="M387.2,323c0,0-5.2-3.8-3.9-2.4C384.5,322,387.2,323,387.2,323z"/>
		<path class="st3" d="M392.6,327c0,0-5.3,10.4-2.8,11.1C392.4,338.8,392.6,327,392.6,327z"/>
		<path class="st3" d="M317.1,498c0,0-12.2,11.5-8.6,11.4C312,509.2,317.1,498,317.1,498z"/>
		<path class="st3" d="M300,514c0.6,0,12.9-1.2,9.7-1.8C306.4,511.5,300,514,300,514z"/>
		<path class="st3" d="M359.9,496.1c0,0,13.1,0.5,12.8,1.8C372.4,499.4,359.9,496.1,359.9,496.1z"/>
		<path class="st3" d="M357.8,501.4c0,0,7.5,5.7,9.2,3.8C368.7,503.4,357.8,501.4,357.8,501.4z"/>
		<path class="st6" d="M321.6,419.8c-0.1,0.4-0.3,0.8-0.5,1.2c-0.1,0.1-0.2,0.3-0.3,0.3c-1.5,1.1-5.6,3.1-6.2,2.9
			c-0.3-0.1-1.4-0.4-2.6-0.7c-1.4-0.4-3-0.9-3.6-0.9c-0.6-0.1-0.9-1-1-1.9c-0.1-0.9,0-1.6,0.4-1.8c0.2-0.1,0.3-0.3,0.3-0.5
			c0.1-0.2,0.1-0.4,0.2-0.6l0.1-0.2c0.2-0.8,0.4-1.9,0.5-2.8c0.1-0.5,0.1-0.9,0.1-1.2c0-0.2,0-0.3,0-0.3v-0.1l1-0.1h1
			c2.6-0.1,7.1-0.2,8.8,0.1c0.7,0.1,1.3,0.9,1.6,1.8c0.2,0.7,0.3,1.4,0.4,2.1C321.9,418,321.8,418.9,321.6,419.8L321.6,419.8z"/>
		<path class="st6" d="M374.4,425.1c0,0.1,0,0.1,0,0.2c0,1.6-0.1,2.8-0.1,3c0,0.6-16,4.9-20,4.6c-2.6-0.2-0.7-2,0.8-3.9
			c0.5-0.6,0.9-1.2,1.2-2c0.1-0.3,0.1-0.5,0-0.8c-0.1-0.3-0.2-0.6-0.2-0.8c-0.4-1.7-0.2-2.2,0.2-2.6c0.2-0.3,0.4-0.6,0.5-1
			c0.1-0.3,0.2-0.7,0.2-1c0.1-0.8-0.1-1.6-0.6-2.2c-1.2-1.6,4.6-2.5,4.6-2.5h11.1c1.1,0,1.7,1.5,2,3.5c0,0,0,0,0,0.1
			c0.1,0.6,0.1,1.2,0.2,1.8c0,0.6,0.1,1.2,0.1,1.8C374.4,423.9,374.4,424.5,374.4,425.1z"/>
		<path class="st6" d="M325.7,471.7c0,0-12.4,2.9-11.1,2.2c0.5-0.3,0.6-1.3,0.5-2.4c0-0.6-0.1-1.1-0.1-1.7c-0.2-1.3-0.4-2.4-0.4-2.4
			s6.5-1.4,8.8-0.8c0.4,0.1,0.8,0.4,1.1,0.7c0.3,0.3,0.5,0.7,0.6,1.1c0,0.1,0.1,0.2,0.1,0.3C325.5,469.7,325.7,470.7,325.7,471.7
			L325.7,471.7z"/>
		<path class="st3" d="M335.1,227.7c1.7-0.6,3.2-1.6,4.8-2.3c1.6-0.7,3.5-1.2,5.2-0.5c0.8,0.4,1.6,0.9,2.3,1.6
			c1.5,1.3,2.9,2.6,4.3,3.9c1.3,1.5,2.8,2.8,4.5,4c3.8,2.3,8.7,1.8,13.1,1.1c0.9-0.1,1.8-0.3,2.6-0.7c1.9-1.1,2.7-3.6,2.2-5.8
			c-0.5-2.1-1.8-4-3.3-5.7c-4.2-4.7-9.4-8.5-15.2-11.2c-6.1-2.8-13.4-4.2-19.5-1.4c-1.9,0.9-3.6,2.1-5.1,3.5
			c-2.1,1.9-7.6,6.7-6.4,9.9C325.8,227.7,331.9,228.7,335.1,227.7z"/>
		<path class="st7" d="M335.1,227.2c1.7-0.6,3.2-1.6,4.8-2.3c1.6-0.7,3.5-1.2,5.2-0.5c0.8,0.4,1.6,0.9,2.3,1.6
			c1.5,1.3,2.9,2.6,4.3,3.9c1.3,1.5,2.8,2.8,4.5,4c3.8,2.3,8.7,1.8,13.1,1.1c0.9-0.1,1.8-0.3,2.6-0.7c1.9-1.1,2.7-3.6,2.2-5.8
			c-0.5-2.1-1.8-4-3.3-5.7c-4.2-4.7-9.4-8.5-15.2-11.2c-6.1-2.8-13.4-4.2-19.5-1.4c-1.9,0.9-3.6,2.1-5.1,3.5
			c-2.1,1.9-7.6,6.7-6.4,9.9C325.8,227.3,331.9,228.3,335.1,227.2z"/>
		<path class="st3" d="M371.7,233.3c-0.8,0.4-1.7,0.6-2.6,0.7c-4.4,0.7-9.3,1.2-13.1-1.1c-1.6-1.2-3.2-2.5-4.5-4
			c-1.4-1.4-2.8-2.7-4.3-3.9c-0.7-0.7-1.4-1.2-2.3-1.6c-1.7-0.7-3.6-0.2-5.2,0.5c-1.6,0.7-3.1,1.8-4.8,2.3
			c-3.2,1.1-9.3,0.1-10.6-3.6c-0.1-0.2-0.1-0.4-0.1-0.5c-0.1,0.5,0,1,0.1,1.5c1.4,3.6,7.5,4.6,10.6,3.6c1.7-0.6,3.2-1.6,4.8-2.3
			s3.5-1.2,5.2-0.5c0.8,0.4,1.6,0.9,2.3,1.6c1.5,1.3,2.9,2.6,4.3,3.9c1.3,1.5,2.8,2.8,4.5,4c3.8,2.3,8.7,1.8,13.1,1.1
			c0.9-0.1,1.8-0.3,2.6-0.7c1.7-0.9,2.5-3,2.3-5c0,0.8-0.2,1.6-0.6,2.4C373,232.2,372.4,232.8,371.7,233.3L371.7,233.3z"/>
		<path class="st3" d="M309.1,413.6c-0.2,1.4-0.4,2.8-0.8,4.1C308.7,416.3,308.9,414.9,309.1,413.6L309.1,413.6z"/>
		<path class="st3" d="M320.8,421.3c-1.5,1.1-5.6,3.1-6.2,2.9c-0.6-0.2-5.1-1.5-6.2-1.7c-1.1-0.2-1.4-3.4-0.6-3.7
			c0.2-0.1,0.3-0.3,0.3-0.5c-0.1,0.2-0.2,0.4-0.3,0.6c-0.8,1.8,0.7,3.4,0.7,3.4l6.4,1.7l6-3.3c1.5-2-0.2-6.6-1-7.3
			c-0.8-0.7-10.7,0-10.7,0l-0.2-0.2v-0.1l1-0.1h1c2.6-0.1,7.1-0.2,8.8,0.1C322.3,413.6,322.3,420.2,320.8,421.3z"/>
		<path class="st3" d="M372.1,416.1H361c0,0-5.9,0.9-4.6,2.5c1.2,1.6,0.3,3.8-0.2,4.3c-0.4,0.5-0.6,1.1,0,3.4c0.6,2.3-6,6.3-2,6.6
			c4,0.3,20-4,20-4.6C374.3,427.6,375.1,416.1,372.1,416.1z M373.7,428c0,0.6-15.1,4.6-18.9,4.4c-3.8-0.3,2.5-4.1,1.9-6.2
			c-0.6-2.2-0.4-2.8,0-3.2c0.4-0.4,1.3-2.5,0.2-4c-1.2-1.5,4.4-2.4,4.4-2.4h10.5C374.5,416.6,373.7,427.4,373.7,428L373.7,428z"/>
		<path class="st3" d="M323.4,466.6c-2.3-0.6-8.8,0.8-8.8,0.8s1.2,5.7,0,6.5c-1.2,0.8,11.1-2.2,11.1-2.2S325.7,467.2,323.4,466.6z
			 M314.8,473.7c1.2-0.7,0-6.2,0-6.2s6.3-1.3,8.5-0.7c2.2,0.6,2.2,4.9,2.2,4.9S313.6,474.4,314.8,473.7z"/>
		<path class="st3" d="M374.4,423.3l-18.4,2.2l18.3-3.9C374.3,422.1,374.4,422.7,374.4,423.3z"/>
		<path class="st7" d="M355.8,425l19.1-4.1l0.4,1.8L355.8,425z"/>
		<path class="st3" d="M374.4,425.1c0,0.1,0,0.1,0,0.2L355,429c0.5-0.6,0.9-1.2,1.2-2L374.4,425.1z"/>
		<path class="st7" d="M352.9,426.9l23.2-2.4l-22.6,4.3L352.9,426.9z"/>
		<path class="st3" d="M374.1,419.6l-17.1,1.2c0,0.4-0.1,0.7-0.2,1L374.1,419.6L374.1,419.6z"/>
		<path class="st7" d="M355.8,420.4l19.5-1.4l-19.8,2.5L355.8,420.4z"/>
		<path class="st3" d="M321.8,417.1l-13.4,0.4c0.2-0.8,0.4-1.9,0.5-2.8l12.6,0.3C321.7,415.7,321.8,416.4,321.8,417.1L321.8,417.1z"
			/>
		<path class="st7" d="M307.4,414.2l18.3,0.4l-2.2,2l-16.1,0.5V414.2z"/>
		<path class="st3" d="M321.6,419.8c-0.1,0.4-0.3,0.8-0.5,1.2l-9.1,2.5c-1.4-0.4-3-0.9-3.6-0.9c-0.6-0.1-0.9-1-1-1.9L321.6,419.8z"
			/>
		<path class="st7" d="M305,420.3l21.3-1.2l-19.6,5.4L305,420.3z"/>
		<path class="st3" d="M325.2,468.7l-10.1,2.7c0-0.6-0.1-1.1-0.1-1.7c2.8-0.4,7.5-1,10.1-1.3C325.2,468.5,325.2,468.6,325.2,468.7
			L325.2,468.7z"/>
		<path class="st7" d="M312.7,469.6c0.4-0.2,14.4-1.8,14.4-1.8l-14.4,3.8V469.6z"/>
		<path class="st0" d="M540.6,84.9c8.7,0,15.7-7,15.7-15.7c0-8.7-7-15.7-15.7-15.7c-8.7,0-15.7,7-15.7,15.7
			C524.8,77.8,531.9,84.9,540.6,84.9z"/>
		<path class="st0" d="M610.3,120c6.8,0,12.4-5.5,12.4-12.3s-5.5-12.3-12.4-12.3s-12.4,5.5-12.4,12.3S603.5,120,610.3,120z"/>
		<path class="st1" d="M540.6,84.9c8.7,0,15.7-7,15.7-15.7c0-8.7-7-15.7-15.7-15.7c-8.7,0-15.7,7-15.7,15.7
			C524.8,77.8,531.9,84.9,540.6,84.9z"/>
		<path class="st1" d="M610.3,120c6.8,0,12.4-5.5,12.4-12.3s-5.5-12.3-12.4-12.3s-12.4,5.5-12.4,12.3S603.5,120,610.3,120z"/>
		<path class="st0" d="M95.6,147.2c21.9,0,39.7-17.7,39.7-39.6c0-21.9-17.8-39.6-39.7-39.6c-21.9,0-39.7,17.7-39.7,39.6
			C55.9,129.5,73.7,147.2,95.6,147.2z"/>
		<path class="st1" d="M95.6,147.2c21.9,0,39.7-17.7,39.7-39.6c0-21.9-17.8-39.6-39.7-39.6c-21.9,0-39.7,17.7-39.7,39.6
			C55.9,129.5,73.7,147.2,95.6,147.2z"/>
		<path class="st0" d="M606.7,56.9c2.4,0,4.4-1.9,4.4-4.4c0-2.4-2-4.4-4.4-4.4c-2.4,0-4.4,1.9-4.4,4.4
			C602.3,54.9,604.2,56.9,606.7,56.9z"/>
		<path class="st1" d="M606.7,56.9c2.4,0,4.4-1.9,4.4-4.4c0-2.4-2-4.4-4.4-4.4c-2.4,0-4.4,1.9-4.4,4.4
			C602.3,54.9,604.2,56.9,606.7,56.9z"/>
		<path class="st0" d="M231.5,553.3c0,0,4.5,5.9-2.1,14.8c-6.6,8.9-12,16.4-9.8,22c0,0,10-16.5,18.1-16.8
			C245.8,573.1,240.4,563.3,231.5,553.3z"/>
		<path class="st3" d="M231.5,553.3c0.4,0.6,0.7,1.2,0.9,1.9c7.9,9.3,12.1,18,4.5,18.1c-7.1,0.2-15.6,12.9-17.6,16
			c0.1,0.2,0.1,0.5,0.2,0.7c0,0,10-16.5,18.1-16.8C245.8,573.1,240.4,563.3,231.5,553.3z"/>
		<path class="st10" d="M239.9,560.8c0,2.1-0.2,3.8-0.5,3.8c-0.3,0-0.5-1.7-0.5-3.8c0-2.1,0.3-1.1,0.6-1.1
			C239.7,559.7,239.9,558.7,239.9,560.8z"/>
		<path class="st10" d="M242.8,563.3c-1.8,1-3.4,1.6-3.6,1.3c-0.1-0.3,1.2-1.3,3.1-2.3c1.8-1,1.1-0.3,1.2,0
			C243.7,562.7,244.6,562.3,242.8,563.3z"/>
		<path class="st0" d="M207.6,553.3c0,0-4.5,5.9,2.1,14.8c6.6,8.9,12,16.4,9.8,22c0,0-10-16.5-18.1-16.8
			C193.4,573.1,198.7,563.3,207.6,553.3z"/>
		<path class="st3" d="M207.6,553.3c-0.4,0.6-0.7,1.2-0.9,1.9c-7.9,9.3-12.1,18-4.5,18.1c7.1,0.2,15.6,12.9,17.6,16
			c-0.1,0.2-0.1,0.5-0.2,0.7c0,0-10-16.5-18.1-16.8C193.4,573.1,198.7,563.3,207.6,553.3z"/>
		<path class="st10" d="M199.2,560.8c0,2.1,0.2,3.8,0.5,3.8s0.5-1.7,0.5-3.8c0-2.1-0.3-1.1-0.6-1.1
			C199.4,559.7,199.2,558.7,199.2,560.8z"/>
		<path class="st10" d="M196.4,563.3c1.8,1,3.4,1.6,3.6,1.3c0.1-0.3-1.2-1.3-3.1-2.3c-1.8-1-1.1-0.3-1.2,0
			C195.5,562.7,194.5,562.3,196.4,563.3z"/>
		<path class="st11" d="M200.7,589.3c0,0,12.6-0.4,16.4-3.1c3.8-2.7,19.4-5.9,20.4-1.6c0.9,4.3,19,21.6,4.7,21.7
			c-14.3,0.1-33.1-2.2-36.9-4.5C201.5,599.5,200.7,589.3,200.7,589.3z"/>
		<path class="st12" d="M242.5,604.8c-14.3,0.1-33.1-2.2-36.9-4.5c-2.9-1.8-4-8.1-4.4-11h-0.4c0,0,0.8,10.2,4.6,12.5
			c3.8,2.3,22.7,4.6,36.9,4.5c4.1,0,5.5-1.5,5.5-3.7C247.1,604,245.5,604.8,242.5,604.8z"/>
		<path class="st13" d="M488.4,598.4c0,0-8.1-27.4,1.5-47.5c4.1-8.4,5.3-18,3.5-27.1c-0.9-4.4-2.2-8.6-3.8-12.7"/>
		<path class="st0" d="M495.5,498.3c0,3.4-6.1,13.1-6.1,13.1s-6.1-9.7-6.1-13.1c0.1-1.6,0.7-3.1,1.9-4.2c1.1-1.1,2.7-1.7,4.2-1.7
			s3.1,0.6,4.2,1.7C494.8,495.2,495.4,496.7,495.5,498.3L495.5,498.3z"/>
		<path class="st0" d="M505.5,516.9c-1.8,2.8-12.2,7.7-12.2,7.7s0.2-11.5,2-14.3c0.4-0.7,1-1.2,1.7-1.7c0.7-0.5,1.4-0.8,2.2-0.9
			s1.6-0.2,2.4,0c0.8,0.1,1.5,0.4,2.2,0.9c0.7,0.4,1.2,1,1.7,1.7c0.5,0.7,0.8,1.4,0.9,2.2c0.2,0.8,0.2,1.6,0,2.4
			C506.3,515.5,506,516.2,505.5,516.9L505.5,516.9z"/>
		<path class="st0" d="M505.1,548.6c-3,1.5-14.4,0.5-14.4,0.5s6-9.8,9-11.3c0.7-0.4,1.5-0.6,2.3-0.6c0.8-0.1,1.6,0,2.4,0.3
			c0.8,0.3,1.5,0.6,2.1,1.2c0.6,0.5,1.1,1.2,1.5,1.9c0.4,0.7,0.6,1.5,0.6,2.3c0.1,0.8,0,1.6-0.3,2.4c-0.3,0.8-0.7,1.5-1.2,2.1
			C506.5,547.8,505.8,548.3,505.1,548.6L505.1,548.6z"/>
		<path class="st0" d="M499.4,572.6c-2.7,2-14.2,2.9-14.2,2.9s4.2-10.7,6.9-12.7c0.6-0.5,1.4-0.8,2.1-1s1.6-0.2,2.4-0.1
			c0.8,0.1,1.6,0.4,2.2,0.8c0.7,0.4,1.3,1,1.8,1.6c0.5,0.6,0.8,1.4,1,2.1c0.2,0.8,0.2,1.6,0.1,2.4c-0.1,0.8-0.4,1.5-0.8,2.2
			C500.6,571.5,500,572.1,499.4,572.6L499.4,572.6z"/>
		<path class="st0" d="M480.5,525.2c2.4,2.3,13.6,4.8,13.6,4.8s-2.8-11.1-5.2-13.5c-0.6-0.6-1.2-1-2-1.3c-0.7-0.3-1.5-0.5-2.3-0.5
			c-0.8,0-1.6,0.2-2.3,0.5c-0.7,0.3-1.4,0.8-2,1.4c-0.6,0.6-1,1.3-1.3,2c-0.3,0.7-0.4,1.5-0.4,2.4c0,0.8,0.2,1.6,0.5,2.3
			C479.5,524,480,524.6,480.5,525.2L480.5,525.2z"/>
		<path class="st0" d="M474.2,553.3c3,1.5,14.4,0.5,14.4,0.5s-6-9.8-9-11.3c-1.4-0.7-3.1-0.8-4.6-0.2c-1.5,0.5-2.7,1.6-3.4,3
			c-0.7,1.4-0.8,3-0.4,4.6C471.7,551.3,472.8,552.5,474.2,553.3L474.2,553.3z"/>
		<path class="st0" d="M471.7,581.5c2.7,2,14.1,2.9,14.1,2.9s-4.2-10.7-6.9-12.7c-1.3-1-2.9-1.4-4.5-1.1s-3,1.1-4,2.4
			c-1,1.3-1.4,2.9-1.1,4.5C469.5,579.1,470.4,580.5,471.7,581.5L471.7,581.5z"/>
		<path class="st0" d="M495.5,498.3c0,3.4-6.1,13.1-6.1,13.1s-6.1-9.7-6.1-13.1c0.1-1.6,0.7-3.1,1.9-4.2c1.1-1.1,2.7-1.7,4.2-1.7
			s3.1,0.6,4.2,1.7C494.8,495.2,495.4,496.7,495.5,498.3L495.5,498.3z"/>
		<path class="st0" d="M505.5,516.9c-1.8,2.8-12.2,7.7-12.2,7.7s0.2-11.5,2-14.3c0.4-0.7,1-1.2,1.7-1.7c0.7-0.5,1.4-0.8,2.2-0.9
			s1.6-0.2,2.4,0c0.8,0.1,1.5,0.4,2.2,0.9c0.7,0.4,1.2,1,1.7,1.7c0.5,0.7,0.8,1.4,0.9,2.2c0.2,0.8,0.2,1.6,0,2.4
			C506.3,515.5,506,516.2,505.5,516.9L505.5,516.9z"/>
		<path class="st0" d="M505.1,548.6c-3,1.5-14.4,0.5-14.4,0.5s6-9.8,9-11.3c0.7-0.4,1.5-0.6,2.3-0.6c0.8-0.1,1.6,0,2.4,0.3
			c0.8,0.3,1.5,0.6,2.1,1.2c0.6,0.5,1.1,1.2,1.5,1.9c0.4,0.7,0.6,1.5,0.6,2.3c0.1,0.8,0,1.6-0.3,2.4c-0.3,0.8-0.7,1.5-1.2,2.1
			C506.5,547.8,505.8,548.3,505.1,548.6L505.1,548.6z"/>
		<path class="st0" d="M499.4,572.6c-2.7,2-14.2,2.9-14.2,2.9s4.2-10.7,6.9-12.7c0.6-0.5,1.4-0.8,2.1-1s1.6-0.2,2.4-0.1
			c0.8,0.1,1.6,0.4,2.2,0.8c0.7,0.4,1.3,1,1.8,1.6c0.5,0.6,0.8,1.4,1,2.1c0.2,0.8,0.2,1.6,0.1,2.4c-0.1,0.8-0.4,1.5-0.8,2.2
			C500.6,571.5,500,572.1,499.4,572.6L499.4,572.6z"/>
		<path class="st0" d="M480.5,525.2c2.4,2.3,13.6,4.8,13.6,4.8s-2.8-11.1-5.2-13.5c-0.6-0.6-1.2-1-2-1.3c-0.7-0.3-1.5-0.5-2.3-0.5
			c-0.8,0-1.6,0.2-2.3,0.5c-0.7,0.3-1.4,0.8-2,1.4c-0.6,0.6-1,1.3-1.3,2c-0.3,0.7-0.4,1.5-0.4,2.4c0,0.8,0.2,1.6,0.5,2.3
			C479.5,524,480,524.6,480.5,525.2L480.5,525.2z"/>
		<path class="st0" d="M474.2,553.3c3,1.5,14.4,0.5,14.4,0.5s-6-9.8-9-11.3c-1.4-0.7-3.1-0.8-4.6-0.2c-1.5,0.5-2.7,1.6-3.4,3
			c-0.7,1.4-0.8,3-0.4,4.6C471.7,551.3,472.8,552.5,474.2,553.3L474.2,553.3z"/>
		<path class="st0" d="M471.7,581.5c2.7,2,14.1,2.9,14.1,2.9s-4.2-10.7-6.9-12.7c-1.3-1-2.9-1.4-4.5-1.1s-3,1.1-4,2.4
			c-1,1.3-1.4,2.9-1.1,4.5C469.5,579.1,470.4,580.5,471.7,581.5L471.7,581.5z"/>
		<path class="st11" d="M469.3,596.7c0,0,9.8-2,12.5-4.6c2.6-2.6,14.4-7.1,15.7-3.9s17.7,14.3,6.5,16.2c-11.2,2-26.2,2.6-29.5,1.3
			C471.2,604.5,469.3,596.7,469.3,596.7z"/>
		<path class="st12" d="M504,603.3c-11.1,2-26.2,2.6-29.5,1.3c-2.5-1-4.2-5.7-4.9-8l-0.3,0.1c0,0,2,7.8,5.2,9.1
			c3.3,1.3,18.4,0.7,29.5-1.3c3.2-0.6,4.1-1.9,3.8-3.6C507.5,602,506.4,602.9,504,603.3z"/>
		<path class="st2" d="M123,62.2v0.3c0,0,0,0.1,0,0.1c0,0.1,0,0.2,0,0.3v0.1c0,0.1,0,0.2,0,0.3v0.1c0,0,0,0,0,0v0.3v0.2l-0.1,0.5
			c0,0.1,0,0.2-0.1,0.3c0,0.1,0,0.1,0,0.2V65c0,0,0,0.1,0,0.1c0,0.1,0,0.1,0,0.2c0,0.1,0,0.1,0,0.2c0,0.1,0,0.1,0,0.1
			c0,0,0,0.2-0.1,0.2c0,0.1,0,0.1,0,0.2c0,0.1,0,0.1-0.1,0.2c0,0.1,0,0.2-0.1,0.2c0,0,0,0,0,0.1c0,0.1,0,0.2-0.1,0.2
			c-0.1,0.2-0.1,0.5-0.2,0.7c0,0.1-0.1,0.1-0.1,0.2c0,0.1,0,0.1-0.1,0.1c-0.5,1.4-1.2,2.7-2.1,3.9l-0.2,0.2
			c-0.4,0.5-0.9,1.1-1.4,1.6L95.6,96.1L72.9,73.4c-0.7-0.7-1.2-1.4-1.8-2.1c-0.3-0.5-0.6-1-0.9-1.5c-1.5-2.8-2.2-5.9-1.9-9.1
			c0-0.3,0.1-0.6,0.1-0.9c0.1-0.5,0.2-1,0.3-1.5c0-0.1,0.1-0.2,0.1-0.3l0-0.2v-0.1l0.1-0.2c0.1-0.2,0.1-0.3,0.2-0.5
			c0.1-0.2,0.1-0.2,0.1-0.2c0.1-0.3,0.2-0.7,0.4-1l0.1-0.2l0.1-0.3l0.2-0.5c0-0.1,0.1-0.1,0.1-0.2c0-0.1,0.1-0.2,0.1-0.2
			c0.1-0.1,0.1-0.2,0.2-0.3c0,0,0.1-0.1,0.1-0.1c0,0,0-0.1,0.1-0.1l0,0l0.1-0.2c0-0.1,0.1-0.1,0.1-0.2l0.3-0.4l0.1-0.1l0.1-0.2
			l0.1-0.2l0.2-0.2l0.2-0.2l0.1-0.1l0.1-0.1c0.1-0.1,0.1-0.1,0.2-0.2c0,0,0-0.1,0.1-0.1l0,0l0.1-0.2l0.2-0.2
			c0.1-0.2,0.3-0.3,0.4-0.4l0.2-0.2l0.3-0.3l0.2-0.2l0.2-0.2l0.1-0.1l0.1-0.1l0.3-0.2l0.1-0.1c0.2-0.2,0.5-0.4,0.7-0.5l0.1-0.1
			l0.2-0.1l0.1-0.1l0.2-0.1l0.1-0.1l0.2-0.1c0.2-0.1,0.4-0.2,0.6-0.3l0.1-0.1l0.2-0.1l0.2-0.1l0.2-0.1l0.2-0.1l0.2-0.1l0.2-0.1
			c0.2-0.1,0.4-0.2,0.7-0.3l0.2-0.1l0.2-0.1L79,47l0.1,0l0.3-0.1l0.2-0.2l0.1,0h0.1l0.2-0.1l0.3-0.1c0.3-0.1,0.6-0.1,0.9-0.2h0.1
			h0.2h0.2H82h0.1c0.3,0,0.6-0.1,0.9-0.1h0.2h2.3c0.2,0,0.5,0,0.7,0.1l0.3,0h0.2h0.2h0.2h0.1c0.3,0.1,0.6,0.1,0.9,0.2l0.4,0.1h0.1
			l0.2,0l0.3,0.1l0.1,0l0.7,0.2l0.1,0.1l0.2,0.1l0.3,0.1l0.3,0.1l0.1,0.1l0.2,0.1l0.2,0.1l0.2,0.1l0.2,0.1l0.2,0.1l0.4,0.2l0.2,0.1
			l0.5,0.3l0.1,0.1l0.2,0.1l0.1,0.1l0.1,0.1l0.6,0.5l0.1,0.1l0.3,0.2l0.1,0.1l0.1,0.1l0.2,0.2l0.2,0.2l0.3,0.3l0.2,0.2l0.2-0.2
			c0.1-0.1,0.2-0.2,0.3-0.3c0.1-0.1,0.1-0.1,0.2-0.2l0.2-0.2l0.1-0.1l0.1-0.1l0.3-0.2l0.1-0.1c0.2-0.2,0.5-0.4,0.7-0.5l0.2-0.1
			l0.2-0.1l0.1-0.1l0.2-0.1l0.1-0.1l0.2-0.1c0.2-0.1,0.4-0.2,0.6-0.3l0.1-0.1l0.2-0.1l0.2-0.1l0.2-0.1l0.2-0.1l0.2-0.1l0.2-0.1
			c0.2-0.1,0.4-0.2,0.7-0.3l0.2-0.1l0.2-0.1l0.2-0.1l0.1,0l0.3-0.1l0.2,0l0.1,0h0.1l0.2-0.1l0.3-0.1c0.3-0.1,0.6-0.1,0.9-0.2h0.1
			h0.2h0.2h0.2h0.1c0.3,0,0.6-0.1,0.9-0.1h0.2h2.3l0.7,0.1l0.3,0h0.2h0.2h0.2h0.1c0.3,0.1,0.6,0.1,0.9,0.2l0.4,0.1h0.1l0.2,0
			l0.3,0.1l0.1,0l0.7,0.2l0.1,0.1l0.2,0.1l0.3,0.1l0.3,0.1l0.1,0.1l0.2,0.1l0.2,0.1l0.2,0.1l0.2,0.1l0.2,0.1l0.4,0.2l0.2,0.1
			l0.5,0.3l0.1,0.1l0.2,0.1l0.2,0.1l0.1,0.1c0.2,0.2,0.4,0.3,0.6,0.5c0.1,0,0.1,0.1,0.1,0.1c0.1,0.1,0.2,0.2,0.3,0.2l0.1,0.1
			l0.1,0.1l0.2,0.2l0.2,0.2l0.1,0.1l0.2,0.2l0.1,0.1l0.1,0.1l0.2,0.2l0.3,0.3c0.1,0.1,0.1,0.1,0.1,0.2c0.1,0.1,0.2,0.2,0.3,0.3
			l0.3,0.3c0.3,0.4,0.6,0.7,0.8,1.1c0.1,0,0.1,0.1,0.2,0.1c0,0.1,0.1,0.1,0.1,0.2l0.1,0.2l0.2,0.3l0.1,0.2l0.1,0.1l0.1,0.1l0.1,0.1
			l0.1,0.2l0.1,0.2c0.2,0.4,0.4,0.8,0.6,1.2l0.1,0.2c0.1,0.2,0.1,0.3,0.2,0.5c0,0.1,0,0.1,0.1,0.2c0,0.1,0.1,0.2,0.1,0.2l0.1,0.2
			l0,0.1c0,0.1,0,0.1,0.1,0.2l0.1,0.2c0,0.1,0.1,0.3,0.1,0.4c0,0.1,0,0.1,0.1,0.2c0,0.1,0,0.2,0.1,0.3c0,0,0,0.1,0,0.1
			c0,0.1,0,0.1,0,0.2v0.1v0.1v0.1v0.1c0,0.1,0,0.1,0,0.2s0,0.1,0,0.2s0,0.1,0,0.2v0.2v0.1v0.2c0,0,0,0.1,0,0.1s0,0.2,0,0.2
			c0,0,0,0.1,0,0.1c0,0,0,0.1,0,0.1c0,0.1,0,0.2,0,0.2c0,0.1,0,0.2,0,0.2L123,62.2z"/>
		<path class="st3" d="M123,62.2v0.3c0,0,0,0.1,0,0.1c0,0.1,0,0.2,0,0.3v0.1c0,0.1,0,0.2,0,0.3v0.1c0,0,0,0,0,0v0.3v0.2l-0.1,0.5
			c0,0.1,0,0.2-0.1,0.3c0,0.1,0,0.1,0,0.2V65c0,0,0,0.1,0,0.1c0,0.1,0,0.1,0,0.2c0,0.1,0,0.1,0,0.2c0,0.1,0,0.1,0,0.1
			c0,0,0,0.2-0.1,0.2c0,0.1,0,0.1,0,0.2c0,0.1,0,0.1-0.1,0.2c0,0.1,0,0.2-0.1,0.2c0,0,0,0,0,0.1c0,0.1,0,0.2-0.1,0.2
			c-0.1,0.2-0.1,0.5-0.2,0.7c0,0.1-0.1,0.1-0.1,0.2c0,0.1,0,0.1-0.1,0.1c0.6-2.7,0.6-5.5-0.1-8.1c-0.7-2.6-2.2-5-4.1-7
			c-0.8-0.8-1.8-1.6-2.7-2.2c-0.3-0.2-0.6-0.4-0.9-0.5c-2.7-1.5-5.7-2.2-8.7-2c-3,0.2-6,1.2-8.4,3c-0.7,0.5-1.4,1.1-2.1,1.8
			c-0.6-0.6-1.3-1.2-2-1.7l0,0c-0.5-0.4-1.1-0.7-1.7-1c-2.4-1.3-5-2-7.7-2c-2.7,0-5.4,0.7-7.7,2c-0.8,0.4-1.6,0.9-2.3,1.5
			c-1.2,0.9-2.2,2-3.1,3.3c-0.3,0.4-0.6,0.9-0.9,1.4c-0.3,0.4-0.5,0.9-0.7,1.4c-0.1,0.3-0.2,0.5-0.3,0.8c0-0.1,0.1-0.2,0.1-0.3
			l0-0.2v-0.1l0.1-0.2c0.1-0.2,0.1-0.3,0.2-0.5c0.1-0.2,0.1-0.2,0.1-0.2c0.1-0.3,0.2-0.7,0.4-1l0.1-0.2l0.1-0.3l0.2-0.5
			c0-0.1,0.1-0.1,0.1-0.2c0-0.1,0.1-0.2,0.1-0.2c0.1-0.1,0.1-0.2,0.2-0.3c0,0,0.1-0.1,0.1-0.1c0,0,0-0.1,0.1-0.1l0,0l0.1-0.2
			c0-0.1,0.1-0.1,0.1-0.2L71,53l0.1-0.1l0.1-0.2l0.1-0.2l0.2-0.2l0.2-0.2l0.1-0.1l0.1-0.1c0.1-0.1,0.1-0.1,0.2-0.2
			c0,0,0-0.1,0.1-0.1l0,0l0.1-0.2l0.2-0.2c0.1-0.2,0.3-0.3,0.4-0.4l0.2-0.2l0.3-0.3l0.2-0.2l0.2-0.2l0.1-0.1l0.1-0.1l0.3-0.2
			l0.1-0.1c0.2-0.2,0.5-0.4,0.7-0.5l0.1-0.1l0.2-0.1l0.1-0.1l0.2-0.1l0.1-0.1l0.2-0.1c0.2-0.1,0.4-0.2,0.6-0.3l0.1-0.1l0.2-0.1
			l0.2-0.1l0.2-0.1l0.2-0.1l0.2-0.1l0.2-0.1c0.2-0.1,0.4-0.2,0.7-0.3l0.2-0.1l0.2-0.1L79,47l0.1,0l0.3-0.1l0.2-0.1l0.1,0h0.1
			l0.2-0.1l0.3-0.1c0.3-0.1,0.6-0.1,0.9-0.2h0.1h0.2h0.2H82h0.1c0.3,0,0.6-0.1,0.9-0.1h0.2h2.3c0.2,0,0.5,0,0.7,0.1l0.3,0h0.2h0.2
			h0.2h0.1c0.3,0.1,0.6,0.1,0.9,0.2l0.4,0.1h0.1l0.2,0l0.3,0.1l0.1,0l0.7,0.2l0.1,0.1l0.2,0.1l0.3,0.1l0.3,0.1l0.1,0.1l0.2,0.1
			l0.2,0.1l0.2,0.1l0.2,0.1l0.2,0.1l0.4,0.2l0.2,0.1l0.5,0.3l0.1,0.1l0.2,0.1l0.1,0.1l0.1,0.1l0.6,0.5l0.1,0.1l0.3,0.2l0.1,0.1
			l0.1,0.1l0.2,0.2l0.2,0.2l0.3,0.3l0.2,0.2l0.2-0.2c0.1-0.1,0.2-0.2,0.3-0.3c0.1-0.1,0.1-0.1,0.2-0.2l0.2-0.2l0.1-0.1l0.1-0.1
			l0.3-0.2l0.1-0.1c0.2-0.2,0.5-0.4,0.7-0.5l0.2-0.1l0.2-0.1l0.1-0.1l0.2-0.1l0.1-0.1l0.2-0.1c0.2-0.1,0.4-0.2,0.6-0.3l0.1-0.1
			l0.2-0.1l0.2-0.1l0.2-0.1l0.2-0.1l0.2-0.1l0.2-0.1c0.2-0.1,0.4-0.2,0.7-0.3l0.2-0.1l0.2-0.1l0.2-0.1l0.1,0l0.3-0.1l0.2,0l0.1,0
			h0.1l0.2-0.1l0.3-0.1c0.3-0.1,0.6-0.1,0.9-0.2h0.1h0.2h0.2h0.2h0.1c0.3,0,0.6-0.1,0.9-0.1h0.2h2.3l0.7,0.1l0.3,0h0.2h0.2h0.2h0.1
			c0.3,0.1,0.6,0.1,0.9,0.2l0.4,0.1h0.1l0.2,0l0.3,0.1l0.1,0l0.7,0.2l0.1,0.1l0.2,0.1l0.3,0.1l0.3,0.1l0.1,0.1l0.2,0.1l0.2,0.1
			l0.2,0.1l0.2,0.1l0.2,0.1l0.4,0.2l0.2,0.1l0.5,0.3l0.1,0.1l0.2,0.1l0.2,0.1l0.1,0.1c0.2,0.2,0.4,0.3,0.6,0.5
			c0.1,0,0.1,0.1,0.1,0.1c0.1,0.1,0.2,0.2,0.3,0.2l0.1,0.1l0.1,0.1l0.2,0.2l0.2,0.2l0.1,0.1l0.2,0.2l0.1,0.1l0.1,0.1l0.2,0.2
			l0.3,0.3c0.1,0.1,0.1,0.1,0.1,0.2c0.1,0.1,0.2,0.2,0.3,0.3l0.3,0.3c0.3,0.4,0.6,0.7,0.8,1.1c0.1,0,0.1,0.1,0.2,0.1
			c0,0.1,0.1,0.1,0.1,0.2l0.1,0.2l0.2,0.3l0.1,0.2l0.1,0.1l0.1,0.1l0.1,0.1l0.1,0.2l0.1,0.2c0.2,0.4,0.4,0.8,0.6,1.2l0.1,0.2
			c0.1,0.2,0.1,0.3,0.2,0.5c0,0.1,0,0.1,0.1,0.2c0,0.1,0.1,0.2,0.1,0.2l0.1,0.2l0,0.1c0,0.1,0,0.1,0.1,0.2l0.1,0.2
			c0,0.1,0.1,0.3,0.1,0.4c0,0.1,0,0.1,0.1,0.2c0,0.1,0,0.2,0.1,0.3c0,0,0,0.1,0,0.1c0,0.1,0,0.1,0,0.2v0.1v0.1v0.1v0.1
			c0,0.1,0,0.1,0,0.2s0,0.1,0,0.2s0,0.1,0,0.2v0.2v0.1v0.2c0,0,0,0.1,0,0.1s0,0.2,0,0.2c0,0,0,0.1,0,0.1c0,0,0,0.1,0,0.1
			c0,0.1,0,0.2,0,0.2c0,0.1,0,0.2,0,0.2L123,62.2z"/>
	</g>
</g>
</svg>
